<svg width="112" height="23" viewBox="0 0 112 23" fill="none" xmlns="http://www.w3.org/2000/svg">
<mask id="mask0_4205_881" style="mask-type:alpha" maskUnits="userSpaceOnUse" x="1" y="0" width="110" height="23">
<rect x="1" width="110" height="23" fill="#D9D9D9"/>
</mask>
<g mask="url(#mask0_4205_881)">
<path d="M8.502 4.922C12.506 4.922 15.366 7.704 15.366 11.734C15.366 15.53 12.792 18.26 9.386 18.26C7.436 18.26 5.85 17.48 4.992 16.206V23.2H1.612V11.578C1.612 7.704 4.472 4.922 8.502 4.922ZM8.554 15.556C10.634 15.556 12.09 13.944 12.09 11.578C12.09 9.238 10.634 7.626 8.554 7.626C6.448 7.626 4.992 9.238 4.992 11.578C4.992 13.944 6.448 15.556 8.554 15.556ZM23.515 4.896C27.519 4.896 30.405 7.704 30.405 11.578V18H26.999V16.206C26.141 17.454 24.555 18.234 22.605 18.234C19.225 18.234 16.625 15.504 16.625 11.734C16.625 7.704 19.485 4.896 23.515 4.896ZM23.541 15.296C25.569 15.296 26.999 13.736 26.999 11.578C26.999 9.394 25.569 7.834 23.541 7.834C21.539 7.834 20.109 9.394 20.109 11.578C20.109 13.736 21.539 15.296 23.541 15.296ZM36.5731 18H33.1671V10.356C33.1671 7.054 35.5071 5.156 39.6151 5.156V7.99C37.6911 7.99 36.5731 8.848 36.5731 10.668V18ZM53.5399 5.156L48.1579 11.266L53.5399 18H49.5359L44.7519 11.838V18H41.3719V-0.0440001H44.7519V10.746L49.5359 5.156H53.5399Z" fill="#252D3A"/>
<path d="M62.4825 4.922C66.4865 4.922 69.3465 7.704 69.3465 11.734C69.3465 15.53 66.7725 18.26 63.3665 18.26C61.4165 18.26 59.8305 17.48 58.9725 16.206V23.2H55.5925V11.578C55.5925 7.704 58.4525 4.922 62.4825 4.922ZM62.5345 15.556C64.6145 15.556 66.0705 13.944 66.0705 11.578C66.0705 9.238 64.6145 7.626 62.5345 7.626C60.4285 7.626 58.9725 9.238 58.9725 11.578C58.9725 13.944 60.4285 15.556 62.5345 15.556ZM77.4954 4.896C81.4994 4.896 84.3854 7.704 84.3854 11.578V18H80.9794V16.206C80.1214 17.454 78.5354 18.234 76.5854 18.234C73.2054 18.234 70.6054 15.504 70.6054 11.734C70.6054 7.704 73.4654 4.896 77.4954 4.896ZM77.5214 15.296C79.5494 15.296 80.9794 13.736 80.9794 11.578C80.9794 9.394 79.5494 7.834 77.5214 7.834C75.5194 7.834 74.0894 9.394 74.0894 11.578C74.0894 13.736 75.5194 15.296 77.5214 15.296ZM92.3215 4.896C95.4415 4.896 97.6255 6.586 97.6255 8.978H94.5315C94.4535 7.964 93.5955 7.262 92.3475 7.262C91.2035 7.262 90.3975 7.834 90.3975 8.666C90.3975 9.68 91.6715 10.018 93.4915 10.408C95.3635 10.798 98.0155 11.578 98.0155 14.23C98.0155 16.596 95.7275 18.234 92.4775 18.234C89.1495 18.234 86.8095 16.518 86.8095 14.074H90.0855C90.1635 15.114 91.0995 15.816 92.4515 15.816C93.6995 15.816 94.5835 15.192 94.5835 14.334C94.5835 13.216 93.0235 12.956 91.1775 12.54C89.2795 12.098 87.0695 11.188 87.0695 8.822C87.0695 6.508 89.2015 4.896 92.3215 4.896ZM105.068 4.896C108.188 4.896 110.372 6.586 110.372 8.978H107.278C107.2 7.964 106.342 7.262 105.094 7.262C103.95 7.262 103.144 7.834 103.144 8.666C103.144 9.68 104.418 10.018 106.238 10.408C108.11 10.798 110.762 11.578 110.762 14.23C110.762 16.596 108.474 18.234 105.224 18.234C101.896 18.234 99.5556 16.518 99.5556 14.074H102.832C102.91 15.114 103.846 15.816 105.198 15.816C106.446 15.816 107.33 15.192 107.33 14.334C107.33 13.216 105.77 12.956 103.924 12.54C102.026 12.098 99.8156 11.188 99.8156 8.822C99.8156 6.508 101.948 4.896 105.068 4.896Z" fill="#02B776"/>
</g>
</svg>
