<svg width="124" height="23" viewBox="0 0 124 23" fill="none" xmlns="http://www.w3.org/2000/svg">
<path fill-rule="evenodd" clip-rule="evenodd" d="M51.6643 14.3859C51.6643 11.2854 49.0942 8.77191 45.9238 8.77191C42.7535 8.77191 40.1833 11.2854 40.1833 14.3859C40.1833 17.4865 42.7535 20 45.9238 20C49.0942 20 51.6643 17.4865 51.6643 14.3859ZM43.4636 14.3859C43.4636 13.0571 44.5651 11.9799 45.9238 11.9799C47.2826 11.9799 48.384 13.0571 48.384 14.3859C48.384 15.7147 47.2826 16.7919 45.9238 16.7919C44.5651 16.7919 43.4636 15.7147 43.4636 14.3859Z" fill="#E0E3E9"/>
<path d="M47.7177 0V3.85965H51.6643V7.36842H47.7177V11.2281H44.1299V7.36842H40.1833V3.85965L44.1299 3.8593V0H47.7177Z" fill="#02B776"/>
<rect x="53.0999" y="3.85965" width="3.58781" height="16.1403" fill="#E0E3E9"/>
<rect x="59.1987" y="3.85965" width="3.58781" height="16.1403" fill="#E0E3E9"/>
<path d="M62.0691 10.1755V13.6843H53.8171V10.1755H62.0691Z" fill="#E0E3E9"/>
<path d="M34.0842 20V3.85966H37.672V20H34.0842Z" fill="#E0E3E9"/>
<path d="M28.7024 13.6841V5.61397H32.2902V13.6841H28.7024Z" fill="#E0E3E9"/>
<rect x="20.8091" y="10.1754" width="11.481" height="3.50877" fill="#E0E3E9"/>
<path d="M20.8091 18.2456V10.1754H24.3969V18.2456H20.8091Z" fill="#E0E3E9"/>
<rect x="20.8091" y="5.61401" width="7.89318" height="3.50877" fill="#02B776"/>
<rect x="24.397" y="14.7368" width="7.89318" height="3.50877" fill="#02B776"/>
<path d="M14.3511 20V3.85966H17.9389V20H14.3511Z" fill="#E0E3E9"/>
<path fill-rule="evenodd" clip-rule="evenodd" d="M12.1986 17.8947V5.96484H0V17.8947H12.1986ZM3.58767 9.47367H8.61061V14.3859H3.58767V9.47367Z" fill="#02B776"/>
<mask id="mask0_4377_8756" style="mask-type:alpha" maskUnits="userSpaceOnUse" x="68" y="0" width="56" height="23">
<rect x="68" width="56" height="23" fill="#D9D9D9"/>
</mask>
<g mask="url(#mask0_4377_8756)">
<path d="M75.502 4.922C79.506 4.922 82.366 7.704 82.366 11.734C82.366 15.53 79.792 18.26 76.386 18.26C74.436 18.26 72.85 17.48 71.992 16.206V23.2H68.612V11.578C68.612 7.704 71.472 4.922 75.502 4.922ZM75.554 15.556C77.634 15.556 79.09 13.944 79.09 11.578C79.09 9.238 77.634 7.626 75.554 7.626C73.448 7.626 71.992 9.238 71.992 11.578C71.992 13.944 73.448 15.556 75.554 15.556ZM90.515 4.896C94.519 4.896 97.405 7.704 97.405 11.578V18H93.999V16.206C93.141 17.454 91.555 18.234 89.605 18.234C86.225 18.234 83.625 15.504 83.625 11.734C83.625 7.704 86.485 4.896 90.515 4.896ZM90.541 15.296C92.569 15.296 93.999 13.736 93.999 11.578C93.999 9.394 92.569 7.834 90.541 7.834C88.539 7.834 87.109 9.394 87.109 11.578C87.109 13.736 88.539 15.296 90.541 15.296ZM103.573 18H100.167V10.356C100.167 7.054 102.507 5.156 106.615 5.156V7.99C104.691 7.99 103.573 8.848 103.573 10.668V18ZM120.54 5.156L115.158 11.266L120.54 18H116.536L111.752 11.838V18H108.372V-0.0440001H111.752V10.746L116.536 5.156H120.54Z" fill="#02B776"/>
</g>
</svg>
