<svg width="124" height="23" viewBox="0 0 124 23" fill="none" xmlns="http://www.w3.org/2000/svg">
<path fill-rule="evenodd" clip-rule="evenodd" d="M51.6646 14.3859C51.6646 11.2854 49.0945 8.77191 45.9241 8.77191C42.7537 8.77191 40.1836 11.2854 40.1836 14.3859C40.1836 17.4865 42.7537 20 45.9241 20C49.0945 20 51.6646 17.4865 51.6646 14.3859ZM43.4639 14.3859C43.4639 13.0571 44.5653 11.9799 45.9241 11.9799C47.2828 11.9799 48.3843 13.0571 48.3843 14.3859C48.3843 15.7147 47.2828 16.7919 45.9241 16.7919C44.5653 16.7919 43.4639 15.7147 43.4639 14.3859Z" fill="#252D3A"/>
<path d="M47.718 0V3.85965H51.6646V7.36842H47.718V11.2281H44.1302V7.36842H40.1836V3.85965L44.1302 3.8593V0H47.718Z" fill="#02B776"/>
<rect x="53.0996" y="3.85968" width="3.58781" height="16.1403" fill="#252D3A"/>
<rect x="59.1987" y="3.85968" width="3.58781" height="16.1403" fill="#252D3A"/>
<path d="M62.0693 10.1755V13.6842H53.8174V10.1755H62.0693Z" fill="#252D3A"/>
<path d="M34.084 20V3.85966H37.6718V20H34.084Z" fill="#252D3A"/>
<path d="M28.7021 13.6841V5.61397H32.29V13.6841H28.7021Z" fill="#252D3A"/>
<rect x="20.8091" y="10.1754" width="11.481" height="3.50877" fill="#252D3A"/>
<path d="M20.8091 18.2455V10.1754H24.3969V18.2455H20.8091Z" fill="#252D3A"/>
<rect x="20.8091" y="5.61401" width="7.89318" height="3.50877" fill="#02B776"/>
<rect x="24.397" y="14.7368" width="7.89318" height="3.50877" fill="#02B776"/>
<path d="M14.3511 20V3.85966H17.9389V20H14.3511Z" fill="#252D3A"/>
<path fill-rule="evenodd" clip-rule="evenodd" d="M12.1986 17.8947V5.96484H0V17.8947H12.1986ZM3.58767 9.47367H8.61061V14.3859H3.58767V9.47367Z" fill="#02B776"/>
<mask id="mask0_4377_8486" style="mask-type:alpha" maskUnits="userSpaceOnUse" x="66" y="0" width="56" height="23">
<rect x="66" width="56" height="23" fill="#D9D9D9"/>
</mask>
<g mask="url(#mask0_4377_8486)">
<path d="M73.502 4.922C77.506 4.922 80.366 7.704 80.366 11.734C80.366 15.53 77.792 18.26 74.386 18.26C72.436 18.26 70.85 17.48 69.992 16.206V23.2H66.612V11.578C66.612 7.704 69.472 4.922 73.502 4.922ZM73.554 15.556C75.634 15.556 77.09 13.944 77.09 11.578C77.09 9.238 75.634 7.626 73.554 7.626C71.448 7.626 69.992 9.238 69.992 11.578C69.992 13.944 71.448 15.556 73.554 15.556ZM88.515 4.896C92.519 4.896 95.405 7.704 95.405 11.578V18H91.999V16.206C91.141 17.454 89.555 18.234 87.605 18.234C84.225 18.234 81.625 15.504 81.625 11.734C81.625 7.704 84.485 4.896 88.515 4.896ZM88.541 15.296C90.569 15.296 91.999 13.736 91.999 11.578C91.999 9.394 90.569 7.834 88.541 7.834C86.539 7.834 85.109 9.394 85.109 11.578C85.109 13.736 86.539 15.296 88.541 15.296ZM101.573 18H98.1671V10.356C98.1671 7.054 100.507 5.156 104.615 5.156V7.99C102.691 7.99 101.573 8.848 101.573 10.668V18ZM118.54 5.156L113.158 11.266L118.54 18H114.536L109.752 11.838V18H106.372V-0.0440001H109.752V10.746L114.536 5.156H118.54Z" fill="#02B776"/>
</g>
</svg>
