<svg width="80" height="80" viewBox="0 0 80 80" fill="none" xmlns="http://www.w3.org/2000/svg">
<g id="img/profile-default" clip-path="url(#clip0_0_904)">
<circle id="Oval" cx="40" cy="40" r="40" fill="#252D3A" fill-opacity="0.1"/>
<g id="profile-default">
<g id="Shape" opacity="0.6" filter="url(#filter0_d_0_904)">
<path fill-rule="evenodd" clip-rule="evenodd" d="M53 49.5C53 42.5964 47.4036 37 40.5 37C33.5964 37 28 42.5964 28 49.5C28 56.4036 33.5964 62 40.5 62C47.4036 62 53 56.4036 53 49.5ZM35 49.5C35 46.4624 37.4624 44 40.5 44C43.5376 44 46 46.4624 46 49.5C46 52.5376 43.5376 55 40.5 55C37.4624 55 35 52.5376 35 49.5Z" fill="white"/>
</g>
<g id="Path" filter="url(#filter1_d_0_904)">
<path d="M44.1562 18V26.4628H52.619V34.1562H44.1562V42.619H36.4628V34.1562H28V26.4628L36.4628 26.462V18H44.1562Z" fill="white"/>
</g>
</g>
</g>
<defs>
<filter id="filter0_d_0_904" x="24" y="35" width="33" height="33" filterUnits="userSpaceOnUse" color-interpolation-filters="sRGB">
<feFlood flood-opacity="0" result="BackgroundImageFix"/>
<feColorMatrix in="SourceAlpha" type="matrix" values="0 0 0 0 0 0 0 0 0 0 0 0 0 0 0 0 0 0 127 0" result="hardAlpha"/>
<feOffset dy="2"/>
<feGaussianBlur stdDeviation="2"/>
<feColorMatrix type="matrix" values="0 0 0 0 0 0 0 0 0 0 0 0 0 0 0 0 0 0 0.05 0"/>
<feBlend mode="normal" in2="BackgroundImageFix" result="effect1_dropShadow_0_904"/>
<feBlend mode="normal" in="SourceGraphic" in2="effect1_dropShadow_0_904" result="shape"/>
</filter>
<filter id="filter1_d_0_904" x="24" y="16" width="32.6191" height="32.6191" filterUnits="userSpaceOnUse" color-interpolation-filters="sRGB">
<feFlood flood-opacity="0" result="BackgroundImageFix"/>
<feColorMatrix in="SourceAlpha" type="matrix" values="0 0 0 0 0 0 0 0 0 0 0 0 0 0 0 0 0 0 127 0" result="hardAlpha"/>
<feOffset dy="2"/>
<feGaussianBlur stdDeviation="2"/>
<feColorMatrix type="matrix" values="0 0 0 0 0 0 0 0 0 0 0 0 0 0 0 0 0 0 0.05 0"/>
<feBlend mode="normal" in2="BackgroundImageFix" result="effect1_dropShadow_0_904"/>
<feBlend mode="normal" in="SourceGraphic" in2="effect1_dropShadow_0_904" result="shape"/>
</filter>
<clipPath id="clip0_0_904">
<rect width="80" height="80" fill="white"/>
</clipPath>
</defs>
</svg>
