<?xml version="1.0" encoding="UTF-8"?>
<svg id="Layer_2" xmlns="http://www.w3.org/2000/svg" xmlns:xlink="http://www.w3.org/1999/xlink" version="1.1" viewBox="0 0 135.9 135.9">
  <!-- Generator: Adobe Illustrator 30.1.0, SVG Export Plug-In . SVG Version: 2.1.1 Build 136)  -->
  <defs>
    <style>
      .st0 {
        fill: none;
      }

      .st1 {
        fill: #010101;
      }

      .st2 {
        fill: #fff;
      }

      .st3 {
        fill: #02b776;
      }

      .st4 {
        clip-path: url(#clippath);
      }
    </style>
    <clipPath id="clippath">
      <rect class="st0" y="0" width="135.9" height="135.9"/>
    </clipPath>
  </defs>
  <g id="Layer_1-2">
    <g class="st4">
      <g>
        <path class="st2" d="M135.9,0v135.9H0V0h135.9ZM34.8,18.8c0-8.6-7-15.6-15.6-15.6S3.7,10.2,3.7,18.8s7,15.6,15.6,15.6,15.6-7,15.6-15.6ZM55.8,4.8c0-.9-.7-1.6-1.6-1.6s-1.6.7-1.6,1.6.7,1.6,1.6,1.6,1.6-.7,1.6-1.6ZM60.3,4.8c0-.9-.7-1.6-1.6-1.6s-1.6.7-1.6,1.6.7,1.6,1.6,1.6,1.6-.7,1.6-1.6ZM73.7,4.8c0-.9-.7-1.6-1.6-1.6s-1.6.7-1.6,1.6.7,1.6,1.6,1.6,1.6-.7,1.6-1.6ZM78.1,4.8c0-.9-.7-1.6-1.6-1.6s-1.6.7-1.6,1.6.7,1.6,1.6,1.6,1.6-.7,1.6-1.6ZM82.6,4.8c0-.9-.7-1.6-1.6-1.6s-1.6.7-1.6,1.6.7,1.6,1.6,1.6,1.6-.7,1.6-1.6ZM87,4.8c0-.9-.7-1.6-1.6-1.6s-1.6.7-1.6,1.6.7,1.6,1.6,1.6,1.6-.7,1.6-1.6ZM132.7,18.8c0-8.6-7-15.6-15.6-15.6s-15.6,7-15.6,15.6,7,15.6,15.6,15.6,15.6-7,15.6-15.6ZM42.5,9.3c0-.9-.7-1.6-1.6-1.6s-1.6.7-1.6,1.6.7,1.6,1.6,1.6,1.6-.7,1.6-1.6ZM47,9.3c0-.9-.7-1.6-1.6-1.6s-1.6.7-1.6,1.6.7,1.6,1.6,1.6,1.6-.7,1.6-1.6ZM64.8,9.3c0-.9-.7-1.6-1.6-1.6s-1.6.7-1.6,1.6.7,1.6,1.6,1.6,1.6-.7,1.6-1.6ZM69.2,9.3c0-.9-.7-1.6-1.6-1.6s-1.6.7-1.6,1.6.7,1.6,1.6,1.6,1.6-.7,1.6-1.6ZM78.1,9.3c0-.9-.7-1.6-1.6-1.6s-1.6.7-1.6,1.6.7,1.6,1.6,1.6,1.6-.7,1.6-1.6ZM82.6,9.3c0-.9-.7-1.6-1.6-1.6s-1.6.7-1.6,1.6.7,1.6,1.6,1.6,1.6-.7,1.6-1.6ZM91.4,9.3c0-.9-.7-1.6-1.6-1.6s-1.6.7-1.6,1.6.7,1.6,1.6,1.6,1.6-.7,1.6-1.6ZM42.5,13.7c0-.9-.7-1.6-1.6-1.6s-1.6.7-1.6,1.6.7,1.6,1.6,1.6,1.6-.7,1.6-1.6ZM47,13.7c0-.9-.7-1.6-1.6-1.6s-1.6.7-1.6,1.6.7,1.6,1.6,1.6,1.6-.7,1.6-1.6ZM60.3,13.7c0-.9-.7-1.6-1.6-1.6s-1.6.7-1.6,1.6.7,1.6,1.6,1.6,1.6-.7,1.6-1.6ZM64.8,13.7c0-.9-.7-1.6-1.6-1.6s-1.6.7-1.6,1.6.7,1.6,1.6,1.6,1.6-.7,1.6-1.6ZM73.7,13.7c0-.9-.7-1.6-1.6-1.6s-1.6.7-1.6,1.6.7,1.6,1.6,1.6,1.6-.7,1.6-1.6ZM87,13.7c0-.9-.7-1.6-1.6-1.6s-1.6.7-1.6,1.6.7,1.6,1.6,1.6,1.6-.7,1.6-1.6ZM91.4,13.7c0-.9-.7-1.6-1.6-1.6s-1.6.7-1.6,1.6.7,1.6,1.6,1.6,1.6-.7,1.6-1.6ZM42.5,18.2c0-.9-.7-1.6-1.6-1.6s-1.6.7-1.6,1.6.7,1.6,1.6,1.6,1.6-.7,1.6-1.6ZM51.4,18.2c0-.9-.7-1.6-1.6-1.6s-1.6.7-1.6,1.6.7,1.6,1.6,1.6,1.6-.7,1.6-1.6ZM55.8,18.2c0-.9-.7-1.6-1.6-1.6s-1.6.7-1.6,1.6.7,1.6,1.6,1.6,1.6-.7,1.6-1.6ZM60.3,18.2c0-.9-.7-1.6-1.6-1.6s-1.6.7-1.6,1.6.7,1.6,1.6,1.6,1.6-.7,1.6-1.6ZM78.1,18.2c0-.9-.7-1.6-1.6-1.6s-1.6.7-1.6,1.6.7,1.6,1.6,1.6,1.6-.7,1.6-1.6ZM82.6,18.2c0-.9-.7-1.6-1.6-1.6s-1.6.7-1.6,1.6.7,1.6,1.6,1.6,1.6-.7,1.6-1.6ZM87,18.2c0-.9-.7-1.6-1.6-1.6s-1.6.7-1.6,1.6.7,1.6,1.6,1.6,1.6-.7,1.6-1.6ZM95.9,18.2c0-.9-.7-1.6-1.6-1.6s-1.6.7-1.6,1.6.7,1.6,1.6,1.6,1.6-.7,1.6-1.6ZM47,22.6c0-.9-.7-1.6-1.6-1.6s-1.6.7-1.6,1.6.7,1.6,1.6,1.6,1.6-.7,1.6-1.6ZM51.4,22.6c0-.9-.7-1.6-1.6-1.6s-1.6.7-1.6,1.6.7,1.6,1.6,1.6,1.6-.7,1.6-1.6ZM73.7,22.6c0-.9-.7-1.6-1.6-1.6s-1.6.7-1.6,1.6.7,1.6,1.6,1.6,1.6-.7,1.6-1.6ZM78.1,22.6c0-.9-.7-1.6-1.6-1.6s-1.6.7-1.6,1.6.7,1.6,1.6,1.6,1.6-.7,1.6-1.6ZM91.4,22.6c0-.9-.7-1.6-1.6-1.6s-1.6.7-1.6,1.6.7,1.6,1.6,1.6,1.6-.7,1.6-1.6ZM55.8,27.1c0-.9-.7-1.6-1.6-1.6s-1.6.7-1.6,1.6.7,1.6,1.6,1.6,1.6-.7,1.6-1.6ZM73.7,27.1c0-.9-.7-1.6-1.6-1.6s-1.6.7-1.6,1.6.7,1.6,1.6,1.6,1.6-.7,1.6-1.6ZM82.6,27.1c0-.9-.7-1.6-1.6-1.6s-1.6.7-1.6,1.6.7,1.6,1.6,1.6,1.6-.7,1.6-1.6ZM95.9,27.1c0-.9-.7-1.6-1.6-1.6s-1.6.7-1.6,1.6.7,1.6,1.6,1.6,1.6-.7,1.6-1.6ZM42.5,31.5c0-.9-.7-1.6-1.6-1.6s-1.6.7-1.6,1.6.7,1.6,1.6,1.6,1.6-.7,1.6-1.6ZM51.4,31.5c0-.9-.7-1.6-1.6-1.6s-1.6.7-1.6,1.6.7,1.6,1.6,1.6,1.6-.7,1.6-1.6ZM60.3,31.5c0-.9-.7-1.6-1.6-1.6s-1.6.7-1.6,1.6.7,1.6,1.6,1.6,1.6-.7,1.6-1.6ZM69.2,31.5c0-.9-.7-1.6-1.6-1.6s-1.6.7-1.6,1.6.7,1.6,1.6,1.6,1.6-.7,1.6-1.6ZM78.1,31.5c0-.9-.7-1.6-1.6-1.6s-1.6.7-1.6,1.6.7,1.6,1.6,1.6,1.6-.7,1.6-1.6ZM87,31.5c0-.9-.7-1.6-1.6-1.6s-1.6.7-1.6,1.6.7,1.6,1.6,1.6,1.6-.7,1.6-1.6ZM95.9,31.5c0-.9-.7-1.6-1.6-1.6s-1.6.7-1.6,1.6.7,1.6,1.6,1.6,1.6-.7,1.6-1.6ZM42.5,36c0-.9-.7-1.6-1.6-1.6s-1.6.7-1.6,1.6.7,1.6,1.6,1.6,1.6-.7,1.6-1.6ZM55.8,36c0-.9-.7-1.6-1.6-1.6s-1.6.7-1.6,1.6.7,1.6,1.6,1.6,1.6-.7,1.6-1.6ZM60.3,36c0-.9-.7-1.6-1.6-1.6s-1.6.7-1.6,1.6.7,1.6,1.6,1.6,1.6-.7,1.6-1.6ZM69.2,36c0-.9-.7-1.6-1.6-1.6s-1.6.7-1.6,1.6.7,1.6,1.6,1.6,1.6-.7,1.6-1.6ZM73.7,36c0-.9-.7-1.6-1.6-1.6s-1.6.7-1.6,1.6.7,1.6,1.6,1.6,1.6-.7,1.6-1.6ZM78.1,36c0-.9-.7-1.6-1.6-1.6s-1.6.7-1.6,1.6.7,1.6,1.6,1.6,1.6-.7,1.6-1.6ZM82.6,36c0-.9-.7-1.6-1.6-1.6s-1.6.7-1.6,1.6.7,1.6,1.6,1.6,1.6-.7,1.6-1.6ZM87,36c0-.9-.7-1.6-1.6-1.6s-1.6.7-1.6,1.6.7,1.6,1.6,1.6,1.6-.7,1.6-1.6ZM91.4,36c0-.9-.7-1.6-1.6-1.6s-1.6.7-1.6,1.6.7,1.6,1.6,1.6,1.6-.7,1.6-1.6ZM95.9,36c0-.9-.7-1.6-1.6-1.6s-1.6.7-1.6,1.6.7,1.6,1.6,1.6,1.6-.7,1.6-1.6ZM6.9,40.5c0-.9-.7-1.6-1.6-1.6s-1.6.7-1.6,1.6.7,1.6,1.6,1.6,1.6-.7,1.6-1.6ZM33.6,40.5c0-.9-.7-1.6-1.6-1.6s-1.6.7-1.6,1.6.7,1.6,1.6,1.6,1.6-.7,1.6-1.6ZM42.5,40.5c0-.9-.7-1.6-1.6-1.6s-1.6.7-1.6,1.6.7,1.6,1.6,1.6,1.6-.7,1.6-1.6ZM51.4,40.5c0-.9-.7-1.6-1.6-1.6s-1.6.7-1.6,1.6.7,1.6,1.6,1.6,1.6-.7,1.6-1.6ZM55.8,40.5c0-.9-.7-1.6-1.6-1.6s-1.6.7-1.6,1.6.7,1.6,1.6,1.6,1.6-.7,1.6-1.6ZM60.3,40.5c0-.9-.7-1.6-1.6-1.6s-1.6.7-1.6,1.6.7,1.6,1.6,1.6,1.6-.7,1.6-1.6ZM78.1,40.5c0-.9-.7-1.6-1.6-1.6s-1.6.7-1.6,1.6.7,1.6,1.6,1.6,1.6-.7,1.6-1.6ZM82.6,40.5c0-.9-.7-1.6-1.6-1.6s-1.6.7-1.6,1.6.7,1.6,1.6,1.6,1.6-.7,1.6-1.6ZM95.9,40.5c0-.9-.7-1.6-1.6-1.6s-1.6.7-1.6,1.6.7,1.6,1.6,1.6,1.6-.7,1.6-1.6ZM100.3,40.5c0-.9-.7-1.6-1.6-1.6s-1.6.7-1.6,1.6.7,1.6,1.6,1.6,1.6-.7,1.6-1.6ZM104.8,40.5c0-.9-.7-1.6-1.6-1.6s-1.6.7-1.6,1.6.7,1.6,1.6,1.6,1.6-.7,1.6-1.6ZM118.2,40.5c0-.9-.7-1.6-1.6-1.6s-1.6.7-1.6,1.6.7,1.6,1.6,1.6,1.6-.7,1.6-1.6ZM122.6,40.5c0-.9-.7-1.6-1.6-1.6s-1.6.7-1.6,1.6.7,1.6,1.6,1.6,1.6-.7,1.6-1.6ZM127.1,40.5c0-.9-.7-1.6-1.6-1.6s-1.6.7-1.6,1.6.7,1.6,1.6,1.6,1.6-.7,1.6-1.6ZM11.4,44.9c0-.9-.7-1.6-1.6-1.6s-1.6.7-1.6,1.6.7,1.6,1.6,1.6,1.6-.7,1.6-1.6ZM15.8,44.9c0-.9-.7-1.6-1.6-1.6s-1.6.7-1.6,1.6.7,1.6,1.6,1.6,1.6-.7,1.6-1.6ZM20.2,44.9c0-.9-.7-1.6-1.6-1.6s-1.6.7-1.6,1.6.7,1.6,1.6,1.6,1.6-.7,1.6-1.6ZM29.1,44.9c0-.9-.7-1.6-1.6-1.6s-1.6.7-1.6,1.6.7,1.6,1.6,1.6,1.6-.7,1.6-1.6ZM38,44.9c0-.9-.7-1.6-1.6-1.6s-1.6.7-1.6,1.6.7,1.6,1.6,1.6,1.6-.7,1.6-1.6ZM42.5,44.9c0-.9-.7-1.6-1.6-1.6s-1.6.7-1.6,1.6.7,1.6,1.6,1.6,1.6-.7,1.6-1.6ZM47,44.9c0-.9-.7-1.6-1.6-1.6s-1.6.7-1.6,1.6.7,1.6,1.6,1.6,1.6-.7,1.6-1.6ZM60.3,44.9c0-.9-.7-1.6-1.6-1.6s-1.6.7-1.6,1.6.7,1.6,1.6,1.6,1.6-.7,1.6-1.6ZM64.8,44.9c0-.9-.7-1.6-1.6-1.6s-1.6.7-1.6,1.6.7,1.6,1.6,1.6,1.6-.7,1.6-1.6ZM78.1,44.9c0-.9-.7-1.6-1.6-1.6s-1.6.7-1.6,1.6.7,1.6,1.6,1.6,1.6-.7,1.6-1.6ZM100.3,44.9c0-.9-.7-1.6-1.6-1.6s-1.6.7-1.6,1.6.7,1.6,1.6,1.6,1.6-.7,1.6-1.6ZM113.7,44.9c0-.9-.7-1.6-1.6-1.6s-1.6.7-1.6,1.6.7,1.6,1.6,1.6,1.6-.7,1.6-1.6ZM118.2,44.9c0-.9-.7-1.6-1.6-1.6s-1.6.7-1.6,1.6.7,1.6,1.6,1.6,1.6-.7,1.6-1.6ZM122.6,44.9c0-.9-.7-1.6-1.6-1.6s-1.6.7-1.6,1.6.7,1.6,1.6,1.6,1.6-.7,1.6-1.6ZM131.5,44.9c0-.9-.7-1.6-1.6-1.6s-1.6.7-1.6,1.6.7,1.6,1.6,1.6,1.6-.7,1.6-1.6ZM6.9,49.4c0-.9-.7-1.6-1.6-1.6s-1.6.7-1.6,1.6.7,1.6,1.6,1.6,1.6-.7,1.6-1.6ZM15.8,49.4c0-.9-.7-1.6-1.6-1.6s-1.6.7-1.6,1.6.7,1.6,1.6,1.6,1.6-.7,1.6-1.6ZM20.2,49.4c0-.9-.7-1.6-1.6-1.6s-1.6.7-1.6,1.6.7,1.6,1.6,1.6,1.6-.7,1.6-1.6ZM24.7,49.4c0-.9-.7-1.6-1.6-1.6s-1.6.7-1.6,1.6.7,1.6,1.6,1.6,1.6-.7,1.6-1.6ZM33.6,49.4c0-.9-.7-1.6-1.6-1.6s-1.6.7-1.6,1.6.7,1.6,1.6,1.6,1.6-.7,1.6-1.6ZM38,49.4c0-.9-.7-1.6-1.6-1.6s-1.6.7-1.6,1.6.7,1.6,1.6,1.6,1.6-.7,1.6-1.6ZM47,49.4c0-.9-.7-1.6-1.6-1.6s-1.6.7-1.6,1.6.7,1.6,1.6,1.6,1.6-.7,1.6-1.6ZM60.3,49.4c0-.9-.7-1.6-1.6-1.6s-1.6.7-1.6,1.6.7,1.6,1.6,1.6,1.6-.7,1.6-1.6ZM64.8,49.4c0-.9-.7-1.6-1.6-1.6s-1.6.7-1.6,1.6.7,1.6,1.6,1.6,1.6-.7,1.6-1.6ZM69.2,49.4c0-.9-.7-1.6-1.6-1.6s-1.6.7-1.6,1.6.7,1.6,1.6,1.6,1.6-.7,1.6-1.6ZM73.7,49.4c0-.9-.7-1.6-1.6-1.6s-1.6.7-1.6,1.6.7,1.6,1.6,1.6,1.6-.7,1.6-1.6ZM78.1,49.4c0-.9-.7-1.6-1.6-1.6s-1.6.7-1.6,1.6.7,1.6,1.6,1.6,1.6-.7,1.6-1.6ZM82.6,49.4c0-.9-.7-1.6-1.6-1.6s-1.6.7-1.6,1.6.7,1.6,1.6,1.6,1.6-.7,1.6-1.6ZM109.2,49.4c0-.9-.7-1.6-1.6-1.6s-1.6.7-1.6,1.6.7,1.6,1.6,1.6,1.6-.7,1.6-1.6ZM118.2,49.4c0-.9-.7-1.6-1.6-1.6s-1.6.7-1.6,1.6.7,1.6,1.6,1.6,1.6-.7,1.6-1.6ZM122.6,49.4c0-.9-.7-1.6-1.6-1.6s-1.6.7-1.6,1.6.7,1.6,1.6,1.6,1.6-.7,1.6-1.6ZM20.2,53.8c0-.9-.7-1.6-1.6-1.6s-1.6.7-1.6,1.6.7,1.6,1.6,1.6,1.6-.7,1.6-1.6ZM29.1,53.8c0-.9-.7-1.6-1.6-1.6s-1.6.7-1.6,1.6.7,1.6,1.6,1.6,1.6-.7,1.6-1.6ZM47,53.8c0-.9-.7-1.6-1.6-1.6s-1.6.7-1.6,1.6.7,1.6,1.6,1.6,1.6-.7,1.6-1.6ZM51.4,53.8c0-.9-.7-1.6-1.6-1.6s-1.6.7-1.6,1.6.7,1.6,1.6,1.6,1.6-.7,1.6-1.6ZM55.8,53.8c0-.9-.7-1.6-1.6-1.6s-1.6.7-1.6,1.6.7,1.6,1.6,1.6,1.6-.7,1.6-1.6ZM60.3,53.8c0-.9-.7-1.6-1.6-1.6s-1.6.7-1.6,1.6.7,1.6,1.6,1.6,1.6-.7,1.6-1.6ZM64.8,53.8c0-.9-.7-1.6-1.6-1.6s-1.6.7-1.6,1.6.7,1.6,1.6,1.6,1.6-.7,1.6-1.6ZM82.6,53.8c0-.9-.7-1.6-1.6-1.6s-1.6.7-1.6,1.6.7,1.6,1.6,1.6,1.6-.7,1.6-1.6ZM87,53.8c0-.9-.7-1.6-1.6-1.6s-1.6.7-1.6,1.6.7,1.6,1.6,1.6,1.6-.7,1.6-1.6ZM91.4,53.8c0-.9-.7-1.6-1.6-1.6s-1.6.7-1.6,1.6.7,1.6,1.6,1.6,1.6-.7,1.6-1.6ZM95.9,53.8c0-.9-.7-1.6-1.6-1.6s-1.6.7-1.6,1.6.7,1.6,1.6,1.6,1.6-.7,1.6-1.6ZM104.8,53.8c0-.9-.7-1.6-1.6-1.6s-1.6.7-1.6,1.6.7,1.6,1.6,1.6,1.6-.7,1.6-1.6ZM109.2,53.8c0-.9-.7-1.6-1.6-1.6s-1.6.7-1.6,1.6.7,1.6,1.6,1.6,1.6-.7,1.6-1.6ZM113.7,53.8c0-.9-.7-1.6-1.6-1.6s-1.6.7-1.6,1.6.7,1.6,1.6,1.6,1.6-.7,1.6-1.6ZM118.2,53.8c0-.9-.7-1.6-1.6-1.6s-1.6.7-1.6,1.6.7,1.6,1.6,1.6,1.6-.7,1.6-1.6ZM127.1,53.8c0-.9-.7-1.6-1.6-1.6s-1.6.7-1.6,1.6.7,1.6,1.6,1.6,1.6-.7,1.6-1.6ZM131.5,53.8c0-.9-.7-1.6-1.6-1.6s-1.6.7-1.6,1.6.7,1.6,1.6,1.6,1.6-.7,1.6-1.6ZM11.4,58.3c0-.9-.7-1.6-1.6-1.6s-1.6.7-1.6,1.6.7,1.6,1.6,1.6,1.6-.7,1.6-1.6ZM20.2,58.3c0-.9-.7-1.6-1.6-1.6s-1.6.7-1.6,1.6.7,1.6,1.6,1.6,1.6-.7,1.6-1.6ZM24.7,58.3c0-.9-.7-1.6-1.6-1.6s-1.6.7-1.6,1.6.7,1.6,1.6,1.6,1.6-.7,1.6-1.6ZM33.6,58.3c0-.9-.7-1.6-1.6-1.6s-1.6.7-1.6,1.6.7,1.6,1.6,1.6,1.6-.7,1.6-1.6ZM47,58.3c0-.9-.7-1.6-1.6-1.6s-1.6.7-1.6,1.6.7,1.6,1.6,1.6,1.6-.7,1.6-1.6ZM55.8,58.3c0-.9-.7-1.6-1.6-1.6s-1.6.7-1.6,1.6.7,1.6,1.6,1.6,1.6-.7,1.6-1.6ZM82.6,58.3c0-.9-.7-1.6-1.6-1.6s-1.6.7-1.6,1.6.7,1.6,1.6,1.6,1.6-.7,1.6-1.6ZM91.4,58.3c0-.9-.7-1.6-1.6-1.6s-1.6.7-1.6,1.6.7,1.6,1.6,1.6,1.6-.7,1.6-1.6ZM95.9,58.3c0-.9-.7-1.6-1.6-1.6s-1.6.7-1.6,1.6.7,1.6,1.6,1.6,1.6-.7,1.6-1.6ZM100.3,58.3c0-.9-.7-1.6-1.6-1.6s-1.6.7-1.6,1.6.7,1.6,1.6,1.6,1.6-.7,1.6-1.6ZM109.2,58.3c0-.9-.7-1.6-1.6-1.6s-1.6.7-1.6,1.6.7,1.6,1.6,1.6,1.6-.7,1.6-1.6ZM118.2,58.3c0-.9-.7-1.6-1.6-1.6s-1.6.7-1.6,1.6.7,1.6,1.6,1.6,1.6-.7,1.6-1.6ZM122.6,58.3c0-.9-.7-1.6-1.6-1.6s-1.6.7-1.6,1.6.7,1.6,1.6,1.6,1.6-.7,1.6-1.6ZM131.5,58.3c0-.9-.7-1.6-1.6-1.6s-1.6.7-1.6,1.6.7,1.6,1.6,1.6,1.6-.7,1.6-1.6ZM11.4,62.7c0-.9-.7-1.6-1.6-1.6s-1.6.7-1.6,1.6.7,1.6,1.6,1.6,1.6-.7,1.6-1.6ZM24.7,62.7c0-.9-.7-1.6-1.6-1.6s-1.6.7-1.6,1.6.7,1.6,1.6,1.6,1.6-.7,1.6-1.6ZM29.1,62.7c0-.9-.7-1.6-1.6-1.6s-1.6.7-1.6,1.6.7,1.6,1.6,1.6,1.6-.7,1.6-1.6ZM38,62.7c0-.9-.7-1.6-1.6-1.6s-1.6.7-1.6,1.6.7,1.6,1.6,1.6,1.6-.7,1.6-1.6ZM42.5,62.7c0-.9-.7-1.6-1.6-1.6s-1.6.7-1.6,1.6.7,1.6,1.6,1.6,1.6-.7,1.6-1.6ZM51.4,62.7c0-.9-.7-1.6-1.6-1.6s-1.6.7-1.6,1.6.7,1.6,1.6,1.6,1.6-.7,1.6-1.6ZM91.4,62.7c0-.9-.7-1.6-1.6-1.6s-1.6.7-1.6,1.6.7,1.6,1.6,1.6,1.6-.7,1.6-1.6ZM95.9,62.7c0-.9-.7-1.6-1.6-1.6s-1.6.7-1.6,1.6.7,1.6,1.6,1.6,1.6-.7,1.6-1.6ZM100.3,62.7c0-.9-.7-1.6-1.6-1.6s-1.6.7-1.6,1.6.7,1.6,1.6,1.6,1.6-.7,1.6-1.6ZM109.2,62.7c0-.9-.7-1.6-1.6-1.6s-1.6.7-1.6,1.6.7,1.6,1.6,1.6,1.6-.7,1.6-1.6ZM118.2,62.7c0-.9-.7-1.6-1.6-1.6s-1.6.7-1.6,1.6.7,1.6,1.6,1.6,1.6-.7,1.6-1.6ZM20.2,67.2c0-.9-.7-1.6-1.6-1.6s-1.6.7-1.6,1.6.7,1.6,1.6,1.6,1.6-.7,1.6-1.6ZM29.1,67.2c0-.9-.7-1.6-1.6-1.6s-1.6.7-1.6,1.6.7,1.6,1.6,1.6,1.6-.7,1.6-1.6ZM33.6,67.2c0-.9-.7-1.6-1.6-1.6s-1.6.7-1.6,1.6.7,1.6,1.6,1.6,1.6-.7,1.6-1.6ZM42.5,67.2c0-.9-.7-1.6-1.6-1.6s-1.6.7-1.6,1.6.7,1.6,1.6,1.6,1.6-.7,1.6-1.6ZM47,67.2c0-.9-.7-1.6-1.6-1.6s-1.6.7-1.6,1.6.7,1.6,1.6,1.6,1.6-.7,1.6-1.6ZM51.4,67.2c0-.9-.7-1.6-1.6-1.6s-1.6.7-1.6,1.6.7,1.6,1.6,1.6,1.6-.7,1.6-1.6ZM55.8,67.2c0-.9-.7-1.6-1.6-1.6s-1.6.7-1.6,1.6.7,1.6,1.6,1.6,1.6-.7,1.6-1.6ZM82.6,67.2c0-.9-.7-1.6-1.6-1.6s-1.6.7-1.6,1.6.7,1.6,1.6,1.6,1.6-.7,1.6-1.6ZM87,67.2c0-.9-.7-1.6-1.6-1.6s-1.6.7-1.6,1.6.7,1.6,1.6,1.6,1.6-.7,1.6-1.6ZM95.9,67.2c0-.9-.7-1.6-1.6-1.6s-1.6.7-1.6,1.6.7,1.6,1.6,1.6,1.6-.7,1.6-1.6ZM118.2,67.2c0-.9-.7-1.6-1.6-1.6s-1.6.7-1.6,1.6.7,1.6,1.6,1.6,1.6-.7,1.6-1.6ZM122.6,67.2c0-.9-.7-1.6-1.6-1.6s-1.6.7-1.6,1.6.7,1.6,1.6,1.6,1.6-.7,1.6-1.6ZM127.1,67.2c0-.9-.7-1.6-1.6-1.6s-1.6.7-1.6,1.6.7,1.6,1.6,1.6,1.6-.7,1.6-1.6ZM131.5,67.2c0-.9-.7-1.6-1.6-1.6s-1.6.7-1.6,1.6.7,1.6,1.6,1.6,1.6-.7,1.6-1.6ZM11.4,71.6c0-.9-.7-1.6-1.6-1.6s-1.6.7-1.6,1.6.7,1.6,1.6,1.6,1.6-.7,1.6-1.6ZM20.2,71.6c0-.9-.7-1.6-1.6-1.6s-1.6.7-1.6,1.6.7,1.6,1.6,1.6,1.6-.7,1.6-1.6ZM24.7,71.6c0-.9-.7-1.6-1.6-1.6s-1.6.7-1.6,1.6.7,1.6,1.6,1.6,1.6-.7,1.6-1.6ZM38,71.6c0-.9-.7-1.6-1.6-1.6s-1.6.7-1.6,1.6.7,1.6,1.6,1.6,1.6-.7,1.6-1.6ZM55.8,71.6c0-.9-.7-1.6-1.6-1.6s-1.6.7-1.6,1.6.7,1.6,1.6,1.6,1.6-.7,1.6-1.6ZM82.6,71.6c0-.9-.7-1.6-1.6-1.6s-1.6.7-1.6,1.6.7,1.6,1.6,1.6,1.6-.7,1.6-1.6ZM87,71.6c0-.9-.7-1.6-1.6-1.6s-1.6.7-1.6,1.6.7,1.6,1.6,1.6,1.6-.7,1.6-1.6ZM91.4,71.6c0-.9-.7-1.6-1.6-1.6s-1.6.7-1.6,1.6.7,1.6,1.6,1.6,1.6-.7,1.6-1.6ZM100.3,71.6c0-.9-.7-1.6-1.6-1.6s-1.6.7-1.6,1.6.7,1.6,1.6,1.6,1.6-.7,1.6-1.6ZM113.7,71.6c0-.9-.7-1.6-1.6-1.6s-1.6.7-1.6,1.6.7,1.6,1.6,1.6,1.6-.7,1.6-1.6ZM122.6,71.6c0-.9-.7-1.6-1.6-1.6s-1.6.7-1.6,1.6.7,1.6,1.6,1.6,1.6-.7,1.6-1.6ZM6.9,76.1c0-.9-.7-1.6-1.6-1.6s-1.6.7-1.6,1.6.7,1.6,1.6,1.6,1.6-.7,1.6-1.6ZM24.7,76.1c0-.9-.7-1.6-1.6-1.6s-1.6.7-1.6,1.6.7,1.6,1.6,1.6,1.6-.7,1.6-1.6ZM29.1,76.1c0-.9-.7-1.6-1.6-1.6s-1.6.7-1.6,1.6.7,1.6,1.6,1.6,1.6-.7,1.6-1.6ZM33.6,76.1c0-.9-.7-1.6-1.6-1.6s-1.6.7-1.6,1.6.7,1.6,1.6,1.6,1.6-.7,1.6-1.6ZM51.4,76.1c0-.9-.7-1.6-1.6-1.6s-1.6.7-1.6,1.6.7,1.6,1.6,1.6,1.6-.7,1.6-1.6ZM55.8,76.1c0-.9-.7-1.6-1.6-1.6s-1.6.7-1.6,1.6.7,1.6,1.6,1.6,1.6-.7,1.6-1.6ZM82.6,76.1c0-.9-.7-1.6-1.6-1.6s-1.6.7-1.6,1.6.7,1.6,1.6,1.6,1.6-.7,1.6-1.6ZM95.9,76.1c0-.9-.7-1.6-1.6-1.6s-1.6.7-1.6,1.6.7,1.6,1.6,1.6,1.6-.7,1.6-1.6ZM109.2,76.1c0-.9-.7-1.6-1.6-1.6s-1.6.7-1.6,1.6.7,1.6,1.6,1.6,1.6-.7,1.6-1.6ZM113.7,76.1c0-.9-.7-1.6-1.6-1.6s-1.6.7-1.6,1.6.7,1.6,1.6,1.6,1.6-.7,1.6-1.6ZM6.9,80.5c0-.9-.7-1.6-1.6-1.6s-1.6.7-1.6,1.6.7,1.6,1.6,1.6,1.6-.7,1.6-1.6ZM11.4,80.5c0-.9-.7-1.6-1.6-1.6s-1.6.7-1.6,1.6.7,1.6,1.6,1.6,1.6-.7,1.6-1.6ZM20.2,80.5c0-.9-.7-1.6-1.6-1.6s-1.6.7-1.6,1.6.7,1.6,1.6,1.6,1.6-.7,1.6-1.6ZM24.7,80.5c0-.9-.7-1.6-1.6-1.6s-1.6.7-1.6,1.6.7,1.6,1.6,1.6,1.6-.7,1.6-1.6ZM29.1,80.5c0-.9-.7-1.6-1.6-1.6s-1.6.7-1.6,1.6.7,1.6,1.6,1.6,1.6-.7,1.6-1.6ZM42.5,80.5c0-.9-.7-1.6-1.6-1.6s-1.6.7-1.6,1.6.7,1.6,1.6,1.6,1.6-.7,1.6-1.6ZM47,80.5c0-.9-.7-1.6-1.6-1.6s-1.6.7-1.6,1.6.7,1.6,1.6,1.6,1.6-.7,1.6-1.6ZM60.3,80.5c0-.9-.7-1.6-1.6-1.6s-1.6.7-1.6,1.6.7,1.6,1.6,1.6,1.6-.7,1.6-1.6ZM64.8,80.5c0-.9-.7-1.6-1.6-1.6s-1.6.7-1.6,1.6.7,1.6,1.6,1.6,1.6-.7,1.6-1.6ZM69.2,80.5c0-.9-.7-1.6-1.6-1.6s-1.6.7-1.6,1.6.7,1.6,1.6,1.6,1.6-.7,1.6-1.6ZM109.2,80.5c0-.9-.7-1.6-1.6-1.6s-1.6.7-1.6,1.6.7,1.6,1.6,1.6,1.6-.7,1.6-1.6ZM118.2,80.5c0-.9-.7-1.6-1.6-1.6s-1.6.7-1.6,1.6.7,1.6,1.6,1.6,1.6-.7,1.6-1.6ZM131.5,80.5c0-.9-.7-1.6-1.6-1.6s-1.6.7-1.6,1.6.7,1.6,1.6,1.6,1.6-.7,1.6-1.6ZM6.9,85c0-.9-.7-1.6-1.6-1.6s-1.6.7-1.6,1.6.7,1.6,1.6,1.6,1.6-.7,1.6-1.6ZM11.4,85c0-.9-.7-1.6-1.6-1.6s-1.6.7-1.6,1.6.7,1.6,1.6,1.6,1.6-.7,1.6-1.6ZM15.8,85c0-.9-.7-1.6-1.6-1.6s-1.6.7-1.6,1.6.7,1.6,1.6,1.6,1.6-.7,1.6-1.6ZM24.7,85c0-.9-.7-1.6-1.6-1.6s-1.6.7-1.6,1.6.7,1.6,1.6,1.6,1.6-.7,1.6-1.6ZM33.6,85c0-.9-.7-1.6-1.6-1.6s-1.6.7-1.6,1.6.7,1.6,1.6,1.6,1.6-.7,1.6-1.6ZM42.5,85c0-.9-.7-1.6-1.6-1.6s-1.6.7-1.6,1.6.7,1.6,1.6,1.6,1.6-.7,1.6-1.6ZM47,85c0-.9-.7-1.6-1.6-1.6s-1.6.7-1.6,1.6.7,1.6,1.6,1.6,1.6-.7,1.6-1.6ZM73.7,85c0-.9-.7-1.6-1.6-1.6s-1.6.7-1.6,1.6.7,1.6,1.6,1.6,1.6-.7,1.6-1.6ZM78.1,85c0-.9-.7-1.6-1.6-1.6s-1.6.7-1.6,1.6.7,1.6,1.6,1.6,1.6-.7,1.6-1.6ZM87,85c0-.9-.7-1.6-1.6-1.6s-1.6.7-1.6,1.6.7,1.6,1.6,1.6,1.6-.7,1.6-1.6ZM91.4,85c0-.9-.7-1.6-1.6-1.6s-1.6.7-1.6,1.6.7,1.6,1.6,1.6,1.6-.7,1.6-1.6ZM95.9,85c0-.9-.7-1.6-1.6-1.6s-1.6.7-1.6,1.6.7,1.6,1.6,1.6,1.6-.7,1.6-1.6ZM104.8,85c0-.9-.7-1.6-1.6-1.6s-1.6.7-1.6,1.6.7,1.6,1.6,1.6,1.6-.7,1.6-1.6ZM109.2,85c0-.9-.7-1.6-1.6-1.6s-1.6.7-1.6,1.6.7,1.6,1.6,1.6,1.6-.7,1.6-1.6ZM6.9,89.4c0-.9-.7-1.6-1.6-1.6s-1.6.7-1.6,1.6.7,1.6,1.6,1.6,1.6-.7,1.6-1.6ZM20.2,89.4c0-.9-.7-1.6-1.6-1.6s-1.6.7-1.6,1.6.7,1.6,1.6,1.6,1.6-.7,1.6-1.6ZM24.7,89.4c0-.9-.7-1.6-1.6-1.6s-1.6.7-1.6,1.6.7,1.6,1.6,1.6,1.6-.7,1.6-1.6ZM38,89.4c0-.9-.7-1.6-1.6-1.6s-1.6.7-1.6,1.6.7,1.6,1.6,1.6,1.6-.7,1.6-1.6ZM51.4,89.4c0-.9-.7-1.6-1.6-1.6s-1.6.7-1.6,1.6.7,1.6,1.6,1.6,1.6-.7,1.6-1.6ZM60.3,89.4c0-.9-.7-1.6-1.6-1.6s-1.6.7-1.6,1.6.7,1.6,1.6,1.6,1.6-.7,1.6-1.6ZM64.8,89.4c0-.9-.7-1.6-1.6-1.6s-1.6.7-1.6,1.6.7,1.6,1.6,1.6,1.6-.7,1.6-1.6ZM91.4,89.4c0-.9-.7-1.6-1.6-1.6s-1.6.7-1.6,1.6.7,1.6,1.6,1.6,1.6-.7,1.6-1.6ZM95.9,89.4c0-.9-.7-1.6-1.6-1.6s-1.6.7-1.6,1.6.7,1.6,1.6,1.6,1.6-.7,1.6-1.6ZM104.8,89.4c0-.9-.7-1.6-1.6-1.6s-1.6.7-1.6,1.6.7,1.6,1.6,1.6,1.6-.7,1.6-1.6ZM109.2,89.4c0-.9-.7-1.6-1.6-1.6s-1.6.7-1.6,1.6.7,1.6,1.6,1.6,1.6-.7,1.6-1.6ZM113.7,89.4c0-.9-.7-1.6-1.6-1.6s-1.6.7-1.6,1.6.7,1.6,1.6,1.6,1.6-.7,1.6-1.6ZM127.1,89.4c0-.9-.7-1.6-1.6-1.6s-1.6.7-1.6,1.6.7,1.6,1.6,1.6,1.6-.7,1.6-1.6ZM6.9,93.9c0-.9-.7-1.6-1.6-1.6s-1.6.7-1.6,1.6.7,1.6,1.6,1.6,1.6-.7,1.6-1.6ZM15.8,93.9c0-.9-.7-1.6-1.6-1.6s-1.6.7-1.6,1.6.7,1.6,1.6,1.6,1.6-.7,1.6-1.6ZM33.6,93.9c0-.9-.7-1.6-1.6-1.6s-1.6.7-1.6,1.6.7,1.6,1.6,1.6,1.6-.7,1.6-1.6ZM38,93.9c0-.9-.7-1.6-1.6-1.6s-1.6.7-1.6,1.6.7,1.6,1.6,1.6,1.6-.7,1.6-1.6ZM42.5,93.9c0-.9-.7-1.6-1.6-1.6s-1.6.7-1.6,1.6.7,1.6,1.6,1.6,1.6-.7,1.6-1.6ZM51.4,93.9c0-.9-.7-1.6-1.6-1.6s-1.6.7-1.6,1.6.7,1.6,1.6,1.6,1.6-.7,1.6-1.6ZM69.2,93.9c0-.9-.7-1.6-1.6-1.6s-1.6.7-1.6,1.6.7,1.6,1.6,1.6,1.6-.7,1.6-1.6ZM73.7,93.9c0-.9-.7-1.6-1.6-1.6s-1.6.7-1.6,1.6.7,1.6,1.6,1.6,1.6-.7,1.6-1.6ZM78.1,93.9c0-.9-.7-1.6-1.6-1.6s-1.6.7-1.6,1.6.7,1.6,1.6,1.6,1.6-.7,1.6-1.6ZM87,93.9c0-.9-.7-1.6-1.6-1.6s-1.6.7-1.6,1.6.7,1.6,1.6,1.6,1.6-.7,1.6-1.6ZM95.9,93.9c0-.9-.7-1.6-1.6-1.6s-1.6.7-1.6,1.6.7,1.6,1.6,1.6,1.6-.7,1.6-1.6ZM100.3,93.9c0-.9-.7-1.6-1.6-1.6s-1.6.7-1.6,1.6.7,1.6,1.6,1.6,1.6-.7,1.6-1.6ZM104.8,93.9c0-.9-.7-1.6-1.6-1.6s-1.6.7-1.6,1.6.7,1.6,1.6,1.6,1.6-.7,1.6-1.6ZM109.2,93.9c0-.9-.7-1.6-1.6-1.6s-1.6.7-1.6,1.6.7,1.6,1.6,1.6,1.6-.7,1.6-1.6ZM113.7,93.9c0-.9-.7-1.6-1.6-1.6s-1.6.7-1.6,1.6.7,1.6,1.6,1.6,1.6-.7,1.6-1.6ZM118.2,93.9c0-.9-.7-1.6-1.6-1.6s-1.6.7-1.6,1.6.7,1.6,1.6,1.6,1.6-.7,1.6-1.6ZM122.6,93.9c0-.9-.7-1.6-1.6-1.6s-1.6.7-1.6,1.6.7,1.6,1.6,1.6,1.6-.7,1.6-1.6ZM127.1,93.9c0-.9-.7-1.6-1.6-1.6s-1.6.7-1.6,1.6.7,1.6,1.6,1.6,1.6-.7,1.6-1.6ZM42.5,98.3c0-.9-.7-1.6-1.6-1.6s-1.6.7-1.6,1.6.7,1.6,1.6,1.6,1.6-.7,1.6-1.6ZM69.2,98.3c0-.9-.7-1.6-1.6-1.6s-1.6.7-1.6,1.6.7,1.6,1.6,1.6,1.6-.7,1.6-1.6ZM78.1,98.3c0-.9-.7-1.6-1.6-1.6s-1.6.7-1.6,1.6.7,1.6,1.6,1.6,1.6-.7,1.6-1.6ZM95.9,98.3c0-.9-.7-1.6-1.6-1.6s-1.6.7-1.6,1.6.7,1.6,1.6,1.6,1.6-.7,1.6-1.6ZM113.7,98.3c0-.9-.7-1.6-1.6-1.6s-1.6.7-1.6,1.6.7,1.6,1.6,1.6,1.6-.7,1.6-1.6ZM122.6,98.3c0-.9-.7-1.6-1.6-1.6s-1.6.7-1.6,1.6.7,1.6,1.6,1.6,1.6-.7,1.6-1.6ZM131.5,98.3c0-.9-.7-1.6-1.6-1.6s-1.6.7-1.6,1.6.7,1.6,1.6,1.6,1.6-.7,1.6-1.6ZM34.8,116.7c0-8.6-7-15.6-15.6-15.6s-15.6,7-15.6,15.6,7,15.6,15.6,15.6,15.6-7,15.6-15.6ZM60.3,102.8c0-.9-.7-1.6-1.6-1.6s-1.6.7-1.6,1.6.7,1.6,1.6,1.6,1.6-.7,1.6-1.6ZM73.7,102.8c0-.9-.7-1.6-1.6-1.6s-1.6.7-1.6,1.6.7,1.6,1.6,1.6,1.6-.7,1.6-1.6ZM91.4,102.8c0-.9-.7-1.6-1.6-1.6s-1.6.7-1.6,1.6.7,1.6,1.6,1.6,1.6-.7,1.6-1.6ZM95.9,102.8c0-.9-.7-1.6-1.6-1.6s-1.6.7-1.6,1.6.7,1.6,1.6,1.6,1.6-.7,1.6-1.6ZM104.8,102.8c0-.9-.7-1.6-1.6-1.6s-1.6.7-1.6,1.6.7,1.6,1.6,1.6,1.6-.7,1.6-1.6ZM113.7,102.8c0-.9-.7-1.6-1.6-1.6s-1.6.7-1.6,1.6.7,1.6,1.6,1.6,1.6-.7,1.6-1.6ZM118.2,102.8c0-.9-.7-1.6-1.6-1.6s-1.6.7-1.6,1.6.7,1.6,1.6,1.6,1.6-.7,1.6-1.6ZM122.6,102.8c0-.9-.7-1.6-1.6-1.6s-1.6.7-1.6,1.6.7,1.6,1.6,1.6,1.6-.7,1.6-1.6ZM47,107.2c0-.9-.7-1.6-1.6-1.6s-1.6.7-1.6,1.6.7,1.6,1.6,1.6,1.6-.7,1.6-1.6ZM60.3,107.2c0-.9-.7-1.6-1.6-1.6s-1.6.7-1.6,1.6.7,1.6,1.6,1.6,1.6-.7,1.6-1.6ZM69.2,107.2c0-.9-.7-1.6-1.6-1.6s-1.6.7-1.6,1.6.7,1.6,1.6,1.6,1.6-.7,1.6-1.6ZM78.1,107.2c0-.9-.7-1.6-1.6-1.6s-1.6.7-1.6,1.6.7,1.6,1.6,1.6,1.6-.7,1.6-1.6ZM82.6,107.2c0-.9-.7-1.6-1.6-1.6s-1.6.7-1.6,1.6.7,1.6,1.6,1.6,1.6-.7,1.6-1.6ZM91.4,107.2c0-.9-.7-1.6-1.6-1.6s-1.6.7-1.6,1.6.7,1.6,1.6,1.6,1.6-.7,1.6-1.6ZM95.9,107.2c0-.9-.7-1.6-1.6-1.6s-1.6.7-1.6,1.6.7,1.6,1.6,1.6,1.6-.7,1.6-1.6ZM113.7,107.2c0-.9-.7-1.6-1.6-1.6s-1.6.7-1.6,1.6.7,1.6,1.6,1.6,1.6-.7,1.6-1.6ZM122.6,107.2c0-.9-.7-1.6-1.6-1.6s-1.6.7-1.6,1.6.7,1.6,1.6,1.6,1.6-.7,1.6-1.6ZM131.5,107.2c0-.9-.7-1.6-1.6-1.6s-1.6.7-1.6,1.6.7,1.6,1.6,1.6,1.6-.7,1.6-1.6ZM51.4,111.7c0-.9-.7-1.6-1.6-1.6s-1.6.7-1.6,1.6.7,1.6,1.6,1.6,1.6-.7,1.6-1.6ZM55.8,111.7c0-.9-.7-1.6-1.6-1.6s-1.6.7-1.6,1.6.7,1.6,1.6,1.6,1.6-.7,1.6-1.6ZM64.8,111.7c0-.9-.7-1.6-1.6-1.6s-1.6.7-1.6,1.6.7,1.6,1.6,1.6,1.6-.7,1.6-1.6ZM69.2,111.7c0-.9-.7-1.6-1.6-1.6s-1.6.7-1.6,1.6.7,1.6,1.6,1.6,1.6-.7,1.6-1.6ZM73.7,111.7c0-.9-.7-1.6-1.6-1.6s-1.6.7-1.6,1.6.7,1.6,1.6,1.6,1.6-.7,1.6-1.6ZM78.1,111.7c0-.9-.7-1.6-1.6-1.6s-1.6.7-1.6,1.6.7,1.6,1.6,1.6,1.6-.7,1.6-1.6ZM87,111.7c0-.9-.7-1.6-1.6-1.6s-1.6.7-1.6,1.6.7,1.6,1.6,1.6,1.6-.7,1.6-1.6ZM95.9,111.7c0-.9-.7-1.6-1.6-1.6s-1.6.7-1.6,1.6.7,1.6,1.6,1.6,1.6-.7,1.6-1.6ZM100.3,111.7c0-.9-.7-1.6-1.6-1.6s-1.6.7-1.6,1.6.7,1.6,1.6,1.6,1.6-.7,1.6-1.6ZM104.8,111.7c0-.9-.7-1.6-1.6-1.6s-1.6.7-1.6,1.6.7,1.6,1.6,1.6,1.6-.7,1.6-1.6ZM109.2,111.7c0-.9-.7-1.6-1.6-1.6s-1.6.7-1.6,1.6.7,1.6,1.6,1.6,1.6-.7,1.6-1.6ZM113.7,111.7c0-.9-.7-1.6-1.6-1.6s-1.6.7-1.6,1.6.7,1.6,1.6,1.6,1.6-.7,1.6-1.6ZM118.2,111.7c0-.9-.7-1.6-1.6-1.6s-1.6.7-1.6,1.6.7,1.6,1.6,1.6,1.6-.7,1.6-1.6ZM127.1,111.7c0-.9-.7-1.6-1.6-1.6s-1.6.7-1.6,1.6.7,1.6,1.6,1.6,1.6-.7,1.6-1.6ZM47,116.1c0-.9-.7-1.6-1.6-1.6s-1.6.7-1.6,1.6.7,1.6,1.6,1.6,1.6-.7,1.6-1.6ZM55.8,116.1c0-.9-.7-1.6-1.6-1.6s-1.6.7-1.6,1.6.7,1.6,1.6,1.6,1.6-.7,1.6-1.6ZM69.2,116.1c0-.9-.7-1.6-1.6-1.6s-1.6.7-1.6,1.6.7,1.6,1.6,1.6,1.6-.7,1.6-1.6ZM73.7,116.1c0-.9-.7-1.6-1.6-1.6s-1.6.7-1.6,1.6.7,1.6,1.6,1.6,1.6-.7,1.6-1.6ZM87,116.1c0-.9-.7-1.6-1.6-1.6s-1.6.7-1.6,1.6.7,1.6,1.6,1.6,1.6-.7,1.6-1.6ZM95.9,116.1c0-.9-.7-1.6-1.6-1.6s-1.6.7-1.6,1.6.7,1.6,1.6,1.6,1.6-.7,1.6-1.6ZM100.3,116.1c0-.9-.7-1.6-1.6-1.6s-1.6.7-1.6,1.6.7,1.6,1.6,1.6,1.6-.7,1.6-1.6ZM109.2,116.1c0-.9-.7-1.6-1.6-1.6s-1.6.7-1.6,1.6.7,1.6,1.6,1.6,1.6-.7,1.6-1.6ZM127.1,116.1c0-.9-.7-1.6-1.6-1.6s-1.6.7-1.6,1.6.7,1.6,1.6,1.6,1.6-.7,1.6-1.6ZM55.8,120.6c0-.9-.7-1.6-1.6-1.6s-1.6.7-1.6,1.6.7,1.6,1.6,1.6,1.6-.7,1.6-1.6ZM64.8,120.6c0-.9-.7-1.6-1.6-1.6s-1.6.7-1.6,1.6.7,1.6,1.6,1.6,1.6-.7,1.6-1.6ZM73.7,120.6c0-.9-.7-1.6-1.6-1.6s-1.6.7-1.6,1.6.7,1.6,1.6,1.6,1.6-.7,1.6-1.6ZM91.4,120.6c0-.9-.7-1.6-1.6-1.6s-1.6.7-1.6,1.6.7,1.6,1.6,1.6,1.6-.7,1.6-1.6ZM109.2,120.6c0-.9-.7-1.6-1.6-1.6s-1.6.7-1.6,1.6.7,1.6,1.6,1.6,1.6-.7,1.6-1.6ZM122.6,120.6c0-.9-.7-1.6-1.6-1.6s-1.6.7-1.6,1.6.7,1.6,1.6,1.6,1.6-.7,1.6-1.6ZM127.1,120.6c0-.9-.7-1.6-1.6-1.6s-1.6.7-1.6,1.6.7,1.6,1.6,1.6,1.6-.7,1.6-1.6ZM51.4,125c0-.9-.7-1.6-1.6-1.6s-1.6.7-1.6,1.6.7,1.6,1.6,1.6,1.6-.7,1.6-1.6ZM55.8,125c0-.9-.7-1.6-1.6-1.6s-1.6.7-1.6,1.6.7,1.6,1.6,1.6,1.6-.7,1.6-1.6ZM64.8,125c0-.9-.7-1.6-1.6-1.6s-1.6.7-1.6,1.6.7,1.6,1.6,1.6,1.6-.7,1.6-1.6ZM82.6,125c0-.9-.7-1.6-1.6-1.6s-1.6.7-1.6,1.6.7,1.6,1.6,1.6,1.6-.7,1.6-1.6ZM87,125c0-.9-.7-1.6-1.6-1.6s-1.6.7-1.6,1.6.7,1.6,1.6,1.6,1.6-.7,1.6-1.6ZM104.8,125c0-.9-.7-1.6-1.6-1.6s-1.6.7-1.6,1.6.7,1.6,1.6,1.6,1.6-.7,1.6-1.6ZM118.2,125c0-.9-.7-1.6-1.6-1.6s-1.6.7-1.6,1.6.7,1.6,1.6,1.6,1.6-.7,1.6-1.6ZM127.1,125c0-.9-.7-1.6-1.6-1.6s-1.6.7-1.6,1.6.7,1.6,1.6,1.6,1.6-.7,1.6-1.6ZM42.5,129.5c0-.9-.7-1.6-1.6-1.6s-1.6.7-1.6,1.6.7,1.6,1.6,1.6,1.6-.7,1.6-1.6ZM51.4,129.5c0-.9-.7-1.6-1.6-1.6s-1.6.7-1.6,1.6.7,1.6,1.6,1.6,1.6-.7,1.6-1.6ZM69.2,129.5c0-.9-.7-1.6-1.6-1.6s-1.6.7-1.6,1.6.7,1.6,1.6,1.6,1.6-.7,1.6-1.6ZM73.7,129.5c0-.9-.7-1.6-1.6-1.6s-1.6.7-1.6,1.6.7,1.6,1.6,1.6,1.6-.7,1.6-1.6ZM82.6,129.5c0-.9-.7-1.6-1.6-1.6s-1.6.7-1.6,1.6.7,1.6,1.6,1.6,1.6-.7,1.6-1.6ZM91.4,129.5c0-.9-.7-1.6-1.6-1.6s-1.6.7-1.6,1.6.7,1.6,1.6,1.6,1.6-.7,1.6-1.6ZM95.9,129.5c0-.9-.7-1.6-1.6-1.6s-1.6.7-1.6,1.6.7,1.6,1.6,1.6,1.6-.7,1.6-1.6ZM100.3,129.5c0-.9-.7-1.6-1.6-1.6s-1.6.7-1.6,1.6.7,1.6,1.6,1.6,1.6-.7,1.6-1.6ZM104.8,129.5c0-.9-.7-1.6-1.6-1.6s-1.6.7-1.6,1.6.7,1.6,1.6,1.6,1.6-.7,1.6-1.6ZM113.7,129.5c0-.9-.7-1.6-1.6-1.6s-1.6.7-1.6,1.6.7,1.6,1.6,1.6,1.6-.7,1.6-1.6ZM118.2,129.5c0-.9-.7-1.6-1.6-1.6s-1.6.7-1.6,1.6.7,1.6,1.6,1.6,1.6-.7,1.6-1.6ZM122.6,129.5c0-.9-.7-1.6-1.6-1.6s-1.6.7-1.6,1.6.7,1.6,1.6,1.6,1.6-.7,1.6-1.6Z"/>
        <path class="st1" d="M34.8,18.8c0,8.6-7,15.6-15.6,15.6S3.7,27.4,3.7,18.8,10.6,3.2,19.2,3.2s15.6,7,15.6,15.6ZM30.4,18.8c0-6.1-5-11.1-11.1-11.1s-11.1,5-11.1,11.1,5,11.1,11.1,11.1,11.1-5,11.1-11.1Z"/>
        <path class="st1" d="M34.8,116.7c0,8.6-7,15.6-15.6,15.6s-15.6-7-15.6-15.6,7-15.6,15.6-15.6,15.6,7,15.6,15.6ZM30.4,116.7c0-6.2-5-11.1-11.1-11.1s-11.1,5-11.1,11.1,5,11.1,11.1,11.1,11.1-5,11.1-11.1Z"/>
        <path class="st1" d="M132.7,18.8c0,8.6-7,15.6-15.6,15.6s-15.6-7-15.6-15.6,7-15.6,15.6-15.6,15.6,7,15.6,15.6ZM128.2,18.8c0-6.1-5-11.1-11.1-11.1s-11.1,5-11.1,11.1,5,11.1,11.1,11.1,11.1-5,11.1-11.1Z"/>
        <path class="st1" d="M40.9,10.9c.9,0,1.6-.7,1.6-1.6s-.7-1.6-1.6-1.6-1.6.7-1.6,1.6.7,1.6,1.6,1.6Z"/>
        <path class="st1" d="M45.3,10.9c.9,0,1.6-.7,1.6-1.6s-.7-1.6-1.6-1.6-1.6.7-1.6,1.6.7,1.6,1.6,1.6Z"/>
        <path class="st1" d="M63.1,10.9c.9,0,1.6-.7,1.6-1.6s-.7-1.6-1.6-1.6-1.6.7-1.6,1.6.7,1.6,1.6,1.6Z"/>
        <path class="st1" d="M67.6,10.9c.9,0,1.6-.7,1.6-1.6s-.7-1.6-1.6-1.6-1.6.7-1.6,1.6.7,1.6,1.6,1.6Z"/>
        <path class="st1" d="M76.5,10.9c.9,0,1.6-.7,1.6-1.6s-.7-1.6-1.6-1.6-1.6.7-1.6,1.6.7,1.6,1.6,1.6Z"/>
        <path class="st1" d="M80.9,10.9c.9,0,1.6-.7,1.6-1.6s-.7-1.6-1.6-1.6-1.6.7-1.6,1.6.7,1.6,1.6,1.6Z"/>
        <path class="st1" d="M89.8,10.9c.9,0,1.6-.7,1.6-1.6s-.7-1.6-1.6-1.6-1.6.7-1.6,1.6.7,1.6,1.6,1.6Z"/>
        <path class="st1" d="M85.4,6.5c.9,0,1.6-.7,1.6-1.6s-.7-1.6-1.6-1.6-1.6.7-1.6,1.6.7,1.6,1.6,1.6Z"/>
        <path class="st1" d="M80.9,6.5c.9,0,1.6-.7,1.6-1.6s-.7-1.6-1.6-1.6-1.6.7-1.6,1.6.7,1.6,1.6,1.6Z"/>
        <path class="st1" d="M40.9,15.4c.9,0,1.6-.7,1.6-1.6s-.7-1.6-1.6-1.6-1.6.7-1.6,1.6.7,1.6,1.6,1.6Z"/>
        <path class="st1" d="M45.3,15.4c.9,0,1.6-.7,1.6-1.6s-.7-1.6-1.6-1.6-1.6.7-1.6,1.6.7,1.6,1.6,1.6Z"/>
        <path class="st1" d="M58.7,15.4c.9,0,1.6-.7,1.6-1.6s-.7-1.6-1.6-1.6-1.6.7-1.6,1.6.7,1.6,1.6,1.6Z"/>
        <path class="st1" d="M63.1,15.4c.9,0,1.6-.7,1.6-1.6s-.7-1.6-1.6-1.6-1.6.7-1.6,1.6.7,1.6,1.6,1.6Z"/>
        <path class="st1" d="M72,15.4c.9,0,1.6-.7,1.6-1.6s-.7-1.6-1.6-1.6-1.6.7-1.6,1.6.7,1.6,1.6,1.6Z"/>
        <path class="st1" d="M85.4,15.4c.9,0,1.6-.7,1.6-1.6s-.7-1.6-1.6-1.6-1.6.7-1.6,1.6.7,1.6,1.6,1.6Z"/>
        <path class="st1" d="M89.8,15.4c.9,0,1.6-.7,1.6-1.6s-.7-1.6-1.6-1.6-1.6.7-1.6,1.6.7,1.6,1.6,1.6Z"/>
        <path class="st1" d="M76.5,6.5c.9,0,1.6-.7,1.6-1.6s-.7-1.6-1.6-1.6-1.6.7-1.6,1.6.7,1.6,1.6,1.6Z"/>
        <path class="st1" d="M40.9,19.8c.9,0,1.6-.7,1.6-1.6s-.7-1.6-1.6-1.6-1.6.7-1.6,1.6.7,1.6,1.6,1.6Z"/>
        <path class="st1" d="M49.8,19.8c.9,0,1.6-.7,1.6-1.6s-.7-1.6-1.6-1.6-1.6.7-1.6,1.6.7,1.6,1.6,1.6Z"/>
        <path class="st1" d="M54.2,19.8c.9,0,1.6-.7,1.6-1.6s-.7-1.6-1.6-1.6-1.6.7-1.6,1.6.7,1.6,1.6,1.6Z"/>
        <path class="st1" d="M58.7,19.8c.9,0,1.6-.7,1.6-1.6s-.7-1.6-1.6-1.6-1.6.7-1.6,1.6.7,1.6,1.6,1.6Z"/>
        <path class="st1" d="M76.5,19.8c.9,0,1.6-.7,1.6-1.6s-.7-1.6-1.6-1.6-1.6.7-1.6,1.6.7,1.6,1.6,1.6Z"/>
        <path class="st1" d="M80.9,19.8c.9,0,1.6-.7,1.6-1.6s-.7-1.6-1.6-1.6-1.6.7-1.6,1.6.7,1.6,1.6,1.6Z"/>
        <path class="st1" d="M85.4,19.8c.9,0,1.6-.7,1.6-1.6s-.7-1.6-1.6-1.6-1.6.7-1.6,1.6.7,1.6,1.6,1.6Z"/>
        <path class="st1" d="M94.3,19.8c.9,0,1.6-.7,1.6-1.6s-.7-1.6-1.6-1.6-1.6.7-1.6,1.6.7,1.6,1.6,1.6Z"/>
        <path class="st1" d="M45.3,24.3c.9,0,1.6-.7,1.6-1.6s-.7-1.6-1.6-1.6-1.6.7-1.6,1.6.7,1.6,1.6,1.6Z"/>
        <path class="st1" d="M49.8,24.3c.9,0,1.6-.7,1.6-1.6s-.7-1.6-1.6-1.6-1.6.7-1.6,1.6.7,1.6,1.6,1.6Z"/>
        <path class="st1" d="M72,24.3c.9,0,1.6-.7,1.6-1.6s-.7-1.6-1.6-1.6-1.6.7-1.6,1.6.7,1.6,1.6,1.6Z"/>
        <path class="st1" d="M76.5,24.3c.9,0,1.6-.7,1.6-1.6s-.7-1.6-1.6-1.6-1.6.7-1.6,1.6.7,1.6,1.6,1.6Z"/>
        <path class="st1" d="M89.8,24.3c.9,0,1.6-.7,1.6-1.6s-.7-1.6-1.6-1.6-1.6.7-1.6,1.6.7,1.6,1.6,1.6Z"/>
        <path class="st1" d="M54.2,28.7c.9,0,1.6-.7,1.6-1.6s-.7-1.6-1.6-1.6-1.6.7-1.6,1.6.7,1.6,1.6,1.6Z"/>
        <path class="st1" d="M72,28.7c.9,0,1.6-.7,1.6-1.6s-.7-1.6-1.6-1.6-1.6.7-1.6,1.6.7,1.6,1.6,1.6Z"/>
        <path class="st1" d="M80.9,28.7c.9,0,1.6-.7,1.6-1.6s-.7-1.6-1.6-1.6-1.6.7-1.6,1.6.7,1.6,1.6,1.6Z"/>
        <path class="st1" d="M94.3,28.7c.9,0,1.6-.7,1.6-1.6s-.7-1.6-1.6-1.6-1.6.7-1.6,1.6.7,1.6,1.6,1.6Z"/>
        <path class="st1" d="M40.9,33.2c.9,0,1.6-.7,1.6-1.6s-.7-1.6-1.6-1.6-1.6.7-1.6,1.6.7,1.6,1.6,1.6Z"/>
        <path class="st1" d="M49.8,33.2c.9,0,1.6-.7,1.6-1.6s-.7-1.6-1.6-1.6-1.6.7-1.6,1.6.7,1.6,1.6,1.6Z"/>
        <path class="st1" d="M58.7,33.2c.9,0,1.6-.7,1.6-1.6s-.7-1.6-1.6-1.6-1.6.7-1.6,1.6.7,1.6,1.6,1.6Z"/>
        <path class="st1" d="M67.6,33.2c.9,0,1.6-.7,1.6-1.6s-.7-1.6-1.6-1.6-1.6.7-1.6,1.6.7,1.6,1.6,1.6Z"/>
        <path class="st1" d="M76.5,33.2c.9,0,1.6-.7,1.6-1.6s-.7-1.6-1.6-1.6-1.6.7-1.6,1.6.7,1.6,1.6,1.6Z"/>
        <path class="st1" d="M85.4,33.2c.9,0,1.6-.7,1.6-1.6s-.7-1.6-1.6-1.6-1.6.7-1.6,1.6.7,1.6,1.6,1.6Z"/>
        <path class="st1" d="M94.3,33.2c.9,0,1.6-.7,1.6-1.6s-.7-1.6-1.6-1.6-1.6.7-1.6,1.6.7,1.6,1.6,1.6Z"/>
        <path class="st1" d="M40.9,37.6c.9,0,1.6-.7,1.6-1.6s-.7-1.6-1.6-1.6-1.6.7-1.6,1.6.7,1.6,1.6,1.6Z"/>
        <path class="st1" d="M54.2,37.6c.9,0,1.6-.7,1.6-1.6s-.7-1.6-1.6-1.6-1.6.7-1.6,1.6.7,1.6,1.6,1.6Z"/>
        <path class="st1" d="M58.7,37.6c.9,0,1.6-.7,1.6-1.6s-.7-1.6-1.6-1.6-1.6.7-1.6,1.6.7,1.6,1.6,1.6Z"/>
        <path class="st1" d="M67.6,37.6c.9,0,1.6-.7,1.6-1.6s-.7-1.6-1.6-1.6-1.6.7-1.6,1.6.7,1.6,1.6,1.6Z"/>
        <path class="st1" d="M72,37.6c.9,0,1.6-.7,1.6-1.6s-.7-1.6-1.6-1.6-1.6.7-1.6,1.6.7,1.6,1.6,1.6Z"/>
        <path class="st1" d="M76.5,37.6c.9,0,1.6-.7,1.6-1.6s-.7-1.6-1.6-1.6-1.6.7-1.6,1.6.7,1.6,1.6,1.6Z"/>
        <path class="st1" d="M80.9,37.6c.9,0,1.6-.7,1.6-1.6s-.7-1.6-1.6-1.6-1.6.7-1.6,1.6.7,1.6,1.6,1.6Z"/>
        <path class="st1" d="M85.4,37.6c.9,0,1.6-.7,1.6-1.6s-.7-1.6-1.6-1.6-1.6.7-1.6,1.6.7,1.6,1.6,1.6Z"/>
        <path class="st1" d="M89.8,37.6c.9,0,1.6-.7,1.6-1.6s-.7-1.6-1.6-1.6-1.6.7-1.6,1.6.7,1.6,1.6,1.6Z"/>
        <path class="st1" d="M94.3,37.6c.9,0,1.6-.7,1.6-1.6s-.7-1.6-1.6-1.6-1.6.7-1.6,1.6.7,1.6,1.6,1.6Z"/>
        <path class="st1" d="M5.3,42.1c.9,0,1.6-.7,1.6-1.6s-.7-1.6-1.6-1.6-1.6.7-1.6,1.6.7,1.6,1.6,1.6Z"/>
        <path class="st1" d="M32,42.1c.9,0,1.6-.7,1.6-1.6s-.7-1.6-1.6-1.6-1.6.7-1.6,1.6.7,1.6,1.6,1.6Z"/>
        <path class="st1" d="M40.9,42.1c.9,0,1.6-.7,1.6-1.6s-.7-1.6-1.6-1.6-1.6.7-1.6,1.6.7,1.6,1.6,1.6Z"/>
        <path class="st1" d="M49.8,42.1c.9,0,1.6-.7,1.6-1.6s-.7-1.6-1.6-1.6-1.6.7-1.6,1.6.7,1.6,1.6,1.6Z"/>
        <path class="st1" d="M54.2,42.1c.9,0,1.6-.7,1.6-1.6s-.7-1.6-1.6-1.6-1.6.7-1.6,1.6.7,1.6,1.6,1.6Z"/>
        <path class="st1" d="M58.7,42.1c.9,0,1.6-.7,1.6-1.6s-.7-1.6-1.6-1.6-1.6.7-1.6,1.6.7,1.6,1.6,1.6Z"/>
        <path class="st1" d="M76.5,42.1c.9,0,1.6-.7,1.6-1.6s-.7-1.6-1.6-1.6-1.6.7-1.6,1.6.7,1.6,1.6,1.6Z"/>
        <path class="st1" d="M80.9,42.1c.9,0,1.6-.7,1.6-1.6s-.7-1.6-1.6-1.6-1.6.7-1.6,1.6.7,1.6,1.6,1.6Z"/>
        <path class="st1" d="M94.3,42.1c.9,0,1.6-.7,1.6-1.6s-.7-1.6-1.6-1.6-1.6.7-1.6,1.6.7,1.6,1.6,1.6Z"/>
        <path class="st1" d="M98.7,42.1c.9,0,1.6-.7,1.6-1.6s-.7-1.6-1.6-1.6-1.6.7-1.6,1.6.7,1.6,1.6,1.6Z"/>
        <path class="st1" d="M103.2,42.1c.9,0,1.6-.7,1.6-1.6s-.7-1.6-1.6-1.6-1.6.7-1.6,1.6.7,1.6,1.6,1.6Z"/>
        <path class="st1" d="M116.5,42.1c.9,0,1.6-.7,1.6-1.6s-.7-1.6-1.6-1.6-1.6.7-1.6,1.6.7,1.6,1.6,1.6Z"/>
        <path class="st1" d="M121,42.1c.9,0,1.6-.7,1.6-1.6s-.7-1.6-1.6-1.6-1.6.7-1.6,1.6.7,1.6,1.6,1.6Z"/>
        <path class="st1" d="M125.4,42.1c.9,0,1.6-.7,1.6-1.6s-.7-1.6-1.6-1.6-1.6.7-1.6,1.6.7,1.6,1.6,1.6Z"/>
        <path class="st1" d="M9.7,46.5c.9,0,1.6-.7,1.6-1.6s-.7-1.6-1.6-1.6-1.6.7-1.6,1.6.7,1.6,1.6,1.6Z"/>
        <path class="st1" d="M14.2,46.5c.9,0,1.6-.7,1.6-1.6s-.7-1.6-1.6-1.6-1.6.7-1.6,1.6.7,1.6,1.6,1.6Z"/>
        <path class="st1" d="M18.6,46.5c.9,0,1.6-.7,1.6-1.6s-.7-1.6-1.6-1.6-1.6.7-1.6,1.6.7,1.6,1.6,1.6Z"/>
        <path class="st1" d="M27.5,46.5c.9,0,1.6-.7,1.6-1.6s-.7-1.6-1.6-1.6-1.6.7-1.6,1.6.7,1.6,1.6,1.6Z"/>
        <path class="st1" d="M36.4,46.5c.9,0,1.6-.7,1.6-1.6s-.7-1.6-1.6-1.6-1.6.7-1.6,1.6.7,1.6,1.6,1.6Z"/>
        <path class="st1" d="M40.9,46.5c.9,0,1.6-.7,1.6-1.6s-.7-1.6-1.6-1.6-1.6.7-1.6,1.6.7,1.6,1.6,1.6Z"/>
        <path class="st1" d="M45.3,46.5c.9,0,1.6-.7,1.6-1.6s-.7-1.6-1.6-1.6-1.6.7-1.6,1.6.7,1.6,1.6,1.6Z"/>
        <path class="st1" d="M58.7,46.5c.9,0,1.6-.7,1.6-1.6s-.7-1.6-1.6-1.6-1.6.7-1.6,1.6.7,1.6,1.6,1.6Z"/>
        <path class="st1" d="M63.1,46.5c.9,0,1.6-.7,1.6-1.6s-.7-1.6-1.6-1.6-1.6.7-1.6,1.6.7,1.6,1.6,1.6Z"/>
        <path class="st1" d="M76.5,46.5c.9,0,1.6-.7,1.6-1.6s-.7-1.6-1.6-1.6-1.6.7-1.6,1.6.7,1.6,1.6,1.6Z"/>
        <path class="st1" d="M98.7,46.5c.9,0,1.6-.7,1.6-1.6s-.7-1.6-1.6-1.6-1.6.7-1.6,1.6.7,1.6,1.6,1.6Z"/>
        <path class="st1" d="M112.1,46.5c.9,0,1.6-.7,1.6-1.6s-.7-1.6-1.6-1.6-1.6.7-1.6,1.6.7,1.6,1.6,1.6Z"/>
        <path class="st1" d="M116.5,46.5c.9,0,1.6-.7,1.6-1.6s-.7-1.6-1.6-1.6-1.6.7-1.6,1.6.7,1.6,1.6,1.6Z"/>
        <path class="st1" d="M121,46.5c.9,0,1.6-.7,1.6-1.6s-.7-1.6-1.6-1.6-1.6.7-1.6,1.6.7,1.6,1.6,1.6Z"/>
        <path class="st1" d="M129.9,46.5c.9,0,1.6-.7,1.6-1.6s-.7-1.6-1.6-1.6-1.6.7-1.6,1.6.7,1.6,1.6,1.6Z"/>
        <path class="st1" d="M5.3,51c.9,0,1.6-.7,1.6-1.6s-.7-1.6-1.6-1.6-1.6.7-1.6,1.6.7,1.6,1.6,1.6Z"/>
        <path class="st1" d="M14.2,51c.9,0,1.6-.7,1.6-1.6s-.7-1.6-1.6-1.6-1.6.7-1.6,1.6.7,1.6,1.6,1.6Z"/>
        <path class="st1" d="M18.6,51c.9,0,1.6-.7,1.6-1.6s-.7-1.6-1.6-1.6-1.6.7-1.6,1.6.7,1.6,1.6,1.6Z"/>
        <path class="st1" d="M23.1,51c.9,0,1.6-.7,1.6-1.6s-.7-1.6-1.6-1.6-1.6.7-1.6,1.6.7,1.6,1.6,1.6Z"/>
        <path class="st1" d="M32,51c.9,0,1.6-.7,1.6-1.6s-.7-1.6-1.6-1.6-1.6.7-1.6,1.6.7,1.6,1.6,1.6Z"/>
        <path class="st1" d="M36.4,51c.9,0,1.6-.7,1.6-1.6s-.7-1.6-1.6-1.6-1.6.7-1.6,1.6.7,1.6,1.6,1.6Z"/>
        <path class="st1" d="M45.3,51c.9,0,1.6-.7,1.6-1.6s-.7-1.6-1.6-1.6-1.6.7-1.6,1.6.7,1.6,1.6,1.6Z"/>
        <path class="st1" d="M58.7,51c.9,0,1.6-.7,1.6-1.6s-.7-1.6-1.6-1.6-1.6.7-1.6,1.6.7,1.6,1.6,1.6Z"/>
        <path class="st1" d="M63.1,51c.9,0,1.6-.7,1.6-1.6s-.7-1.6-1.6-1.6-1.6.7-1.6,1.6.7,1.6,1.6,1.6Z"/>
        <path class="st1" d="M67.6,51c.9,0,1.6-.7,1.6-1.6s-.7-1.6-1.6-1.6-1.6.7-1.6,1.6.7,1.6,1.6,1.6Z"/>
        <path class="st1" d="M72,51c.9,0,1.6-.7,1.6-1.6s-.7-1.6-1.6-1.6-1.6.7-1.6,1.6.7,1.6,1.6,1.6Z"/>
        <path class="st1" d="M76.5,51c.9,0,1.6-.7,1.6-1.6s-.7-1.6-1.6-1.6-1.6.7-1.6,1.6.7,1.6,1.6,1.6Z"/>
        <path class="st1" d="M80.9,51c.9,0,1.6-.7,1.6-1.6s-.7-1.6-1.6-1.6-1.6.7-1.6,1.6.7,1.6,1.6,1.6Z"/>
        <path class="st1" d="M107.6,51c.9,0,1.6-.7,1.6-1.6s-.7-1.6-1.6-1.6-1.6.7-1.6,1.6.7,1.6,1.6,1.6Z"/>
        <path class="st1" d="M116.5,51c.9,0,1.6-.7,1.6-1.6s-.7-1.6-1.6-1.6-1.6.7-1.6,1.6.7,1.6,1.6,1.6Z"/>
        <path class="st1" d="M121,51c.9,0,1.6-.7,1.6-1.6s-.7-1.6-1.6-1.6-1.6.7-1.6,1.6.7,1.6,1.6,1.6Z"/>
        <path class="st1" d="M18.6,55.4c.9,0,1.6-.7,1.6-1.6s-.7-1.6-1.6-1.6-1.6.7-1.6,1.6.7,1.6,1.6,1.6Z"/>
        <path class="st1" d="M27.5,55.4c.9,0,1.6-.7,1.6-1.6s-.7-1.6-1.6-1.6-1.6.7-1.6,1.6.7,1.6,1.6,1.6Z"/>
        <path class="st1" d="M45.3,55.4c.9,0,1.6-.7,1.6-1.6s-.7-1.6-1.6-1.6-1.6.7-1.6,1.6.7,1.6,1.6,1.6Z"/>
        <path class="st1" d="M49.8,55.4c.9,0,1.6-.7,1.6-1.6s-.7-1.6-1.6-1.6-1.6.7-1.6,1.6.7,1.6,1.6,1.6Z"/>
        <path class="st1" d="M54.2,55.4c.9,0,1.6-.7,1.6-1.6s-.7-1.6-1.6-1.6-1.6.7-1.6,1.6.7,1.6,1.6,1.6Z"/>
        <path class="st1" d="M58.7,55.4c.9,0,1.6-.7,1.6-1.6s-.7-1.6-1.6-1.6-1.6.7-1.6,1.6.7,1.6,1.6,1.6Z"/>
        <path class="st1" d="M63.1,55.4c.9,0,1.6-.7,1.6-1.6s-.7-1.6-1.6-1.6-1.6.7-1.6,1.6.7,1.6,1.6,1.6Z"/>
        <path class="st1" d="M80.9,55.4c.9,0,1.6-.7,1.6-1.6s-.7-1.6-1.6-1.6-1.6.7-1.6,1.6.7,1.6,1.6,1.6Z"/>
        <path class="st1" d="M85.4,55.4c.9,0,1.6-.7,1.6-1.6s-.7-1.6-1.6-1.6-1.6.7-1.6,1.6.7,1.6,1.6,1.6Z"/>
        <path class="st1" d="M89.8,55.4c.9,0,1.6-.7,1.6-1.6s-.7-1.6-1.6-1.6-1.6.7-1.6,1.6.7,1.6,1.6,1.6Z"/>
        <path class="st1" d="M94.3,55.4c.9,0,1.6-.7,1.6-1.6s-.7-1.6-1.6-1.6-1.6.7-1.6,1.6.7,1.6,1.6,1.6Z"/>
        <path class="st1" d="M103.2,55.4c.9,0,1.6-.7,1.6-1.6s-.7-1.6-1.6-1.6-1.6.7-1.6,1.6.7,1.6,1.6,1.6Z"/>
        <path class="st1" d="M107.6,55.4c.9,0,1.6-.7,1.6-1.6s-.7-1.6-1.6-1.6-1.6.7-1.6,1.6.7,1.6,1.6,1.6Z"/>
        <path class="st1" d="M112.1,55.4c.9,0,1.6-.7,1.6-1.6s-.7-1.6-1.6-1.6-1.6.7-1.6,1.6.7,1.6,1.6,1.6Z"/>
        <path class="st1" d="M116.5,55.4c.9,0,1.6-.7,1.6-1.6s-.7-1.6-1.6-1.6-1.6.7-1.6,1.6.7,1.6,1.6,1.6Z"/>
        <path class="st1" d="M125.4,55.4c.9,0,1.6-.7,1.6-1.6s-.7-1.6-1.6-1.6-1.6.7-1.6,1.6.7,1.6,1.6,1.6Z"/>
        <path class="st1" d="M129.9,55.4c.9,0,1.6-.7,1.6-1.6s-.7-1.6-1.6-1.6-1.6.7-1.6,1.6.7,1.6,1.6,1.6Z"/>
        <path class="st1" d="M9.7,59.9c.9,0,1.6-.7,1.6-1.6s-.7-1.6-1.6-1.6-1.6.7-1.6,1.6.7,1.6,1.6,1.6Z"/>
        <path class="st1" d="M18.6,59.9c.9,0,1.6-.7,1.6-1.6s-.7-1.6-1.6-1.6-1.6.7-1.6,1.6.7,1.6,1.6,1.6Z"/>
        <path class="st1" d="M23.1,59.9c.9,0,1.6-.7,1.6-1.6s-.7-1.6-1.6-1.6-1.6.7-1.6,1.6.7,1.6,1.6,1.6Z"/>
        <path class="st1" d="M32,59.9c.9,0,1.6-.7,1.6-1.6s-.7-1.6-1.6-1.6-1.6.7-1.6,1.6.7,1.6,1.6,1.6Z"/>
        <path class="st1" d="M45.3,59.9c.9,0,1.6-.7,1.6-1.6s-.7-1.6-1.6-1.6-1.6.7-1.6,1.6.7,1.6,1.6,1.6Z"/>
        <path class="st1" d="M54.2,59.9c.9,0,1.6-.7,1.6-1.6s-.7-1.6-1.6-1.6-1.6.7-1.6,1.6.7,1.6,1.6,1.6Z"/>
        <path class="st1" d="M80.9,59.9c.9,0,1.6-.7,1.6-1.6s-.7-1.6-1.6-1.6-1.6.7-1.6,1.6.7,1.6,1.6,1.6Z"/>
        <path class="st1" d="M89.8,59.9c.9,0,1.6-.7,1.6-1.6s-.7-1.6-1.6-1.6-1.6.7-1.6,1.6.7,1.6,1.6,1.6Z"/>
        <path class="st1" d="M94.3,59.9c.9,0,1.6-.7,1.6-1.6s-.7-1.6-1.6-1.6-1.6.7-1.6,1.6.7,1.6,1.6,1.6Z"/>
        <path class="st1" d="M98.7,59.9c.9,0,1.6-.7,1.6-1.6s-.7-1.6-1.6-1.6-1.6.7-1.6,1.6.7,1.6,1.6,1.6Z"/>
        <path class="st1" d="M107.6,59.9c.9,0,1.6-.7,1.6-1.6s-.7-1.6-1.6-1.6-1.6.7-1.6,1.6.7,1.6,1.6,1.6Z"/>
        <path class="st1" d="M116.5,59.9c.9,0,1.6-.7,1.6-1.6s-.7-1.6-1.6-1.6-1.6.7-1.6,1.6.7,1.6,1.6,1.6Z"/>
        <path class="st1" d="M121,59.9c.9,0,1.6-.7,1.6-1.6s-.7-1.6-1.6-1.6-1.6.7-1.6,1.6.7,1.6,1.6,1.6Z"/>
        <path class="st1" d="M129.9,59.9c.9,0,1.6-.7,1.6-1.6s-.7-1.6-1.6-1.6-1.6.7-1.6,1.6.7,1.6,1.6,1.6Z"/>
        <path class="st1" d="M9.7,64.3c.9,0,1.6-.7,1.6-1.6s-.7-1.6-1.6-1.6-1.6.7-1.6,1.6.7,1.6,1.6,1.6Z"/>
        <path class="st1" d="M23.1,64.3c.9,0,1.6-.7,1.6-1.6s-.7-1.6-1.6-1.6-1.6.7-1.6,1.6.7,1.6,1.6,1.6Z"/>
        <path class="st1" d="M27.5,64.3c.9,0,1.6-.7,1.6-1.6s-.7-1.6-1.6-1.6-1.6.7-1.6,1.6.7,1.6,1.6,1.6Z"/>
        <path class="st1" d="M36.4,64.3c.9,0,1.6-.7,1.6-1.6s-.7-1.6-1.6-1.6-1.6.7-1.6,1.6.7,1.6,1.6,1.6Z"/>
        <path class="st1" d="M40.9,64.3c.9,0,1.6-.7,1.6-1.6s-.7-1.6-1.6-1.6-1.6.7-1.6,1.6.7,1.6,1.6,1.6Z"/>
        <path class="st1" d="M49.8,64.3c.9,0,1.6-.7,1.6-1.6s-.7-1.6-1.6-1.6-1.6.7-1.6,1.6.7,1.6,1.6,1.6Z"/>
        <path class="st1" d="M89.8,64.3c.9,0,1.6-.7,1.6-1.6s-.7-1.6-1.6-1.6-1.6.7-1.6,1.6.7,1.6,1.6,1.6Z"/>
        <path class="st1" d="M94.3,64.3c.9,0,1.6-.7,1.6-1.6s-.7-1.6-1.6-1.6-1.6.7-1.6,1.6.7,1.6,1.6,1.6Z"/>
        <path class="st1" d="M98.7,64.3c.9,0,1.6-.7,1.6-1.6s-.7-1.6-1.6-1.6-1.6.7-1.6,1.6.7,1.6,1.6,1.6Z"/>
        <path class="st1" d="M107.6,64.3c.9,0,1.6-.7,1.6-1.6s-.7-1.6-1.6-1.6-1.6.7-1.6,1.6.7,1.6,1.6,1.6Z"/>
        <path class="st1" d="M116.5,64.3c.9,0,1.6-.7,1.6-1.6s-.7-1.6-1.6-1.6-1.6.7-1.6,1.6.7,1.6,1.6,1.6Z"/>
        <path class="st1" d="M18.6,68.8c.9,0,1.6-.7,1.6-1.6s-.7-1.6-1.6-1.6-1.6.7-1.6,1.6.7,1.6,1.6,1.6Z"/>
        <path class="st1" d="M27.5,68.8c.9,0,1.6-.7,1.6-1.6s-.7-1.6-1.6-1.6-1.6.7-1.6,1.6.7,1.6,1.6,1.6Z"/>
        <path class="st1" d="M32,68.8c.9,0,1.6-.7,1.6-1.6s-.7-1.6-1.6-1.6-1.6.7-1.6,1.6.7,1.6,1.6,1.6Z"/>
        <path class="st1" d="M40.9,68.8c.9,0,1.6-.7,1.6-1.6s-.7-1.6-1.6-1.6-1.6.7-1.6,1.6.7,1.6,1.6,1.6Z"/>
        <path class="st1" d="M45.3,68.8c.9,0,1.6-.7,1.6-1.6s-.7-1.6-1.6-1.6-1.6.7-1.6,1.6.7,1.6,1.6,1.6Z"/>
        <path class="st1" d="M49.8,68.8c.9,0,1.6-.7,1.6-1.6s-.7-1.6-1.6-1.6-1.6.7-1.6,1.6.7,1.6,1.6,1.6Z"/>
        <path class="st1" d="M54.2,68.8c.9,0,1.6-.7,1.6-1.6s-.7-1.6-1.6-1.6-1.6.7-1.6,1.6.7,1.6,1.6,1.6Z"/>
        <path class="st1" d="M80.9,68.8c.9,0,1.6-.7,1.6-1.6s-.7-1.6-1.6-1.6-1.6.7-1.6,1.6.7,1.6,1.6,1.6Z"/>
        <path class="st1" d="M85.4,68.8c.9,0,1.6-.7,1.6-1.6s-.7-1.6-1.6-1.6-1.6.7-1.6,1.6.7,1.6,1.6,1.6Z"/>
        <path class="st1" d="M94.3,68.8c.9,0,1.6-.7,1.6-1.6s-.7-1.6-1.6-1.6-1.6.7-1.6,1.6.7,1.6,1.6,1.6Z"/>
        <path class="st1" d="M116.5,68.8c.9,0,1.6-.7,1.6-1.6s-.7-1.6-1.6-1.6-1.6.7-1.6,1.6.7,1.6,1.6,1.6Z"/>
        <path class="st1" d="M121,68.8c.9,0,1.6-.7,1.6-1.6s-.7-1.6-1.6-1.6-1.6.7-1.6,1.6.7,1.6,1.6,1.6Z"/>
        <path class="st1" d="M125.4,68.8c.9,0,1.6-.7,1.6-1.6s-.7-1.6-1.6-1.6-1.6.7-1.6,1.6.7,1.6,1.6,1.6Z"/>
        <path class="st1" d="M129.9,68.8c.9,0,1.6-.7,1.6-1.6s-.7-1.6-1.6-1.6-1.6.7-1.6,1.6.7,1.6,1.6,1.6Z"/>
        <path class="st1" d="M9.7,73.2c.9,0,1.6-.7,1.6-1.6s-.7-1.6-1.6-1.6-1.6.7-1.6,1.6.7,1.6,1.6,1.6Z"/>
        <path class="st1" d="M18.6,73.2c.9,0,1.6-.7,1.6-1.6s-.7-1.6-1.6-1.6-1.6.7-1.6,1.6.7,1.6,1.6,1.6Z"/>
        <path class="st1" d="M23.1,73.2c.9,0,1.6-.7,1.6-1.6s-.7-1.6-1.6-1.6-1.6.7-1.6,1.6.7,1.6,1.6,1.6Z"/>
        <path class="st1" d="M36.4,73.2c.9,0,1.6-.7,1.6-1.6s-.7-1.6-1.6-1.6-1.6.7-1.6,1.6.7,1.6,1.6,1.6Z"/>
        <path class="st1" d="M54.2,73.2c.9,0,1.6-.7,1.6-1.6s-.7-1.6-1.6-1.6-1.6.7-1.6,1.6.7,1.6,1.6,1.6Z"/>
        <path class="st1" d="M80.9,73.2c.9,0,1.6-.7,1.6-1.6s-.7-1.6-1.6-1.6-1.6.7-1.6,1.6.7,1.6,1.6,1.6Z"/>
        <path class="st1" d="M85.4,73.2c.9,0,1.6-.7,1.6-1.6s-.7-1.6-1.6-1.6-1.6.7-1.6,1.6.7,1.6,1.6,1.6Z"/>
        <path class="st1" d="M89.8,73.2c.9,0,1.6-.7,1.6-1.6s-.7-1.6-1.6-1.6-1.6.7-1.6,1.6.7,1.6,1.6,1.6Z"/>
        <path class="st1" d="M98.7,73.2c.9,0,1.6-.7,1.6-1.6s-.7-1.6-1.6-1.6-1.6.7-1.6,1.6.7,1.6,1.6,1.6Z"/>
        <path class="st1" d="M112.1,73.2c.9,0,1.6-.7,1.6-1.6s-.7-1.6-1.6-1.6-1.6.7-1.6,1.6.7,1.6,1.6,1.6Z"/>
        <path class="st1" d="M121,73.2c.9,0,1.6-.7,1.6-1.6s-.7-1.6-1.6-1.6-1.6.7-1.6,1.6.7,1.6,1.6,1.6Z"/>
        <path class="st1" d="M5.3,77.7c.9,0,1.6-.7,1.6-1.6s-.7-1.6-1.6-1.6-1.6.7-1.6,1.6.7,1.6,1.6,1.6Z"/>
        <path class="st1" d="M23.1,77.7c.9,0,1.6-.7,1.6-1.6s-.7-1.6-1.6-1.6-1.6.7-1.6,1.6.7,1.6,1.6,1.6Z"/>
        <path class="st1" d="M27.5,77.7c.9,0,1.6-.7,1.6-1.6s-.7-1.6-1.6-1.6-1.6.7-1.6,1.6.7,1.6,1.6,1.6Z"/>
        <path class="st1" d="M32,77.7c.9,0,1.6-.7,1.6-1.6s-.7-1.6-1.6-1.6-1.6.7-1.6,1.6.7,1.6,1.6,1.6Z"/>
        <path class="st1" d="M49.8,77.7c.9,0,1.6-.7,1.6-1.6s-.7-1.6-1.6-1.6-1.6.7-1.6,1.6.7,1.6,1.6,1.6Z"/>
        <path class="st1" d="M54.2,77.7c.9,0,1.6-.7,1.6-1.6s-.7-1.6-1.6-1.6-1.6.7-1.6,1.6.7,1.6,1.6,1.6Z"/>
        <path class="st1" d="M80.9,77.7c.9,0,1.6-.7,1.6-1.6s-.7-1.6-1.6-1.6-1.6.7-1.6,1.6.7,1.6,1.6,1.6Z"/>
        <path class="st1" d="M94.3,77.7c.9,0,1.6-.7,1.6-1.6s-.7-1.6-1.6-1.6-1.6.7-1.6,1.6.7,1.6,1.6,1.6Z"/>
        <path class="st1" d="M107.6,77.7c.9,0,1.6-.7,1.6-1.6s-.7-1.6-1.6-1.6-1.6.7-1.6,1.6.7,1.6,1.6,1.6Z"/>
        <path class="st1" d="M112.1,77.7c.9,0,1.6-.7,1.6-1.6s-.7-1.6-1.6-1.6-1.6.7-1.6,1.6.7,1.6,1.6,1.6Z"/>
        <path class="st1" d="M5.3,82.1c.9,0,1.6-.7,1.6-1.6s-.7-1.6-1.6-1.6-1.6.7-1.6,1.6.7,1.6,1.6,1.6Z"/>
        <path class="st1" d="M9.7,82.1c.9,0,1.6-.7,1.6-1.6s-.7-1.6-1.6-1.6-1.6.7-1.6,1.6.7,1.6,1.6,1.6Z"/>
        <path class="st1" d="M18.6,82.1c.9,0,1.6-.7,1.6-1.6s-.7-1.6-1.6-1.6-1.6.7-1.6,1.6.7,1.6,1.6,1.6Z"/>
        <path class="st1" d="M23.1,82.1c.9,0,1.6-.7,1.6-1.6s-.7-1.6-1.6-1.6-1.6.7-1.6,1.6.7,1.6,1.6,1.6Z"/>
        <path class="st1" d="M27.5,82.1c.9,0,1.6-.7,1.6-1.6s-.7-1.6-1.6-1.6-1.6.7-1.6,1.6.7,1.6,1.6,1.6Z"/>
        <path class="st1" d="M40.9,82.1c.9,0,1.6-.7,1.6-1.6s-.7-1.6-1.6-1.6-1.6.7-1.6,1.6.7,1.6,1.6,1.6Z"/>
        <path class="st1" d="M45.3,82.1c.9,0,1.6-.7,1.6-1.6s-.7-1.6-1.6-1.6-1.6.7-1.6,1.6.7,1.6,1.6,1.6Z"/>
        <path class="st1" d="M58.7,82.1c.9,0,1.6-.7,1.6-1.6s-.7-1.6-1.6-1.6-1.6.7-1.6,1.6.7,1.6,1.6,1.6Z"/>
        <path class="st1" d="M63.1,82.1c.9,0,1.6-.7,1.6-1.6s-.7-1.6-1.6-1.6-1.6.7-1.6,1.6.7,1.6,1.6,1.6Z"/>
        <path class="st1" d="M67.6,82.1c.9,0,1.6-.7,1.6-1.6s-.7-1.6-1.6-1.6-1.6.7-1.6,1.6.7,1.6,1.6,1.6Z"/>
        <path class="st1" d="M107.6,82.1c.9,0,1.6-.7,1.6-1.6s-.7-1.6-1.6-1.6-1.6.7-1.6,1.6.7,1.6,1.6,1.6Z"/>
        <path class="st1" d="M116.5,82.1c.9,0,1.6-.7,1.6-1.6s-.7-1.6-1.6-1.6-1.6.7-1.6,1.6.7,1.6,1.6,1.6Z"/>
        <path class="st1" d="M129.9,82.1c.9,0,1.6-.7,1.6-1.6s-.7-1.6-1.6-1.6-1.6.7-1.6,1.6.7,1.6,1.6,1.6Z"/>
        <path class="st1" d="M5.3,86.6c.9,0,1.6-.7,1.6-1.6s-.7-1.6-1.6-1.6-1.6.7-1.6,1.6.7,1.6,1.6,1.6Z"/>
        <path class="st1" d="M9.7,86.6c.9,0,1.6-.7,1.6-1.6s-.7-1.6-1.6-1.6-1.6.7-1.6,1.6.7,1.6,1.6,1.6Z"/>
        <path class="st1" d="M14.2,86.6c.9,0,1.6-.7,1.6-1.6s-.7-1.6-1.6-1.6-1.6.7-1.6,1.6.7,1.6,1.6,1.6Z"/>
        <path class="st1" d="M23.1,86.6c.9,0,1.6-.7,1.6-1.6s-.7-1.6-1.6-1.6-1.6.7-1.6,1.6.7,1.6,1.6,1.6Z"/>
        <path class="st1" d="M32,86.6c.9,0,1.6-.7,1.6-1.6s-.7-1.6-1.6-1.6-1.6.7-1.6,1.6.7,1.6,1.6,1.6Z"/>
        <path class="st1" d="M40.9,86.6c.9,0,1.6-.7,1.6-1.6s-.7-1.6-1.6-1.6-1.6.7-1.6,1.6.7,1.6,1.6,1.6Z"/>
        <path class="st1" d="M45.3,86.6c.9,0,1.6-.7,1.6-1.6s-.7-1.6-1.6-1.6-1.6.7-1.6,1.6.7,1.6,1.6,1.6Z"/>
        <path class="st1" d="M72,86.6c.9,0,1.6-.7,1.6-1.6s-.7-1.6-1.6-1.6-1.6.7-1.6,1.6.7,1.6,1.6,1.6Z"/>
        <path class="st1" d="M76.5,86.6c.9,0,1.6-.7,1.6-1.6s-.7-1.6-1.6-1.6-1.6.7-1.6,1.6.7,1.6,1.6,1.6Z"/>
        <path class="st1" d="M85.4,86.6c.9,0,1.6-.7,1.6-1.6s-.7-1.6-1.6-1.6-1.6.7-1.6,1.6.7,1.6,1.6,1.6Z"/>
        <path class="st1" d="M89.8,86.6c.9,0,1.6-.7,1.6-1.6s-.7-1.6-1.6-1.6-1.6.7-1.6,1.6.7,1.6,1.6,1.6Z"/>
        <path class="st1" d="M94.3,86.6c.9,0,1.6-.7,1.6-1.6s-.7-1.6-1.6-1.6-1.6.7-1.6,1.6.7,1.6,1.6,1.6Z"/>
        <path class="st1" d="M103.2,86.6c.9,0,1.6-.7,1.6-1.6s-.7-1.6-1.6-1.6-1.6.7-1.6,1.6.7,1.6,1.6,1.6Z"/>
        <path class="st1" d="M107.6,86.6c.9,0,1.6-.7,1.6-1.6s-.7-1.6-1.6-1.6-1.6.7-1.6,1.6.7,1.6,1.6,1.6Z"/>
        <path class="st1" d="M5.3,91c.9,0,1.6-.7,1.6-1.6s-.7-1.6-1.6-1.6-1.6.7-1.6,1.6.7,1.6,1.6,1.6Z"/>
        <path class="st1" d="M18.6,91c.9,0,1.6-.7,1.6-1.6s-.7-1.6-1.6-1.6-1.6.7-1.6,1.6.7,1.6,1.6,1.6Z"/>
        <path class="st1" d="M23.1,91c.9,0,1.6-.7,1.6-1.6s-.7-1.6-1.6-1.6-1.6.7-1.6,1.6.7,1.6,1.6,1.6Z"/>
        <path class="st1" d="M36.4,91c.9,0,1.6-.7,1.6-1.6s-.7-1.6-1.6-1.6-1.6.7-1.6,1.6.7,1.6,1.6,1.6Z"/>
        <path class="st1" d="M49.8,91c.9,0,1.6-.7,1.6-1.6s-.7-1.6-1.6-1.6-1.6.7-1.6,1.6.7,1.6,1.6,1.6Z"/>
        <path class="st1" d="M58.7,91c.9,0,1.6-.7,1.6-1.6s-.7-1.6-1.6-1.6-1.6.7-1.6,1.6.7,1.6,1.6,1.6Z"/>
        <path class="st1" d="M63.1,91c.9,0,1.6-.7,1.6-1.6s-.7-1.6-1.6-1.6-1.6.7-1.6,1.6.7,1.6,1.6,1.6Z"/>
        <path class="st1" d="M89.8,91c.9,0,1.6-.7,1.6-1.6s-.7-1.6-1.6-1.6-1.6.7-1.6,1.6.7,1.6,1.6,1.6Z"/>
        <path class="st1" d="M94.3,91c.9,0,1.6-.7,1.6-1.6s-.7-1.6-1.6-1.6-1.6.7-1.6,1.6.7,1.6,1.6,1.6Z"/>
        <path class="st1" d="M103.2,91c.9,0,1.6-.7,1.6-1.6s-.7-1.6-1.6-1.6-1.6.7-1.6,1.6.7,1.6,1.6,1.6Z"/>
        <path class="st1" d="M107.6,91c.9,0,1.6-.7,1.6-1.6s-.7-1.6-1.6-1.6-1.6.7-1.6,1.6.7,1.6,1.6,1.6Z"/>
        <path class="st1" d="M112.1,91c.9,0,1.6-.7,1.6-1.6s-.7-1.6-1.6-1.6-1.6.7-1.6,1.6.7,1.6,1.6,1.6Z"/>
        <path class="st1" d="M125.4,91c.9,0,1.6-.7,1.6-1.6s-.7-1.6-1.6-1.6-1.6.7-1.6,1.6.7,1.6,1.6,1.6Z"/>
        <path class="st1" d="M5.3,95.5c.9,0,1.6-.7,1.6-1.6s-.7-1.6-1.6-1.6-1.6.7-1.6,1.6.7,1.6,1.6,1.6Z"/>
        <path class="st1" d="M14.2,95.5c.9,0,1.6-.7,1.6-1.6s-.7-1.6-1.6-1.6-1.6.7-1.6,1.6.7,1.6,1.6,1.6Z"/>
        <path class="st1" d="M32,95.5c.9,0,1.6-.7,1.6-1.6s-.7-1.6-1.6-1.6-1.6.7-1.6,1.6.7,1.6,1.6,1.6Z"/>
        <path class="st1" d="M36.4,95.5c.9,0,1.6-.7,1.6-1.6s-.7-1.6-1.6-1.6-1.6.7-1.6,1.6.7,1.6,1.6,1.6Z"/>
        <path class="st1" d="M40.9,95.5c.9,0,1.6-.7,1.6-1.6s-.7-1.6-1.6-1.6-1.6.7-1.6,1.6.7,1.6,1.6,1.6Z"/>
        <path class="st1" d="M49.8,95.5c.9,0,1.6-.7,1.6-1.6s-.7-1.6-1.6-1.6-1.6.7-1.6,1.6.7,1.6,1.6,1.6Z"/>
        <path class="st1" d="M67.6,95.5c.9,0,1.6-.7,1.6-1.6s-.7-1.6-1.6-1.6-1.6.7-1.6,1.6.7,1.6,1.6,1.6Z"/>
        <path class="st1" d="M72,95.5c.9,0,1.6-.7,1.6-1.6s-.7-1.6-1.6-1.6-1.6.7-1.6,1.6.7,1.6,1.6,1.6Z"/>
        <path class="st1" d="M76.5,95.5c.9,0,1.6-.7,1.6-1.6s-.7-1.6-1.6-1.6-1.6.7-1.6,1.6.7,1.6,1.6,1.6Z"/>
        <path class="st1" d="M85.4,95.5c.9,0,1.6-.7,1.6-1.6s-.7-1.6-1.6-1.6-1.6.7-1.6,1.6.7,1.6,1.6,1.6Z"/>
        <path class="st1" d="M94.3,95.5c.9,0,1.6-.7,1.6-1.6s-.7-1.6-1.6-1.6-1.6.7-1.6,1.6.7,1.6,1.6,1.6Z"/>
        <path class="st1" d="M98.7,95.5c.9,0,1.6-.7,1.6-1.6s-.7-1.6-1.6-1.6-1.6.7-1.6,1.6.7,1.6,1.6,1.6Z"/>
        <path class="st1" d="M103.2,95.5c.9,0,1.6-.7,1.6-1.6s-.7-1.6-1.6-1.6-1.6.7-1.6,1.6.7,1.6,1.6,1.6Z"/>
        <path class="st1" d="M107.6,95.5c.9,0,1.6-.7,1.6-1.6s-.7-1.6-1.6-1.6-1.6.7-1.6,1.6.7,1.6,1.6,1.6Z"/>
        <path class="st1" d="M112.1,95.5c.9,0,1.6-.7,1.6-1.6s-.7-1.6-1.6-1.6-1.6.7-1.6,1.6.7,1.6,1.6,1.6Z"/>
        <path class="st1" d="M116.5,95.5c.9,0,1.6-.7,1.6-1.6s-.7-1.6-1.6-1.6-1.6.7-1.6,1.6.7,1.6,1.6,1.6Z"/>
        <path class="st1" d="M121,95.5c.9,0,1.6-.7,1.6-1.6s-.7-1.6-1.6-1.6-1.6.7-1.6,1.6.7,1.6,1.6,1.6Z"/>
        <path class="st1" d="M125.4,95.5c.9,0,1.6-.7,1.6-1.6s-.7-1.6-1.6-1.6-1.6.7-1.6,1.6.7,1.6,1.6,1.6Z"/>
        <path class="st1" d="M40.9,99.9c.9,0,1.6-.7,1.6-1.6s-.7-1.6-1.6-1.6-1.6.7-1.6,1.6.7,1.6,1.6,1.6Z"/>
        <path class="st1" d="M67.6,99.9c.9,0,1.6-.7,1.6-1.6s-.7-1.6-1.6-1.6-1.6.7-1.6,1.6.7,1.6,1.6,1.6Z"/>
        <path class="st1" d="M76.5,99.9c.9,0,1.6-.7,1.6-1.6s-.7-1.6-1.6-1.6-1.6.7-1.6,1.6.7,1.6,1.6,1.6Z"/>
        <path class="st1" d="M94.3,99.9c.9,0,1.6-.7,1.6-1.6s-.7-1.6-1.6-1.6-1.6.7-1.6,1.6.7,1.6,1.6,1.6Z"/>
        <path class="st1" d="M112.1,99.9c.9,0,1.6-.7,1.6-1.6s-.7-1.6-1.6-1.6-1.6.7-1.6,1.6.7,1.6,1.6,1.6Z"/>
        <path class="st1" d="M121,99.9c.9,0,1.6-.7,1.6-1.6s-.7-1.6-1.6-1.6-1.6.7-1.6,1.6.7,1.6,1.6,1.6Z"/>
        <path class="st1" d="M129.9,99.9c.9,0,1.6-.7,1.6-1.6s-.7-1.6-1.6-1.6-1.6.7-1.6,1.6.7,1.6,1.6,1.6Z"/>
        <path class="st1" d="M72,6.5c.9,0,1.6-.7,1.6-1.6s-.7-1.6-1.6-1.6-1.6.7-1.6,1.6.7,1.6,1.6,1.6Z"/>
        <path class="st1" d="M58.7,104.4c.9,0,1.6-.7,1.6-1.6s-.7-1.6-1.6-1.6-1.6.7-1.6,1.6.7,1.6,1.6,1.6Z"/>
        <path class="st1" d="M72,104.4c.9,0,1.6-.7,1.6-1.6s-.7-1.6-1.6-1.6-1.6.7-1.6,1.6.7,1.6,1.6,1.6Z"/>
        <path class="st1" d="M89.8,104.4c.9,0,1.6-.7,1.6-1.6s-.7-1.6-1.6-1.6-1.6.7-1.6,1.6.7,1.6,1.6,1.6Z"/>
        <path class="st1" d="M94.3,104.4c.9,0,1.6-.7,1.6-1.6s-.7-1.6-1.6-1.6-1.6.7-1.6,1.6.7,1.6,1.6,1.6Z"/>
        <path class="st1" d="M103.2,104.4c.9,0,1.6-.7,1.6-1.6s-.7-1.6-1.6-1.6-1.6.7-1.6,1.6.7,1.6,1.6,1.6Z"/>
        <path class="st1" d="M112.1,104.4c.9,0,1.6-.7,1.6-1.6s-.7-1.6-1.6-1.6-1.6.7-1.6,1.6.7,1.6,1.6,1.6Z"/>
        <path class="st1" d="M116.5,104.4c.9,0,1.6-.7,1.6-1.6s-.7-1.6-1.6-1.6-1.6.7-1.6,1.6.7,1.6,1.6,1.6Z"/>
        <path class="st1" d="M121,104.4c.9,0,1.6-.7,1.6-1.6s-.7-1.6-1.6-1.6-1.6.7-1.6,1.6.7,1.6,1.6,1.6Z"/>
        <path class="st1" d="M58.7,6.5c.9,0,1.6-.7,1.6-1.6s-.7-1.6-1.6-1.6-1.6.7-1.6,1.6.7,1.6,1.6,1.6Z"/>
        <path class="st1" d="M45.3,108.8c.9,0,1.6-.7,1.6-1.6s-.7-1.6-1.6-1.6-1.6.7-1.6,1.6.7,1.6,1.6,1.6Z"/>
        <path class="st1" d="M58.7,108.8c.9,0,1.6-.7,1.6-1.6s-.7-1.6-1.6-1.6-1.6.7-1.6,1.6.7,1.6,1.6,1.6Z"/>
        <path class="st1" d="M67.6,108.8c.9,0,1.6-.7,1.6-1.6s-.7-1.6-1.6-1.6-1.6.7-1.6,1.6.7,1.6,1.6,1.6Z"/>
        <path class="st1" d="M76.5,108.8c.9,0,1.6-.7,1.6-1.6s-.7-1.6-1.6-1.6-1.6.7-1.6,1.6.7,1.6,1.6,1.6Z"/>
        <path class="st1" d="M80.9,108.8c.9,0,1.6-.7,1.6-1.6s-.7-1.6-1.6-1.6-1.6.7-1.6,1.6.7,1.6,1.6,1.6Z"/>
        <path class="st1" d="M89.8,108.8c.9,0,1.6-.7,1.6-1.6s-.7-1.6-1.6-1.6-1.6.7-1.6,1.6.7,1.6,1.6,1.6Z"/>
        <path class="st1" d="M94.3,108.8c.9,0,1.6-.7,1.6-1.6s-.7-1.6-1.6-1.6-1.6.7-1.6,1.6.7,1.6,1.6,1.6Z"/>
        <path class="st1" d="M112.1,108.8c.9,0,1.6-.7,1.6-1.6s-.7-1.6-1.6-1.6-1.6.7-1.6,1.6.7,1.6,1.6,1.6Z"/>
        <path class="st1" d="M121,108.8c.9,0,1.6-.7,1.6-1.6s-.7-1.6-1.6-1.6-1.6.7-1.6,1.6.7,1.6,1.6,1.6Z"/>
        <path class="st1" d="M129.9,108.8c.9,0,1.6-.7,1.6-1.6s-.7-1.6-1.6-1.6-1.6.7-1.6,1.6.7,1.6,1.6,1.6Z"/>
        <path class="st1" d="M54.2,6.5c.9,0,1.6-.7,1.6-1.6s-.7-1.6-1.6-1.6-1.6.7-1.6,1.6.7,1.6,1.6,1.6Z"/>
        <path class="st1" d="M49.8,113.3c.9,0,1.6-.7,1.6-1.6s-.7-1.6-1.6-1.6-1.6.7-1.6,1.6.7,1.6,1.6,1.6Z"/>
        <path class="st1" d="M54.2,113.3c.9,0,1.6-.7,1.6-1.6s-.7-1.6-1.6-1.6-1.6.7-1.6,1.6.7,1.6,1.6,1.6Z"/>
        <path class="st1" d="M63.1,113.3c.9,0,1.6-.7,1.6-1.6s-.7-1.6-1.6-1.6-1.6.7-1.6,1.6.7,1.6,1.6,1.6Z"/>
        <path class="st1" d="M67.6,113.3c.9,0,1.6-.7,1.6-1.6s-.7-1.6-1.6-1.6-1.6.7-1.6,1.6.7,1.6,1.6,1.6Z"/>
        <path class="st1" d="M72,113.3c.9,0,1.6-.7,1.6-1.6s-.7-1.6-1.6-1.6-1.6.7-1.6,1.6.7,1.6,1.6,1.6Z"/>
        <path class="st1" d="M76.5,113.3c.9,0,1.6-.7,1.6-1.6s-.7-1.6-1.6-1.6-1.6.7-1.6,1.6.7,1.6,1.6,1.6Z"/>
        <path class="st1" d="M85.4,113.3c.9,0,1.6-.7,1.6-1.6s-.7-1.6-1.6-1.6-1.6.7-1.6,1.6.7,1.6,1.6,1.6Z"/>
        <path class="st1" d="M94.3,113.3c.9,0,1.6-.7,1.6-1.6s-.7-1.6-1.6-1.6-1.6.7-1.6,1.6.7,1.6,1.6,1.6Z"/>
        <path class="st1" d="M98.7,113.3c.9,0,1.6-.7,1.6-1.6s-.7-1.6-1.6-1.6-1.6.7-1.6,1.6.7,1.6,1.6,1.6Z"/>
        <path class="st1" d="M103.2,113.3c.9,0,1.6-.7,1.6-1.6s-.7-1.6-1.6-1.6-1.6.7-1.6,1.6.7,1.6,1.6,1.6Z"/>
        <path class="st1" d="M107.6,113.3c.9,0,1.6-.7,1.6-1.6s-.7-1.6-1.6-1.6-1.6.7-1.6,1.6.7,1.6,1.6,1.6Z"/>
        <path class="st1" d="M112.1,113.3c.9,0,1.6-.7,1.6-1.6s-.7-1.6-1.6-1.6-1.6.7-1.6,1.6.7,1.6,1.6,1.6Z"/>
        <path class="st1" d="M116.5,113.3c.9,0,1.6-.7,1.6-1.6s-.7-1.6-1.6-1.6-1.6.7-1.6,1.6.7,1.6,1.6,1.6Z"/>
        <path class="st1" d="M125.4,113.3c.9,0,1.6-.7,1.6-1.6s-.7-1.6-1.6-1.6-1.6.7-1.6,1.6.7,1.6,1.6,1.6Z"/>
        <path class="st1" d="M45.3,117.7c.9,0,1.6-.7,1.6-1.6s-.7-1.6-1.6-1.6-1.6.7-1.6,1.6.7,1.6,1.6,1.6Z"/>
        <path class="st1" d="M54.2,117.7c.9,0,1.6-.7,1.6-1.6s-.7-1.6-1.6-1.6-1.6.7-1.6,1.6.7,1.6,1.6,1.6Z"/>
        <path class="st1" d="M67.6,117.7c.9,0,1.6-.7,1.6-1.6s-.7-1.6-1.6-1.6-1.6.7-1.6,1.6.7,1.6,1.6,1.6Z"/>
        <path class="st1" d="M72,117.7c.9,0,1.6-.7,1.6-1.6s-.7-1.6-1.6-1.6-1.6.7-1.6,1.6.7,1.6,1.6,1.6Z"/>
        <path class="st1" d="M85.4,117.7c.9,0,1.6-.7,1.6-1.6s-.7-1.6-1.6-1.6-1.6.7-1.6,1.6.7,1.6,1.6,1.6Z"/>
        <path class="st1" d="M94.3,117.7c.9,0,1.6-.7,1.6-1.6s-.7-1.6-1.6-1.6-1.6.7-1.6,1.6.7,1.6,1.6,1.6Z"/>
        <path class="st1" d="M98.7,117.7c.9,0,1.6-.7,1.6-1.6s-.7-1.6-1.6-1.6-1.6.7-1.6,1.6.7,1.6,1.6,1.6Z"/>
        <path class="st1" d="M107.6,117.7c.9,0,1.6-.7,1.6-1.6s-.7-1.6-1.6-1.6-1.6.7-1.6,1.6.7,1.6,1.6,1.6Z"/>
        <path class="st1" d="M125.4,117.7c.9,0,1.6-.7,1.6-1.6s-.7-1.6-1.6-1.6-1.6.7-1.6,1.6.7,1.6,1.6,1.6Z"/>
        <path class="st1" d="M54.2,122.2c.9,0,1.6-.7,1.6-1.6s-.7-1.6-1.6-1.6-1.6.7-1.6,1.6.7,1.6,1.6,1.6Z"/>
        <path class="st1" d="M63.1,122.2c.9,0,1.6-.7,1.6-1.6s-.7-1.6-1.6-1.6-1.6.7-1.6,1.6.7,1.6,1.6,1.6Z"/>
        <path class="st1" d="M72,122.2c.9,0,1.6-.7,1.6-1.6s-.7-1.6-1.6-1.6-1.6.7-1.6,1.6.7,1.6,1.6,1.6Z"/>
        <path class="st1" d="M89.8,122.2c.9,0,1.6-.7,1.6-1.6s-.7-1.6-1.6-1.6-1.6.7-1.6,1.6.7,1.6,1.6,1.6Z"/>
        <path class="st1" d="M107.6,122.2c.9,0,1.6-.7,1.6-1.6s-.7-1.6-1.6-1.6-1.6.7-1.6,1.6.7,1.6,1.6,1.6Z"/>
        <path class="st1" d="M121,122.2c.9,0,1.6-.7,1.6-1.6s-.7-1.6-1.6-1.6-1.6.7-1.6,1.6.7,1.6,1.6,1.6Z"/>
        <path class="st1" d="M125.4,122.2c.9,0,1.6-.7,1.6-1.6s-.7-1.6-1.6-1.6-1.6.7-1.6,1.6.7,1.6,1.6,1.6Z"/>
        <path class="st1" d="M49.8,126.6c.9,0,1.6-.7,1.6-1.6s-.7-1.6-1.6-1.6-1.6.7-1.6,1.6.7,1.6,1.6,1.6Z"/>
        <path class="st1" d="M54.2,126.6c.9,0,1.6-.7,1.6-1.6s-.7-1.6-1.6-1.6-1.6.7-1.6,1.6.7,1.6,1.6,1.6Z"/>
        <path class="st1" d="M63.1,126.6c.9,0,1.6-.7,1.6-1.6s-.7-1.6-1.6-1.6-1.6.7-1.6,1.6.7,1.6,1.6,1.6Z"/>
        <path class="st1" d="M80.9,126.6c.9,0,1.6-.7,1.6-1.6s-.7-1.6-1.6-1.6-1.6.7-1.6,1.6.7,1.6,1.6,1.6Z"/>
        <path class="st1" d="M85.4,126.6c.9,0,1.6-.7,1.6-1.6s-.7-1.6-1.6-1.6-1.6.7-1.6,1.6.7,1.6,1.6,1.6Z"/>
        <path class="st1" d="M103.2,126.6c.9,0,1.6-.7,1.6-1.6s-.7-1.6-1.6-1.6-1.6.7-1.6,1.6.7,1.6,1.6,1.6Z"/>
        <path class="st1" d="M116.5,126.6c.9,0,1.6-.7,1.6-1.6s-.7-1.6-1.6-1.6-1.6.7-1.6,1.6.7,1.6,1.6,1.6Z"/>
        <path class="st1" d="M125.4,126.6c.9,0,1.6-.7,1.6-1.6s-.7-1.6-1.6-1.6-1.6.7-1.6,1.6.7,1.6,1.6,1.6Z"/>
        <path class="st1" d="M40.9,131.1c.9,0,1.6-.7,1.6-1.6s-.7-1.6-1.6-1.6-1.6.7-1.6,1.6.7,1.6,1.6,1.6Z"/>
        <path class="st1" d="M49.8,131.1c.9,0,1.6-.7,1.6-1.6s-.7-1.6-1.6-1.6-1.6.7-1.6,1.6.7,1.6,1.6,1.6Z"/>
        <path class="st1" d="M67.6,131.1c.9,0,1.6-.7,1.6-1.6s-.7-1.6-1.6-1.6-1.6.7-1.6,1.6.7,1.6,1.6,1.6Z"/>
        <path class="st1" d="M72,131.1c.9,0,1.6-.7,1.6-1.6s-.7-1.6-1.6-1.6-1.6.7-1.6,1.6.7,1.6,1.6,1.6Z"/>
        <path class="st1" d="M80.9,131.1c.9,0,1.6-.7,1.6-1.6s-.7-1.6-1.6-1.6-1.6.7-1.6,1.6.7,1.6,1.6,1.6Z"/>
        <path class="st1" d="M89.8,131.1c.9,0,1.6-.7,1.6-1.6s-.7-1.6-1.6-1.6-1.6.7-1.6,1.6.7,1.6,1.6,1.6Z"/>
        <path class="st1" d="M94.3,131.1c.9,0,1.6-.7,1.6-1.6s-.7-1.6-1.6-1.6-1.6.7-1.6,1.6.7,1.6,1.6,1.6Z"/>
        <path class="st1" d="M98.7,131.1c.9,0,1.6-.7,1.6-1.6s-.7-1.6-1.6-1.6-1.6.7-1.6,1.6.7,1.6,1.6,1.6Z"/>
        <path class="st1" d="M103.2,131.1c.9,0,1.6-.7,1.6-1.6s-.7-1.6-1.6-1.6-1.6.7-1.6,1.6.7,1.6,1.6,1.6Z"/>
        <path class="st1" d="M112.1,131.1c.9,0,1.6-.7,1.6-1.6s-.7-1.6-1.6-1.6-1.6.7-1.6,1.6.7,1.6,1.6,1.6Z"/>
        <path class="st1" d="M116.5,131.1c.9,0,1.6-.7,1.6-1.6s-.7-1.6-1.6-1.6-1.6.7-1.6,1.6.7,1.6,1.6,1.6Z"/>
        <path class="st1" d="M121,131.1c.9,0,1.6-.7,1.6-1.6s-.7-1.6-1.6-1.6-1.6.7-1.6,1.6.7,1.6,1.6,1.6Z"/>
        <path class="st2" d="M30.4,18.8c0,6.1-5,11.1-11.1,11.1s-11.1-5-11.1-11.1,5-11.1,11.1-11.1,11.1,5,11.1,11.1ZM25.9,18.8c0-3.7-3-6.7-6.7-6.7s-6.7,3-6.7,6.7,3,6.7,6.7,6.7,6.7-3,6.7-6.7Z"/>
        <path class="st2" d="M30.4,116.7c0,6.2-5,11.1-11.1,11.1s-11.1-5-11.1-11.1,5-11.1,11.1-11.1,11.1,5,11.1,11.1ZM25.9,116.7c0-3.7-3-6.7-6.7-6.7s-6.7,3-6.7,6.7,3,6.7,6.7,6.7,6.7-3,6.7-6.7Z"/>
        <path class="st2" d="M128.2,18.8c0,6.1-5,11.1-11.1,11.1s-11.1-5-11.1-11.1,5-11.1,11.1-11.1,11.1,5,11.1,11.1ZM123.8,18.8c0-3.7-3-6.7-6.7-6.7s-6.7,3-6.7,6.7,3,6.7,6.7,6.7,6.7-3,6.7-6.7Z"/>
        <path class="st1" d="M19.2,25.5c3.7,0,6.7-3,6.7-6.7s-3-6.7-6.7-6.7-6.7,3-6.7,6.7,3,6.7,6.7,6.7Z"/>
        <path class="st1" d="M19.2,123.4c3.7,0,6.7-3,6.7-6.7s-3-6.7-6.7-6.7-6.7,3-6.7,6.7,3,6.7,6.7,6.7Z"/>
        <path class="st1" d="M117.1,25.5c3.7,0,6.7-3,6.7-6.7s-3-6.7-6.7-6.7-6.7,3-6.7,6.7,3,6.7,6.7,6.7Z"/>
      </g>
    </g>
  </g>
  <path class="st3" d="M68,57.8c-4,0-6.9,2.8-6.9,6.7v11.6h3.4v-7c.9,1.3,2.4,2.1,4.4,2.1,3.4,0,6-2.7,6-6.5s-2.9-6.8-6.9-6.8ZM68,68.5c-2.1,0-3.6-1.6-3.6-4s1.5-4,3.6-4,3.5,1.6,3.5,4-1.5,4-3.5,4Z"/>
</svg>