<?xml version="1.0" encoding="UTF-8"?>
<svg id="Layer_2" data-name="Layer 2" xmlns="http://www.w3.org/2000/svg" viewBox="0 0 1093.17 1035.16">
  <defs>
    <style>
      .cls-1 {
        fill: #fff;
      }

      .cls-2 {
        fill: #febb08;
      }
    </style>
  </defs>
  <g id="Layer_1-2" data-name="Layer 1">
    <g>
      <path class="cls-2" d="M764.66,240.91c-7.58,5.72-15.15,11.42-22.74,17.13.89-3.47,1.76-6.95,2.62-10.43.77-3.13-3.28-4.5-5.44-3.07-5.84,3.86-11.68,7.71-17.53,11.55.39-2.2.78-4.4,1.16-6.61.56-3.12-3.13-4.49-5.39-3.05-7.69,4.89-14.92,10.41-21.48,16.75-5.23,5.04-10.42,10.55-12.27,17.79-3.34,13.07,3.7,24.9,14.33,31.59,3.68,5.89,10.46,8.48,17.45,7.68,9.35-1.06,16.4-8.28,21.91-15.31,14.08-17.99,23.63-39.3,32.47-60.21,1.31-3.07-2.54-5.75-5.09-3.82M728.54,282.6c-.26,3.6.06,8.07-.83,11.58-1.18,4.59-4.66,4.68-8.74,5.25-2.88.4-7.38,1.44-10.15.41-5.65-2.11-2.54-17.36-1.83-22.46,6.28.22,12.54.21,18.79.9.32.02,2.81.54,3.22.15.07,1.09-.42,3.59-.46,4.17Z"/>
      <path d="M797.87,395.15c-3.23-9.3-13.86-17.33-23.75-12.53-3.35,1.63-2.23,7.26,1.78,6.56,8.87-1.54,14.6,4.58,15.6,13.08.99,8.46-2.63,16.33-5.01,24.24-.87,2.86,3.2,5.8,4.97,2.78,5.98-10.19,10.47-22.41,6.41-34.13"/>
      <path d="M825.54,389.06c-.62-2.67-2.52-5.66-5.56-5.79-1.28-.05-2.3.55-2.85,1.43-.04.06-.07.11-.1.17-.07.13-.13.26-.18.4-.01.03-.03.06-.04.1-.02.05-.02.09-.04.14-.01.05-.02.09-.03.14-1.02,3.77-.43,7.57,1.97,10.73,1.32,1.75,4.01,1.64,5.3-.07,1.57-2.05,2.12-4.73,1.53-7.24"/>
      <path d="M837.79,353.46c-13.81-1.81-28.18,8.57-34,20.54-1.82,3.74,3.91,6.81,6.3,3.52,3.54-4.87,7.42-9.24,12.66-12.32,4.99-2.94,10.37-4.2,15.84-5.87,3.05-.93,2.03-5.49-.8-5.86"/>
      <path d="M899.29,393.42c-6.84-2.82-13.99-4.49-20.61-7.92-7.06-3.65-13.56-8.51-19.22-14.08-11.47-11.28-18.21-24.98-22.27-40.38-1.22-4.62-8.12-3.99-7.55,1.02,1.92,16.96,11.44,33.23,23.32,45.17,11.04,11.11,28.31,23.02,44.59,23.01,3.81,0,5.76-5.17,1.74-6.83"/>
      <path d="M831.06,328.01c-20.18,3.02-38.61,15.35-49.55,32.58-10.91,17.18-16.88,43.87-7.75,63.1,1.74,3.67,7.62,2.35,7.02-1.9-1.36-9.77-3.4-18.56-2.23-28.55,1.17-10.08,4.56-19.95,10.12-28.46,9.99-15.26,25.75-25.51,43.31-30.01,4.14-1.06,3.54-7.43-.92-6.77"/>
      <path d="M884.56,448.31c-5.88,11.98-14.43,22.7-25.22,30.6-5.86,4.29-12.54,8.08-19.64,9.81-8.39,2.05-15.79-.36-22.8-5.08-22.04-14.87-35.43-40.7-37.11-66.99-.22-3.44-6.02-3.47-6.09.04-.66,30.7,15.46,62.38,42.99,77.28,30,16.23,64.04-16.9,74.37-43.07,1.67-4.23-4.54-6.59-6.5-2.59"/>
      <path d="M830.86,418.85c-6.14,1.23-11.67,6.23-16.48,9.92-6.01,4.61-11.78,9.6-17.04,15.04-1.68,1.73-.49,4.12,1.33,5.08.22,3.42,2.41,6.79,5.2,8.85,4.62,3.41,10.91,3.31,16.21,1.88,10.79-2.91,20-11.29,23.66-21.91,3.34-9.66-.72-21.3-12.88-18.86M837.61,433.96c-1.75,6.25-6.13,11.72-11.53,15.24-2.78,1.8-6.08,3.25-9.37,3.74-6.31.93-9.74-1.45-11-7.46,4.85-4.24,9.69-8.46,14.81-12.39,2.79-2.14,5.72-4.74,8.89-6.28,2.99-1.45,7.04-2.58,8.75,1.95.55,1.48-.16,3.8-.55,5.21Z"/>
      <path d="M820.36,454.57c-.94-3.07-2.95-5.86-4.56-8.61-1.59-2.7-3.25-5.34-4.89-8.01-1.71-2.77-6.55.02-4.99,2.92,1.54,2.86,3.07,5.74,4.67,8.57,1.52,2.67,2.89,5.67,4.99,7.92,2.19,2.34,5.7.26,4.78-2.79"/>
      <path d="M828.86,442.35c-2.38-4.73-5.11-9.26-8.02-13.68-1.84-2.81-6.87.07-5.16,3.01,2.68,4.58,5.47,9.06,8.65,13.31,1.75,2.34,5.89.06,4.53-2.65"/>
      <path d="M789.82,407.81c-.18-.47-.37-.94-.62-1.39-.28-3.47-5.63-3.89-6.27-.11-.45,2.69-.15,5.32.86,7.84.4,1,1.23,1.61,2.16,1.85.72.65,1.54,1.21,2.46,1.65,1.49.71,3.78-.21,4.25-1.83.86-2.95-.1-6.75-2.84-8.01"/>
      <path d="M1051.06,602.63c11.51,12.98,17.68,30.13,15.92,47.72-1.72,17.12-11.49,33-25.42,42.97-7.11,5.09-15.11,8.51-23.67,10.26-11.2,2.29-20.79,2.95-28.27,12.63-5.76,7.46-10.42,15.27-18.42,20.64-7.38,4.96-16.1,8.03-25.01,8.41-11.12.48-21.64-2.99-30.19-9.34-2.25-1.67-4.35-3.55-6.29-5.6.01-.04.03-.06.04-.1,1.15-2.82,2.13-5.8,3.55-8.51.15.17.28.34.44.5,1.67,1.91,3.48,3.67,5.43,5.24.18.15.37.29.56.44,10.83,8.47,25.23,11.45,38.88,6.01,8.27-3.29,14.29-8.97,19.42-16.12,4.23-5.93,8.33-12.12,14.7-15.98,7.02-4.27,15.12-5.03,23.02-6.59,7.67-1.52,14.85-4.62,21.15-9.27,26.77-19.76,28.97-60.33,3.34-82.18-2.89-2.47-1.79-6.92,1.98-7.67,25.45-5.07,39.49-29.57,41.98-53.76,2.36-23.06-2.38-51.67-20.45-67.88-8.35-7.49-18.74-11.97-28.52-17.22-8.07-4.32-15.52-9.31-22.2-15.55-.33-.32-.67-.63-.99-.94-2.26-2.18-4.42-4.45-6.48-6.8-10.43-11.82-18.53-25.48-26.53-39.06-9.91-16.84-19.89-34.22-34.18-47.78-14.56-13.81-32.66-23.72-51.98-28.97-39.47-10.73-81.19.5-110.97,28.22-14.64,13.62-25.93,31.02-31.92,50.13-6.56,20.91-4.67,48.06,17.68,58.59,4.07,1.92,1.66,8.13-2.6,6.53-25.25-9.51-30.43-39.54-24.43-62.94,6.1-23.81,20.3-45.25,38.66-61.42,32.98-29.03,78.25-38.62,120.25-26.03,21.18,6.35,40.63,18.19,55.84,34.26,15.24,16.1,25.44,36.09,36.84,54.91,4.55,7.49,9.33,14.81,14.68,21.6,2.36,3.01,4.84,5.92,7.45,8.7,6.36,6.75,13.54,12.73,21.91,17.5,10.4,5.92,21.72,10.54,30.95,18.32,8.3,7.01,14.51,16.12,18.62,26.14,15.3,37.26,8.03,96.18-34.77,110.01"/>
      <path d="M766.23,455.39c-5.31,17.1-19.57,29.05-26.66,45.25-5.03,11.49-6.03,30.53,6.3,38.14,3.27,2.01,7.55-1.72,4.92-5.04-4.43-5.62-7.24-10.63-6.97-18.05.29-7.87,3.94-15.28,8.11-21.78,7.72-12.06,17.24-22.63,20.64-36.89.87-3.62-5.23-5.2-6.34-1.62"/>
      <path d="M861.37,489.34c-1.9-2.8-6.61-.69-6.05,2.55,1.19,6.84,4.04,13.28,5.12,20.21.52,3.29,1.09,6.72.76,10.05-.51,5.17-3.39,6.87-7.92,8.12-2.64.73-2.4,4.99.04,5.8,9.15,3.04,15.05-7.13,15.47-14.96.55-9.95-1.76-23.41-7.42-31.77"/>
      <path d="M893.33,543.26c.28.34.49.68.63,1.03-.15.39-.32.76-.49,1.15-.47,1.09-.94,2.17-1.44,3.24-1.15.62-2.55.66-3.77-.22-1.44-1.04-2.74-2.15-3.9-3.34-.18-.17-.36-.36-.53-.56-15.37-16.46-5.37-44.84-.15-63.5,2.22-7.94,3.89-16.07,3.4-24.34-.4-6.89-1.91-13.66-3.37-20.38-2.88-13.21-6.06-26.73-2.09-40.06,1.11-3.73,6.81-1.98,6.38,1.65-3.03,26.14,11.38,50.52,5.94,76.75-4.17,20.15-15.17,41.73-5.83,60.74,1.32,2.67,3.03,5.29,5.22,7.84"/>
      <path d="M912.2,433.1c-1.27-12.19-5.1-25.14-8.85-36.81-1.09-3.39-6.59-1.84-5.99,1.62,2.09,12.06,4.75,25.3,9.28,36.69,1.24,3.11,5.9,1.73,5.56-1.5"/>
      <path d="M905.24,401.39c-2.91-12.05-9.71-25.62-18.16-34.76-1.86-2.01-5.89-.2-4.46,2.6,2.84,5.59,6.29,10.84,9.12,16.45,2.84,5.64,5,11.57,7.7,17.27,1.38,2.93,6.64,1.93,5.8-1.57"/>
      <path d="M916.96,375.83c-4.06-5.3-11.6-8.06-17.76-4.75-5.89,3.16-7.03,9.95-3.81,15.35,1.72,2.87,6.3.04,5.02-2.93-2.97-6.88,6.37-8.1,10.19-4.27,2.9,2.91,3.85,7.39,3.71,11.38-.28,8.01-4.73,12.85-10.26,17.97-2.33,2.17-.28,6.33,2.93,5.02,13.51-5.5,18.72-26.33,9.98-37.77"/>
      <path d="M893.47,545.43c-.47,1.09-.94,2.17-1.44,3.24-2.93,3.19-7.01,5.48-11.39,7.15-.08-.58.01-1.23.29-1.92,1.15-2.93,2.29-5.86,3.43-8.78.12-.33.26-.66.39-.99,1.26-.6,2.53-1.14,3.86-1.51,2.13-.59,4.55.86,4.86,2.82"/>
      <path d="M945.43,256.65c-3.21-2.53-6.05-5.31-8.68-8.3-2-42.05-7.93-83.68-16.73-125.03-1-4.72,6.18-5.52,7.32-.99,8.11,31.98,13,64.91,15.88,97.75,1.06,12.16,1.8,24.36,2.21,36.57"/>
      <path d="M949.44,65.42c-14.41-8.62-32.87-11.11-49.16-7.26-12.96,3.07-34.39,13.49-34.04,29.48.24,10.84,14.71,15.55,22.52,20.1,11.07,6.43,22,13.19,33.37,19.08,3.72,1.93,7.06-4.11,3.58-6.43-9.06-6.03-18.59-11.42-27.94-16.98-4.68-2.79-9.35-5.61-14.02-8.42-5.06-3.04-11.06-5.56-7.21-12.27,8.46-14.74,30.18-19.25,45.64-17.69,8.63.87,17.42,3.43,24.64,8.38,6.34,4.34,13.31,11.97,11.62,20.37-2.29,11.44-17.54,1.33-24.06-.3-8.03-2.01-17.49-2.19-24.76,2.17-3.33,2-.55,6.94,2.78,6.58,5.08-.55,9.77-2.02,14.98-1.6,6.01.49,10.88,3.29,16.4,5.37,7.2,2.7,15.5,2.8,20.32-4.12,9.24-13.27-3.41-29.72-14.66-36.45"/>
      <path d="M964.83,112.56c-2.59-4.26-6.52-7.73-11.47-8.78-3.47-.74-4.99,4.18-2.45,6.13,2.77,2.12,5.5,3.99,7.24,7.12,1.7,3.08,1.62,6.51,2.82,9.72,1.09,2.93,5.01,2.43,6.22-.05,2.17-4.47.03-10.21-2.36-14.15"/>
      <path d="M936.45,14.49c-4.41-18.47-26.97-17.82-38.29-6.23-12.55,12.86-16.75,39.36-4.69,54,2.89,3.51,7.99.21,6.67-3.89-2.27-7.03-5.12-13.02-4.87-20.65.22-6.62,2.06-13.28,5.67-18.86,6.22-9.61,22.98-16.52,29.19-2.66,1.46,3.26,7.22,2.07,6.32-1.71"/>
      <path d="M969.92,14.42c-8.76-13.51-28.35-13.06-40-3.94-14.74,11.54-17.48,31.46-16.71,48.96.19,4.38,7.59,4.38,7.73-.05.4-13.43,1.31-27.83,10.69-38.37,8.47-9.52,22.93-11.93,31.57-1.34,3.51,4.31,9.66-.7,6.72-5.25"/>
      <path d="M965.33,13.84c-17.46,7.47-29.68,28.29-26.01,47.34,1.04,5.44,8.76,4.32,8.45-1.14-.92-16.25,6.06-30.88,20.54-39.03,4.24-2.38,1.73-9.18-2.98-7.17"/>
      <path d="M1017.22,54.69c-1.34-14.13-7.72-35.05-26.06-33.06-16.74,1.81-19.03,26.1-20.51,38.85-1.17,10.12.13,42.51,18.68,35.17,6.76-2.67,11.85-11.18,14.34-17.63,2.75-7.13,1.72-15.11-4.56-19.94-3.79-2.9-8.26,3.08-4.43,5.96,6.1,4.58,1.96,12.17-1.24,17.1-2.8,4.29-7.18,11.1-12.18,4.88-3.75-4.65-3.75-13.48-3.51-19.06.24-5.6,1.23-11.16,2.33-16.64,1.64-8.15,3.65-23.47,15.45-20.88,11.62,2.55,13.61,16.35,15.54,26.07.77,3.91,6.52,3.17,6.15-.83"/>
      <path d="M997.74,18.74c-10.74-9.61-25.94-9.57-36.31.34-2.77,2.64.55,7.17,3.73,4.77,8.71-6.56,19.89-6.01,27.9,1.19,3.75,3.37,8.43-2.95,4.68-6.3"/>
      <path d="M972.61,78.6c-3.04,1.33-5.9,3.02-8.91.59-2.96-2.39-7.2,1.89-4.7,4.82,2.41,2.83,5.64,4.19,9.34,4.05,3.5-.13,7.28-1.87,8.38-5.41.76-2.46-1.49-5.19-4.11-4.05"/>
      <path d="M920.84,720.24c-.12,2.48-.8,4.86-1.67,7.21-.09.29-.2.58-.31.86-3.04,1.07-7.09-1.65-5.43-5.4.65-1.46,1.29-2.92,1.93-4.38.1-.13.2-.24.29-.36,1.91-2.26,5.33-.83,5.19,2.07"/>
      <path d="M920.84,720.24c-.12,2.48-.8,4.86-1.67,7.21-.09.29-.2.58-.31.86-.61,1.62-1.28,3.21-1.88,4.79-.34.91-.65,1.85-.98,2.82-1.12,3.38-2.27,6.96-4.5,9.55-.33.38-.69.67-1.06.87-2.28,1.28-5.18-.36-5.07-3.32.01-.41.05-.82.12-1.23.51-3.94,2.73-7.85,4.22-11.47,0-.04.03-.06.04-.1,1.15-2.82,2.13-5.8,3.55-8.51.6-1.11,1.26-2.19,2.06-3.18.1-.13.2-.24.29-.36,1.91-2.26,5.33-.83,5.19,2.07"/>
      <path d="M737.45,671.71c-.1-.08-.18-.17-.28-.24.13-.42.18-.82.19-1.2.05.47.07.96.09,1.44"/>
      <path d="M174.16,476.04c-.2-13.56-4.78-24.79-17.79-30.5-15.92-7.02-35.31-8.99-52.53-9.1-18.4-.12-36.52,2.73-54.03,8.37-1.85.59-2.6,1.98-2.57,3.44-.23.1-.43.22-.63.36-.96.31-1.74,1.04-2.01,2.1-.1.42-.1.88-.02,1.32-.3.46-.51,1.02-.53,1.69-.24,5.94-.23,11.91-.1,17.88-11.09-3.21-23.13-2.46-32.61,4.99-10.13,7.95-13.82,20.62-9.67,32.77,4.25,12.46,15.17,21.96,26.75,27.5,4.99,2.38,11.54,4.66,18.18,5.67.13,5.52.44,11.06,1.69,16.3,3.3,13.7,15.4,20.24,28.1,23.58,12.97,3.41,26.46,4.73,39.84,4.07-.66-2.71-1.07-5.41-1.25-8.09-10.05.36-20.13-.47-30-2.47-13.1-2.65-26.97-7.16-29.01-22.2-.49-3.51-.81-7.05-1.04-10.64-.21-2.98-.33-5.98-.42-8.98-.07-2.34-.12-4.68-.14-7.03-.04-2.66-.06-5.31-.09-7.96-.06-4.57-.12-9.14-.3-13.64-.18-4.68-.3-9.4-.43-14.12-.06-2.36-.12-4.73-.21-7.1-.3-10.08-.74-20.17-1.86-30.12.24-.15.48-.29.7-.46.47-.35.88-.8,1.21-1.29,27.26-8.71,56.42-10.26,84.42-4.16,6.35,1.38,13.31,2.88,18.98,6.21,6.39,3.76,8.82,10.01,9.49,17.11.74,7.84.52,15.91.11,23.96,2.49-1.56,5.06-2.87,7.67-3.79.12-5.23.17-10.45.1-15.67M44.66,490.48c.26,5.4.53,10.79.72,16.17.13,3.64.27,7.28.41,10.91-5.84-1.55-11.03-4.34-13.76-10.19-2.65-5.7-1.12-12.63,4.89-15.34,2.45-1.09,5.07-1.53,7.74-1.55ZM37.56,531.29c-9.51-3.28-18.4-9.23-24.11-17.63-6.12-9.01-6.98-20.3,1-28.46,7.76-7.94,19.49-8.91,29.73-6.11.04,1.33.1,2.65.16,3.97-4.45-.17-8.85.56-12.96,3.01-6.74,4.03-9.76,11.58-8.45,19.25,2.04,11.87,12.12,18.22,23.19,20.66.07,2.2.15,4.4.25,6.61,0,.3.03.61.03.91-3.01-.47-5.97-1.21-8.84-2.2Z"/>
      <path d="M154.41,462.22c-7.19-1.57-15.6.24-22.98.18-8.09-.06-16.18-.44-24.23-1.2-15.74-1.49-31.29-4.27-46.62-8.11-4.25-1.07-6.17,6.26-1.92,7.48,15.9,4.57,32.18,7.66,48.68,8.98,8.03.64,16.08.91,24.14.82,7.48-.09,16.76.71,23.76-2.13,3.11-1.26,2.08-5.39-.83-6.02"/>
      <path class="cls-2" d="M538.27,507.25c-2.9,7.34-5.42,15.11-5.16,23.11.26,8.95,5.55,16.12,7.61,24.59,2.22,9.26.31,18.84-1.08,28.06-1.15,7.53-2.29,15.05-3.44,22.58-4.87-4.92-11.45-8.23-17.61-11.17-9.54-4.55-19.87-8.53-30.35-10.18-4.44-13.32-8.86-26.64-13.27-39.98-.79-1.85-1.58-3.7-2.36-5.55-21.41,2.84-43.1,4.16-64.55,6.74-25.76,9.37-49.94,22.7-73.96,36.29-1.46.82-3.35.24-4.63-.57-9.84-6.27-19.2-13.3-28.79-19.96-14.43-6.4-29.08-12.33-43.97-17.69-20.64-7.43-42.26-14.28-64.27-15.97-9.38-.73-19.42-.23-27.96,4.11-8.58,4.37-13.66,12.9-15.66,22.08-.44,2-.76,4.02-.98,6.05-1.92,17.18,3.05,35.74,6.88,52.08,3.25,13.72,7.19,27.26,11.75,40.58-2.89,1.43-5.62,2.94-7.98,4.03-4.79,2.21-9.77,4.44-14.61,6.88-11.52-11.2-20.71-24.83-26.7-39.8-19.78-49.44-.34-118.65,52.06-139.6,14.04-5.61,28.78-3.83,43.31-6.73,12.98-2.6,25.02-8.75,36.09-15.84,22.31-14.25,42.15-32.06,66.78-42.43,3.11-1.32,6.23,2.55,4.11,5.28-8.15,10.48-12.33,22.83-12.41,35.78,40-41.13,103.48-48.54,143.08-90.42,2.71-2.87,7.51-.57,6.16,3.44-8.16,24.03-18.5,47.18-31.01,69.2,11.93-7.57,23.85-15.16,35.71-22.83,2.41-1.56,5.84-.02,5.49,3.1-1.31,11.52-2.62,23.03-3.92,34.55,26.18-14.11,50.97-30.47,73.84-49.57,3.04-2.54,6.64,1.02,5.7,4.28-5.94,20.47-12.09,40.9-17.71,61.47,8.39-.99,16.19-5.23,21.58-12.27,2.34-3.04,7.15-1.03,6.8,2.72-1.47,15.62-8.88,29.22-14.57,43.57"/>
      <path d="M1024.33,256.51c-.11,3.78-.23,7.55-.37,11.33-.74,22.08-1.7,44.18-2.67,66.23-2.03,46.49-5.08,93.05-12.87,138.96-15.03,88.7-50.94,171.27-87.15,253.01-.55,1.21-1.42,1.95-2.41,2.27.11-.28.22-.57.31-.86.87-2.35,1.55-4.73,1.67-7.21.14-2.9-3.28-4.33-5.19-2.07-.09.12-.19.23-.28.35-.81,1-1.47,2.08-2.07,3.19-1.42,2.71-2.4,5.69-3.55,8.51-.01.04-.03.06-.04.1-1.49,3.62-3.71,7.53-4.22,11.47-44.81-4.74-89.82-8.09-134.71-12.06-11.21-.99-22.44-1.98-33.67-2.99-6.97-.6-17.92-.28-22.68-6.34-.88-1.14-1.56-2.51-1.94-4.15-.38-1.58-.52-3.11-.49-4.61-2.71,1.88-5.43,3.74-8.2,5.53-10.19,6.64-20.81,12.54-32.42,16.66-17.53,6.22-36.25,7.19-53.61-.08-11-4.6-20.73-11.51-29.85-19.14,8.64-8.25,14.95-18.88,17.6-30.52,2.53-11.12,2.29-22.88,1.53-34.19-.01-.16-.03-.33-.04-.48,5.41,2.69,10.82,5.43,16.25,8.15,2.4,1.21,4.78,2.4,7.19,3.57,6.92,3.4,13.89,6.68,20.97,9.63,4.9,2.03,7.39-5.07,2.96-7.48-5.38-2.94-10.86-5.71-16.39-8.41,25.27-22.07,45.01-49.5,67.43-74.35,23.68-26.27,52.6-51.17,88.81-56.32,2.3-.33,4.6-.57,6.9-.71.01.09.05.18.08.27,6.38,16.32,22.56,29.22,39.16,33.93,8.73,2.48,18.03,3.01,27,1.55,4.13-.68,8.85-1.72,13.27-3.4,4.38-1.67,8.46-3.96,11.38-7.13.51-1.1.98-2.18,1.45-3.27-.31-1.96-2.73-3.41-4.86-2.82-1.33.38-2.6.91-3.86,1.51,1.12-2.9,2.25-5.81,3.36-8.71,9.22-24.01,17.91-48.07,24.76-72.99,15.11-55.05,23.28-112.04,24.5-169.12.23-10.64.18-21.26-.12-31.83-.12-4.38-.28-8.76-.5-13.13,2.63,2.99,5.47,5.77,8.68,8.3,1.2.96,2.46,1.88,3.76,2.75,9.8,6.57,21.25,10.41,33.03,11.01,12.42.63,23.67-2.53,33.62-8.22,2.95-1.68,5.78-3.59,8.49-5.69"/>
      <path d="M737.36,670.27c-.03-.33-.07-.65-.11-.97.09.3.12.63.11.97"/>
      <path d="M850.36,535.2c-12.38-7.49-26.13-11.39-40.27-11.86-2.97-.11-5.96-.06-8.96.14-2.3.15-4.6.39-6.9.71-36.21,5.15-65.13,30.06-88.81,56.32-22.42,24.85-42.16,52.28-67.43,74.35-2.83-1.39-5.69-2.77-8.55-4.13,16.21-13.61,30.11-29.6,43.7-45.82,24.39-29.16,49.04-59.86,83.44-77.68,29.63-15.34,70.34-19.42,98,2.26,3.66,2.87-.38,8.01-4.22,5.69"/>
      <path d="M893.47,545.43c-.47,1.09-.94,2.17-1.44,3.24-2.93,3.19-7.01,5.48-11.39,7.15-4.42,1.68-9.14,2.72-13.27,3.4-8.97,1.46-18.27.93-27-1.55-16.6-4.71-32.78-17.6-39.16-33.93-.03-.08-.07-.18-.08-.27-1.58-4.71,4.95-6.95,7.38-2.77.52.88,1.04,1.77,1.58,2.63,7.59,12.08,17.6,21.56,31.73,25.87,7.88,2.4,16.29,2.81,24.4,1.48,4.08-.68,8.05-1.84,11.89-3.36,1.96-.78,3.83-1.82,5.72-2.76.3-.15.62-.3.92-.44,1.26-.6,2.53-1.14,3.86-1.51,2.13-.59,4.55.86,4.86,2.82"/>
      <path d="M721.79,734.92c-1.81,3.74-3.74,7.45-5.71,11.14-2.89-.12-5.77-.18-8.65-.21,2.73-4.79,5.55-9.57,8.52-14.19,2.06-3.23,7.49-.14,5.84,3.26"/>
      <path d="M899.5,748.81c-.95,3.02-1.84,6.18-2.82,9.33-2.82-.19-5.6-.38-8.41-.57,1.49-3.9,3.17-7.72,4.62-11.39,1.71-4.32,7.96-1.68,6.61,2.62"/>
      <path d="M918.95,1026.29c-2.64-.19-5.31-.35-7.97-.52-49.04-3.17-98.15-5.46-147.3-6.91-2.98-.1-5.95-.18-8.93-.26-2.47-14.23-4.61-28.5-6.41-42.83-.86-6.84-1.64-13.68-2.33-20.55-.38-3.77-.75-7.55-1.07-11.32-9.72,10.28-19.23,20.8-28.9,31.05-9.1,9.64-18.16,19.32-27.21,29.01-4.09,4.39-8.32,8.74-12.47,13.15-26.94-.29-53.87-.33-80.81-.15-30.48.2-61.15.07-91.6,1.74-1.9.1-3.81.21-5.71.33-1.3.07-2.19.81-2.68,1.8-.59-1.19-.68-2.64.15-4.05,12.64-21.61,26.05-42.79,40.07-63.54,24.82-36.75,51.75-72.09,80.44-105.91,26.98-31.81,55.36-62.68,86.19-90.77-.21-.73-.15-1.51.3-2.3.31-.56.62-1.12.93-1.68,1.25-2.24,2.51-4.49,3.79-6.73,2.88.02,5.76.08,8.65.21,13.56.48,27.19,1.84,40.69,2.71,16.03,1.05,32.08,2.08,48.11,3.17,27.8,1.88,55.6,3.75,83.39,5.63,2.81.19,5.59.38,8.4.57-.86,2.78-1.79,5.55-2.91,8.22-.66,1.62-1.4,3.19-2.22,4.69,9.75,18,16.07,38.54,21.44,58.19,17.61,64.23,19.56,132,5.97,197.06"/>
      <path d="M918.95,1026.29c-.61,2.96-1.27,5.91-1.96,8.87-2.67-.17-5.33-.34-8.01-.51.71-2.96,1.37-5.91,2-8.88,2.66.17,5.33.33,7.97.52"/>
      <path d="M503.95,1018.7c-.6.96-1.18,1.92-1.76,2.89-1.84,3.05-5.37,1.77-6.63-.76.49-.99,1.38-1.73,2.68-1.8,1.9-.12,3.81-.23,5.71-.33"/>
      <path d="M687.66,1017.25c-2.64,2.85-5.28,5.72-7.97,8.55-3.58-.07-7.17-.11-10.75-.15h-.38c-28.77-.34-57.53-.42-86.3-.2-27.99.2-56,1.21-83.98.96-2.92-.03-3.82-3.4-2.72-5.58.49-.99,1.38-1.73,2.68-1.8,1.9-.12,3.81-.23,5.71-.33,30.45-1.67,61.12-1.54,91.6-1.74,26.94-.18,53.87-.14,80.81.15,3.76.03,7.53.08,11.3.14"/>
      <path d="M918.95,1026.29c-.61,2.96-1.27,5.91-1.96,8.87-2.67-.17-5.33-.34-8.01-.51-23.12-1.44-46.24-2.79-69.38-3.9-24.76-1.2-49.53-2.19-74.31-2.99-2.99-.09-5.98-.19-8.97-.28-.54-2.95-1.06-5.91-1.57-8.88,2.98.08,5.95.16,8.93.26,49.15,1.45,98.26,3.74,147.3,6.91,2.66.17,5.33.33,7.97.52"/>
      <path d="M746.01,955.22c-8.33,8.85-16.77,17.57-24.99,26.41-9.32,9.99-18.67,19.95-28.04,29.88-1.78,1.89-3.56,3.81-5.32,5.74-2.64,2.85-5.28,5.72-7.97,8.55-3.58-.07-7.17-.11-10.75-.15h-.38c2.53-2.9,5.15-5.74,7.8-8.54,4.15-4.41,8.38-8.76,12.47-13.15,9.05-9.69,18.11-19.37,27.21-29.01,9.67-10.25,19.18-20.77,28.9-31.05.32,3.77.69,7.55,1.07,11.32"/>
      <path d="M765.29,1027.76c-2.99-.09-5.98-.19-8.97-.28-.54-2.95-1.06-5.91-1.57-8.88,2.98.08,5.95.16,8.93.26.45,2.59.92,5.18,1.39,7.77.07.37.15.76.22,1.13"/>
      <path class="cls-1" d="M773.1,587.34c-16.24,2.88-30.69,14.34-37.66,29.24-3.98,8.51-5.17,17.56-4.09,26.87.64,5.64,1.96,11.2,3.53,16.66.92,3.16,1.94,6.06,2.37,9.18.04.31.08.64.11.97-.01.38-.06.77-.19,1.2.1.07.18.16.28.24.01.4.01.82,0,1.25-.06,1.32-.97,2.15-2.06,2.43-5,8.93-15.4,16.99-20.48,26.28-1.74,3.16-2.84,6.45-2.91,9.97-2.71,1.88-5.43,3.74-8.2,5.53-.05-.25-.09-.5-.12-.75-.23-1.61-.32-3.16-.28-4.67.16-5.8,2.22-10.85,5.21-15.56,5.87-9.27,15.27-17.13,20.67-26.4-1.73-3.74-2.67-7.91-3.74-11.87-1.66-6.2-2.92-12.5-3.17-18.92-.39-9.69,1.51-19.29,6.01-27.93,8.78-16.86,24.82-28.68,43.73-31.06,4.75-.59,5.68,6.5.99,7.33"/>
      <path d="M470.66,537.89c-27.64.51-55.38,2.87-81.98,10.85-22,6.6-46.54,17.55-61.8,35.35-2.69,3.14,1.94,7.32,5.09,4.96,9.34-7.01,18.12-14.22,28.47-19.79,10.28-5.53,21.19-9.85,32.38-13.17,25.53-7.57,52.4-9.53,78.9-10.4,5.09-.17,3.93-7.9-1.06-7.8"/>
      <path d="M332.1,582.69c-4.94-5.85-12.07-10.24-18.36-14.51-6.33-4.3-12.91-8.25-19.61-11.96-13.84-7.67-28.33-14.12-43.3-19.24-14.47-4.95-29.4-8.69-44.49-11.13-8.05-1.3-16.17-2.23-24.3-2.77-6.93-.47-15.54-1.98-22.2.26-2.78.94-2.75,5.48.05,6.38,6.47,2.07,14.36.92,21.16,1.4,7.46.52,14.89,1.36,22.28,2.52,15.44,2.43,30.63,6.25,45.39,11.41,14.26,4.98,28.13,11.16,41.32,18.52,6.67,3.72,13.14,7.77,19.47,12.04,6.14,4.13,11.84,9.28,18.38,12.73,3.24,1.71,6.43-2.99,4.21-5.62"/>
      <path d="M225.85,730.07c-9.94-34.02-20.1-67.98-30.16-101.97-10.03-33.89-18.72-68.52-30.32-101.9-1.42-4.07-8.42-2.27-7.38,1.99,8.34,34.3,19.77,68.06,29.7,101.93,10.09,34.41,20.08,68.85,30.29,103.22,1.57,5.27,9.4,1.93,7.87-3.28"/>
      <path d="M379.41,758.25c-43.25-35.88-104.22-34.54-157.04-29.24-5.26.53-4.04,8.27,1.09,8.03,51.75-2.44,108.17-7.48,150.96,27.92,4.15,3.43,9.12-3.28,4.99-6.71"/>
      <path d="M362.36,683.35c-4.73-16.59-10.68-32.83-15.58-49.38-4.84-16.37-8.17-33.72-14.27-49.65-1.35-3.51-6.78-1.96-6.29,1.7,2.21,16.7,8.38,33.63,13.47,49.63,5.32,16.7,10.55,33.75,17.68,49.78,1.45,3.26,5.92,1.19,4.99-2.08"/>
      <path d="M385.28,762.36c-5.64-15.86-11.14-31.77-16.89-47.59-1.4-3.84-7.03-1.39-5.81,2.42,4.79,14.9,9.8,29.72,14.72,44.58-.06.12-.14.23-.18.37-.09.26-.17.53-.25.79-.57,1.75-.04,3.12,1.23,4.34.19.18.38.37.57.55,1.57,1.51,3.82.69,4.97-.86,1.57-.9,2.31-2.7,1.64-4.6"/>
      <path d="M546.7,735.16c-27.66-9.14-57.38-11.16-86.12-6.61-14.36,2.28-28.52,6.21-41.99,11.68-12.99,5.28-27.38,11.95-37.82,21.5-2.85,2.61-.23,8.45,3.69,6.33,11.96-6.47,22.99-13.95,35.62-19.21,13.07-5.44,26.73-9.35,40.69-11.67,27.75-4.62,56.14-2.83,83.14,5.01,4.59,1.33,7.48-5.48,2.79-7.03"/>
      <path d="M488.33,577.23c1.42,4.21,2.86,8.42,4.32,12.63-3.44-1.88-6.84-3.8-10.17-5.82-.31-.87-.62-1.74-.92-2.61-1.03-2.94-2.04-5.89-3.05-8.84-.59-1.76-1.17-3.46-1.75-5.18-2.65-7.91-5.88-16.02-7.39-24.25-.74-3.97,4.94-5.12,6.53-1.77,3.92,8.3,6.25,17.62,9.2,26.32,1.07,3.17,2.15,6.35,3.23,9.52"/>
      <path d="M543.86,739.68c-9.13-20.41-17.86-41.01-26.19-61.76-1.1-2.75-2.2-5.49-3.28-8.24,2.65-.12,5.3-.51,7.89-1.15,1.05,2.62,2.12,5.24,3.18,7.85,8.28,20.21,16.87,40.29,25.7,60.26,2.06,4.66-5.23,7.68-7.3,3.04"/>
      <path d="M489.8,662.21c-.7,2.47-2.45,5.07-4.28,7.33-1.57,1.95-3.22,3.64-4.3,4.74-6.41,6.53-14.43,11.19-23.8,11.07-18.72-.25-31.11-18.29-25.95-35.88.36-1.22,1.23-1.91,2.25-2.15-.02-1.07.04-2.15.18-3.28.58-4.4,6.74-3.41,6.69.82-.11,9.37,8.51,15.54,17.21,15.38,4.18-.07,8.81-1.25,12.33-3.62,3.51-2.36,4.31-5.33,5.77-9.03,1.09-2.72,4.98-2.66,6.15-.05,1.31,2.99,1.21,5.72.13,8.16-.97,2.24-2.76,4.22-4.99,5.92-5.83,4.45-14.67,6.93-19.86,6.9-7.49-.07-14.5-3.35-18.92-8.66,1.52,8.59,7.77,15.72,17.38,16.78,8.35.92,18.39-4.91,23.58-12.46,1.5-2.17,2.59-4.46,3.12-6.79.09-.36.22-.7.38-.99.83-1.52,2.61-1.98,4.31-1,2.9,1.67,3.37,4.16,2.62,6.81"/>
      <path d="M456.67,649.37c6.23,0,14.18-2.92,16.36-9.28.79-2.32-1.5-5.07-3.97-3.9-3.8,1.8-6.66,4.71-11.04,5.23-5.12.61-9.35-1.77-12.82-5.31-3.17-3.24-8.17.5-5.6,4.38,3.73,5.61,10.38,8.87,17.07,8.88"/>
      <path d="M598.17,645.06c-12.8-6.27-25.64-12.49-38.18-19.25-14.78-7.97-29.7-15.72-44.44-23.78-7.47-4.08-15.27-8-22.9-12.17-3.44-1.88-6.84-3.8-10.17-5.82-1.95-1.19-3.88-2.41-5.77-3.67-1.61-1.07-3.19-2.15-4.74-3.28-2.71-1.96-.98-5.98,1.81-6.18.46-.04.97.04,1.49.25,1.08.45,2.15.9,3.23,1.38.22.09.44.18.67.29,1.68.74,3.35,1.52,5.01,2.32,1.39.67,2.77,1.35,4.15,2.07,11.01,5.6,21.73,12.14,32.48,17.86,14.47,7.71,28.93,15.43,43.61,22.72,10.56,5.26,20.98,10.78,31.45,16.21,1.12,3.57,1.84,7.24,2.3,11.04"/>
      <path d="M425.39,666.89c-4.32-11.73-8.92-23.33-13.04-35.14-.45-1.29-2.18-2.35-3.56-2.04-13.25,2.98-28.16,5.71-40.12,12.4-2.27,1.27-2.23,3.9-.85,5.24-.06.29-.1.6-.09.94.62,11.92,4.73,23.8,11.54,33.63.54.78,1.83,1.38,2.78,1.13,13.94-3.65,27.74-7.78,41.56-11.85,1.76-.52,2.35-2.79,1.78-4.32M373.94,647.46c-.03-.15-.07-.27-.11-.41,11.08-3.73,21.97-7.18,33.34-10.03,3.76,9.62,7.24,19.32,10.85,28.98-11.65,3.38-23.29,6.75-34.83,10.43-4.62-9.29-7.63-18.54-9.25-28.97Z"/>
      <path class="cls-2" d="M436.65,623.38c5.88,4.08,12.48,6.89,19.36,9.04-4,2.69-7.98,5.37-11.97,8.05-4.88,3.28-9.7,7.12-14.97,9.83-.2.92-.87,1.73-2.09,2.14-3.4,1.12-6.8,2.25-10.21,3.36-1.31-2.09-3.33-3.91-4.7-5.86-.02-.04-.05-.07-.07-.11-.5-.71-.98-1.44-1.44-2.18-1.46-2.31-2.78-4.74-3.97-7.2,1.35-1.71,2.77-3.3,4.33-4.72.03-.81.4-1.64,1.29-2.33,1.98-1.57,3.99-3.13,6.01-4.67,1.81,5.05,7.79,7.09,12.51,4.48,3.91-2.17,5.48-5.84,5.92-9.83"/>
      <path class="cls-2" d="M552.18,567.63c-17.78,12.1-35.59,24.15-53.46,36.11-2.29,1.52-4.56,3.05-6.84,4.59-14.89-.96-29.8-1.26-44.71-.39,11.62-7.99,23.36-15.79,34.86-23.8,11.86-8.26,23.72-16.52,35.58-24.78,5.01-3.5,10.03-7.37,15.15-11.11.37,2.7,1.4,5.4,2.85,7.76.93,1.52,2.03,2.92,3.24,4.08,1.48,1.43,3.3,2.79,5.33,4.02,2.43,1.46,5.16,2.7,8,3.53"/>
      <path d="M504.22,651.7c-11.68,1.33-19.34-7.7-27.22-14.78-7.64-6.85-14.65-9.45-24.54-11.34-4.21-.8-12.35-2.44-12.4-8.23-.07-8.17,15.74-3.54,20.08-3.17,11.02.93,21.94.08,32.63-2.77,4.01-1.07,3.46-7.28-.89-6.6-8.65,1.35-17.48,2.14-26.23,1.78-7-.29-14.41-2.66-21.37-1.82-12.05,1.47-15.81,15.06-6.69,22.87,4.47,3.83,10.32,4.87,15.92,5.9,8.02,1.47,13.62,4.88,19.53,10.36,9.19,8.53,19.45,18.32,33.01,14.55,3.95-1.1,2-7.19-1.83-6.75"/>
      <path d="M574.18,550.66c-.29.91-.91,1.51-1.65,1.83-.07.83-.52,1.66-1.45,2.3-2.16,1.48-4.34,2.95-6.51,4.43-3.58-.7-7.11-.76-10.61-1.65,4.22-2.83,8.45-5.66,12.67-8.48.18-.12.35-.22.53-.29-.66-2.19-1.17-4.26-3.42-5.68-3.27-2.07-6.22-.52-9.59.13-.21.04-.42.06-.62.04-3.03,2.7-6.44,5.03-9.88,7.31-1.46-2.58-1.53-5.64.18-9.18.15-.3.26-.62.33-.92,2.31-1.43,4.66-2.76,7.05-3.93.62-.3,1.19-.41,1.71-.36,8.86-6.05,24.76,3.36,21.26,14.46"/>
      <path d="M564.57,559.21c-4.14,2.83-8.27,5.65-12.42,8.46-2.84-.84-5.57-2.07-8-3.53-2.03-1.22-3.85-2.59-5.33-4.02-1.21-1.16-2.31-2.55-3.24-4.08-1.45-2.36-2.48-5.06-2.85-7.76,3.73-2.75,7.55-5.42,11.43-7.79-.07.3-.18.62-.33.92-1.71,3.54-1.64,6.61-.18,9.18,1.1,1.97,3,3.65,5.52,5.08,1.58.91,3.18,1.49,4.79,1.89,3.5.88,7.03.94,10.61,1.65"/>
      <path class="cls-2" d="M406.93,631.96c-7.86,6.67-13.47,16.36-17.01,26.22-1.05-1.88-1.87-3.91-2.64-6.16-1.24-3.63-6.79-1.92-6.35,1.72.68,5.62,3.47,10.48,7.48,14.41,1.69,1.66,5.41,2.1,6.22-.89,3.24-12.01,9.35-21.22,16.57-31.11,1.96-2.68-1.62-6.43-4.27-4.17"/>
      <path d="M416.76,655.8c-2.82.94-5.62,1.86-8.45,2.76-2.23.7-4.46,1.4-6.7,2.08-2.52.77-6.23-1.58-4.62-4.54,1.52-2.77,3.08-5.68,4.77-8.51,1.48-2.48,3.07-4.9,4.83-7.14,1.18,2.46,2.5,4.89,3.97,7.2.46.74.94,1.46,1.44,2.18.02.04.04.07.07.11,1.37,1.95,3.39,3.76,4.69,5.86"/>
      <path d="M483.5,574.74c-12.63-6.04-29.25-9.42-42.97-5.64-12.89,3.54-22.41,13.89-26.51,26.45-3.54,10.85-6.35,30.89,3.12,39.68,9.82,9.11,19.11-.76,22.62-10.2,1.62-4.36-5.08-7.06-6.74-2.68-1.49,3.94-5.48,13.07-10.76,6.68-2.87-3.47-2.77-9.41-2.83-13.65-.14-9.96,2.03-20.18,8.23-28.17,6.07-7.81,14.92-11.22,24.64-11.36,10.29-.15,19.53,3.8,29.48,5.61,4.09.74,5.13-5.09,1.72-6.72"/>
      <path d="M462.02,595.38c-3.29-5.79-11.97-5.86-17.12-2.58-5.66,3.6-7.27,10.58-4.92,16.63,1.46,3.76,6.62,1.32,5.62-2.34-.83-3.06.91-7.04,3.78-8.41,3.35-1.61,6.05.44,9.23,1.2,2.26.54,4.58-2.46,3.41-4.5"/>
      <path d="M489.56,653.15c-.64-.85-1.71-1.39-2.75-1.38-.55,0-1.04.14-1.49.37-.23.08-.46.18-.68.31-.77.45-1.29,1.13-1.59,1.96-.35.97-.33,1.66-.04,2.67.09.29.24.53.43.75.25.79.77,1.48,1.46,1.91,1.4,1.89,5,1.14,5.2-1.44,0-.07.01-.14.01-.2.87-1.52.82-3.54-.55-4.96"/>
      <path d="M477.19,661.63c-.95-1.21-1.82-2.49-2.61-3.82-2.24-3.81,2.38-7.66,5.48-4.29.69.75,1.41,1.49,2.12,2.2-.97,2.24-2.76,4.22-4.99,5.92"/>
      <path d="M542.27,666.35c-3.06,5.48-10.77,8.3-16.51,9.96-.09.02-.2.06-.3.08-2.54.73-5.15,1.25-7.79,1.54-3.83.45-7.71.41-11.53-.15-7.25-1.07-14.52-3.9-20.62-8.24-2.23-1.58-4.3-3.38-6.15-5.36,1.5-2.17,2.59-4.47,3.12-6.79.09-.36.22-.7.38-.99,2.19,2.13,4.49,4.1,6.93,5.81,5.37,3.81,11.4,6.46,18.35,7.26,2.06.24,4.16.32,6.24.22,2.65-.12,5.3-.51,7.89-1.15,1.35-.33,2.68-.73,3.99-1.2,4.54-1.63,8.43-4.73,13.12-5.87,2.89-.7,3.99,2.88,2.88,4.88"/>
      <path d="M707.28,725.2c-28.44,18.33-62.82,30.77-95.55,15.77-11.43-5.24-21.44-12.5-30.94-20.48-2.32-1.95-4.62-3.93-6.89-5.95,2.57-1.8,5.02-3.69,7.3-5.72,7.75-6.77,13.64-15.03,16.08-26.78,2.11-10.15,2.07-20.71,1.43-31.01-.13-2.02-.3-4.01-.54-5.95-.46-3.8-1.18-7.46-2.3-11.04,3.29,1.72,6.59,3.42,9.9,5.11,1.15.59,2.31,1.19,3.46,1.77,6.68,3.36,13.45,6.59,20.21,9.85,2.86,1.35,5.72,2.73,8.55,4.13,5.53,2.7,11.01,5.47,16.39,8.41,4.43,2.41,1.94,9.51-2.96,7.48-7.08-2.95-14.05-6.23-20.97-9.63-2.41-1.17-4.79-2.36-7.19-3.57-5.43-2.72-10.84-5.47-16.25-8.15.01.16.03.33.04.48.76,11.31,1,23.07-1.53,34.19-2.65,11.64-8.96,22.26-17.6,30.51,9.12,7.64,18.85,14.54,29.85,19.14,17.36,7.27,36.08,6.3,53.61.09,11.61-4.13,22.23-10.02,32.42-16.66.55,3.07,1.76,5.76,3.48,8.04"/>
      <path d="M576.54,704.63c1.54,1.4,3.1,2.8,4.66,4.17-2.28,2.03-4.73,3.92-7.3,5.72-15.01-13.3-29.29-27.66-46.71-37.68-3.62-2.09-.16-7.96,3.52-6.3,17.62,7.91,31.69,21.26,45.83,34.08"/>
      <path d="M910.44,746.34c-.14,2.29-1.85,4.56-4.83,4.34-50.95-3.73-101.84-9.11-152.74-13.75-10.82-.99-22.5-.87-33.05-3.69-5.13-1.38-9.59-4.1-12.54-8.05-1.72-2.27-2.93-4.96-3.48-8.04,2.77-1.79,5.49-3.65,8.2-5.53-.03,1.5.11,3.02.49,4.61.38,1.65,1.06,3.01,1.94,4.15,4.76,6.06,15.71,5.73,22.68,6.34,11.23,1,22.46,2,33.67,2.99,44.89,3.97,89.9,7.32,134.71,12.06.4.04.8.08,1.2.12,2.69.29,3.87,2.36,3.75,4.43"/>
      <path d="M212.45,751.46c-11.73-33.34-21.5-67.48-30.81-101.56-9.44-34.59-16.71-69.72-25.98-104.33-1.07-4.01-7.31-3.46-6.59.89,5.75,35.12,15.48,69.85,24.87,104.14,9.56,34.9,20.65,69.27,31.53,103.77,1.45,4.61,8.6,1.7,6.98-2.91"/>
      <path d="M386.27,763.28c-30.07-7.47-60.31-14.86-91.16-18.2-14.43-1.56-28.98-2.22-43.49-1.56-14.3.64-30.34,1.62-43.76,7.01-3.33,1.33-1.86,6.34,1.62,5.96,14.5-1.57,28.48-4.85,43.17-5.35,15-.5,30.03.39,44.92,2.22,29.68,3.64,58.71,10.97,87.68,18.17,5.18,1.29,6.14-6.96,1.02-8.24"/>
      <path d="M549.38,746.17c-27.17-6-55.1-7.57-82.77-4.68-26.76,2.8-56.13,8.92-79.86,22.09-3.93,2.18-1.67,8.05,2.72,6.54,12.65-4.36,24.93-9.44,37.87-12.94,13.23-3.57,26.76-6.03,40.38-7.44,26.94-2.79,54.19-1.24,80.69,4.32,5.03,1.06,5.92-6.81.97-7.9"/>
      <path d="M550.11,759.66c-27.69-5.11-55.87-7.08-83.99-5.62-27.78,1.44-56.43,5.52-82.75,14.77-3.5,1.23-1.97,7.18,1.72,6.34,26.85-6.14,53.38-11.62,80.97-13.12,27.82-1.51,55.71.2,83.14,5.02,4.74.83,5.6-6.53.91-7.39"/>
      <path d="M385.78,770.47c-4.47-3.9-12.3-4.38-17.96-5.54-7.05-1.45-14.14-2.67-21.27-3.68-14.63-2.06-29.39-3.19-44.16-3.39-28.73-.39-57.67,2.42-85.48,9.78-4.17,1.1-3.52,7.7.92,6.82,27.93-5.5,56.18-8.91,84.69-8.35,13.63.27,27.25,1.32,40.76,3.18,7.13.98,14.23,2.18,21.28,3.6,6.02,1.21,13.71,4.56,19.76,3.23,2.76-.61,3.59-3.78,1.46-5.64"/>
      <path d="M220.41,768.61c-1.38-5.1-2.74-10.22-4.42-15.23-1.09-3.25-6.61-1.81-5.85,1.58,1.21,5.42,2.78,10.78,4.31,16.12,1.15,4.02,7.02,1.45,5.96-2.48"/>
      <path d="M204.24,791.24c-11.93-35.84-23.03-71.97-33.13-108.35-11.49-41.38-21.7-83.1-30.36-125.18-.84-4.1,5.53-5.07,6.41-1.02.23,1.03.45,2.07.68,3.1,8.74,39.82,18.48,79.42,29.41,118.7.55,1.97,1.1,3.96,1.66,5.93,9.81,34.86,20.56,69.47,32.39,103.71,1.62,4.68-5.5,7.84-7.06,3.12"/>
      <path d="M362.86,778.18c-50.73-8.93-105.7-7.22-154.76,9.44-3.75,1.27-2.08,7.76,1.83,6.78,24.72-6.18,49.4-11.14,74.89-12.59,25.77-1.47,51.61.13,77.03,4.58,5.26.92,6.24-7.29,1.01-8.21"/>
      <path d="M397.51,781.52c-6.17,13.14-22.03,12.72-29.3.82-2.09-3.42-7.53-.05-6.01,3.51,8.11,18.89,35.73,18.02,42.73-1.38,1.76-4.86-5.24-7.6-7.42-2.95"/>
      <path d="M550.46,777.32c-1.2-3.98-2.37-8.01-3.9-11.88-1.4-3.58-7.51-2.11-6.64,1.8.49,2.2,1.08,4.39,1.72,6.56-46.28-9.6-95.88-10.3-141.06,4.89-3.68,1.24-2.04,7.55,1.8,6.64,47.62-11.21,96.24-15.01,144.19-2.89,3.01.76,4.59-2.79,3.89-5.12"/>
      <path d="M536.64,545.58c-28.34,20.28-57.62,38.99-86.76,58.06-2.4,1.57.05,5.86,2.57,4.41,30.39-17.44,59.49-37.28,88.09-57.47,3.34-2.35-.58-7.37-3.9-5"/>
      <path d="M561.4,556.52c-6.07,2.79-11.42,7.49-16.89,11.31-5.96,4.17-11.96,8.28-17.99,12.35-5.72,3.85-11.45,7.68-17.21,11.46-6.21,4.07-13.7,7.67-18.95,12.9-2.25,2.24-.36,6.13,2.9,4.97,6.59-2.35,12.61-7.27,18.45-11.08,6.09-3.98,12.15-8,18.16-12.1,6-4.1,11.98-8.25,17.92-12.44,5.73-4.05,12.23-7.84,17.02-13,1.96-2.11-.96-5.49-3.41-4.37"/>
      <path d="M277.08,381.49c-.79-13.07,1.24-34.22-13.99-40.05-8.03-3.07-18.24-1.34-26.49-.26-10.49,1.38-21,3.79-30.94,7.46-2.19.81-2.95,2.55-2.75,4.27-1.84.53-3.34,2.11-3.01,4.56,1.35,10.07,3.12,20.07,5.42,29.97,1.74,7.45,2.89,17.36,7.8,23.51,4.08,5.11,10.57,6.37,16.79,6.28,9.31-.14,18.75-1.72,27.79-3.9,6.41-1.55,13.48-3.45,17.36-9.26,4.29-6.44,2.46-15.36,2.02-22.58M268.67,396.31c-1.85,7.84-14.53,8.54-21.04,9.66-7.1,1.23-16.63,3.7-23.75,1.58-7.78-2.32-8.81-16.76-10.38-23.57-2.03-8.87-3.64-17.82-4.91-26.82.19-.04.37-.06.57-.12,8.72-2.74,17.44-5.12,26.49-6.54,7.2-1.13,17.11-3.38,24.19-.9,7.85,2.75,7.51,13.2,7.88,20,.23,4.35.46,8.71.69,13.06.23,4.22,1.24,9.49.26,13.65Z"/>
      <path d="M274,263.71c-1.52-7.98-3.26-17.58-10.15-22.81-7.31-5.55-17.22-3.8-25.65-2.84-12.78,1.46-26.16,2.13-38.74,4.82-7.81,1.66-16.1,8.47-12.79,16.91,1,10.93,3.03,21.84,5.41,32.54,1.82,8.2,3.27,18.21,9.68,24.29,7.14,6.78,16.63,4.93,25.3,2.86,10.71-2.56,21.65-4.72,32.21-7.84,21.31-6.29,18.04-30.47,14.73-47.92M266.11,296.16c-3.72,8.7-18.45,9.2-26.44,11.05-4.61,1.07-9.22,2.14-13.83,3.2-4.46,1.02-10.29,3.01-14.84,1.39-8.08-2.87-9.08-17.15-10.62-24.12-2.32-10.45-3.93-20.99-5.81-31.52,2.16-6.38,24.71-6.74,28.96-7.26,9.21-1.12,19.42-3.8,28.7-3.09,10.87.84,12.12,12.58,13.58,21.31,1.45,8.67,3.9,20.64.3,29.04Z"/>
      <path d="M282.12,219.45c-21.1,16.67-37.63,39.05-50.61,62.53-4.35-4.85-7.99-10.3-12.79-14.6-3.31-2.96-7.25,1.42-6.2,4.84,2.55,8.31,10.98,15.78,17.3,21.4,2.51,2.24,5.96.4,7.25-2.06,13.25-25.11,30.96-46.45,49.91-67.38,2.63-2.9-1.89-7.09-4.86-4.74"/>
      <path d="M275.94,332.44c-15.02,13.68-26.12,31.5-34.39,50.02-4.52-4.82-9.14-9.73-14.4-13.42-3.68-2.58-7.8,1.91-5.37,5.51,4.75,7.03,11.72,12.96,17.62,19.04,2.42,2.49,6.5,2.35,7.98-1.14,8.55-20.19,20.65-37.6,33.42-55.26,2.18-3.02-1.92-7.43-4.86-4.74"/>
      <path d="M322.99,247.99c-10.66.14-23.09,1.31-32.84,5.94-3.84,1.82-2.49,8.11,2,7.4.55-.03,1.1-.07,1.66-.1.94.07,1.7-.18,2.29-.6,2.08-.38,4.12-.78,6.16-1.17.74,9.03,2.44,18.84,4.9,27.37,1.3,4.51,7.65,2.07,7.45-2.02-.42-8.64-2.08-18.2-4.25-26.81,4.49-.73,9.03-1.28,13.8-1.39,5.62-.14,4.34-8.69-1.17-8.62"/>
      <path d="M364.37,261.72c-4.66-6.54-9.71-12.76-14.97-18.84-2.59-2.99-7.05-1.58-7.81,2.17-1.33,6.56-2.67,13.12-3.99,19.68-1.14,5.64-3.83,12.72-2.36,18.36.71,2.71,4.08,4.05,6,1.54,2.1-2.75,3.06-6.4,3.72-10.09,2.8-.29,5.59-.77,8.36-1.17,2.57-.37,4.96-.51,6.65-2.08,2.79,4.55,5.53,9.29,9.27,12.81,2.32,2.19,6.95-.5,6.14-3.62-1.79-6.86-6.93-13.04-11.01-18.76M352.2,265.04c-1.92.29-3.85.55-5.78.86.7-3.49,1.38-6.98,2.06-10.47,2.41,2.99,4.73,6.04,6.98,9.15-1.03.08-2.11.28-3.26.46Z"/>
      <path d="M389.75,258.1c-4.71.49-11.21-.37-7.8-6.92,2.86-5.5,10.32-4.97,15.49-5.94,4.17-.79,4.24-6.76-.05-7.45-7.72-1.24-17.42,1.11-22.06,7.89-3.62,5.3-3.82,13.08.99,17.68,5.21,4.98,12.07,3.06,18.47,2.61,4.69-.33,9.05,1.82,6.59,7.16-2.29,4.95-8.03,4.82-12.78,3.54-.33-.23-.72-.42-1.19-.55-.76-.21-1.52-.41-2.28-.62-5.14-1.41-8.33,5.76-3.14,7.9,7.51,3.1,16.91,4.04,23.47-1.74,5.06-4.46,6.74-12.88,3-18.65-4.3-6.61-11.95-5.62-18.71-4.92"/>
      <path d="M454.08,268.35c-2.7-3.69-7.72-5.82-11.69-7.94-3-1.59-6.43-3.6-9.91-4.53,3.82-4.95,7.43-10.1,10.41-15.49-.02,0-.04-.02-.06-.03,1.46-3.76-3.65-7.87-7.05-3.94-4.39,5.09-8.21,10.91-11.75,16.79-1.27-4.77-2.7-9.69-5.5-13.31-1.8-2.33-6.18-1.39-6.35,1.76-.36,6.37,2.75,12.87,4.59,18.91,1.86,6.09,2.93,14.64,7.24,19.43,2,2.22,5.83,1.42,6.26-1.73.67-5.03-1.51-10.46-3.34-15.46.08-.1.17-.2.25-.3,3.04,2.37,7.14,3.67,10.5,5.44,3.83,2.01,7.64,5.44,11.81,6.53,3.66.96,7.09-2.71,4.59-6.13"/>
      <path d="M332.76,346.65c-6.36-2.77-13.26-3.85-18.64.23-2,0-4.05,1.49-3.88,4.11.75,11.28,1.29,22.83,3.17,33.99.66,3.9,4.86,4.3,6.98,2.18,14.57.93,35.53-8.95,29.41-26.12-2.66-7.47-10.2-11.42-17.04-14.4M333.38,376.46c-3.96,1.55-8.06,1.43-12.14,1.72-.67-8.36-1.94-16.75-3.16-25.04,6.93-3.49,22.16,4.49,23.7,11.52,1.2,5.5-3.77,9.98-8.4,11.8Z"/>
      <path d="M358.24,348.36c-.11.18-.2.36-.28.54-7.88,3.88-4.34,18.23.74,23.28,6.79,6.75,18.55,6.33,25.16-.48,6.63-6.84,6.15-18.65-.76-25.12-6.57-6.16-19.71-6.48-24.86,1.79M377.04,365.75c-3.52,3.2-9.75,3.04-12.68-.83-1.31-1.72-1.93-3.99-1.81-6.15.11-1.98,1.11-3.61,1.37-5.43,3.97-2.38,9.15-3.95,13.01-.33,3.41,3.2,3.6,9.55.11,12.74Z"/>
      <path d="M422.37,336.15c-1.06-3.04-6.04-3.06-7.04.05-1.47,4.63-.84,9.5-.78,14.32.03,1.8.05,3.6.07,5.4-5.05-4.96-10.12-9.92-15.34-14.68-2.77-2.53-7.63.57-6.95,4.1,1.61,8.34,1.21,16.38.75,24.8-.28,5.17,6.68,5.86,7.84.96,1.14-4.79,1.45-9.73,1.28-14.66,4.76,4.66,9.59,9.26,14.35,13.89,3.15,3.06,7.21-.92,7.17-4.23l-.21-15.67c-.07-4.79.44-9.73-1.14-14.29"/>
      <path d="M462.39,353.71c-3.32.46-6.65.92-9.98,1.38-3.45.48-7.88,2.43-9.23-1.33-.61-1.71-.81-3.79-.93-5.85,1.4-.03,2.81-.07,4.21-.16,2.21-.14,4.66.02,6.34-1.61,1.29-1.26,1.6-3.39-.05-4.57-2.09-1.49-4.35-1.03-6.77-.81-1.45.13-2.89.31-4.32.5-.24-1.86-.47-3.73-.7-5.59,5.32-.89,10.69-1.34,16.1-1.34,4.44,0,5.54-6.55.86-7.05-7.47-.81-14.71-.44-22.11.93-2.23.41-3.8,2.34-3.54,4.66.69,6.19,1.39,12.38,2.11,18.57.44,3.75.36,8.28,3.26,11.11,2.31,2.26,5.1,2.34,8.14,2.08,5.93-.53,11.86-1.59,17.76-2.39,5.49-.74,4.33-9.27-1.15-8.51"/>
      <path class="cls-1" d="M187.86,507.25l16.81,63.89s19.87,1.53,40.04,6.11c20.18,4.59,28.74,9.48,29.96,7.64,1.22-1.83-8.56-67.25-8.56-67.25,0,0-33.32-10.7-47.69-10.7s-30.56.31-30.56.31"/>
      <path d="M277.29,580.74c-22.84-8.21-46.75-12.86-70.97-14.02-4.08-20.18-9.37-39.81-16.98-59.02-1.69-4.25-8.15-1.53-6.54,2.72,7.32,19.42,13.61,39.48,17.6,59.87.26,1.35,1.35,2.72,2.84,2.81,24.44,1.34,48.33,6.15,71.44,14.19,4.27,1.48,6.91-5.01,2.61-6.55"/>
      <path d="M267.92,516.16c-25.77-10.98-54.37-15.93-82.28-12.56-3.9.47-2.99,6.12.81,5.95,27.16-1.22,53.74,2.52,79.02,12.77,3.96,1.6,6.38-4.48,2.45-6.16"/>
      <path d="M280.05,581.03c-.07,4.08-5.9,3.48-6.65.04-2.2-10.09-2.68-20.69-4.49-30.9-1.07-5.94-2.42-11.83-3.73-17.74-.57-2.55-1.12-5.12-1.63-7.68-.35-1.71-.67-3.41-.97-5.12-.6-3.48,4.8-4.95,5.99-1.62,1.08,3,2.01,6.09,2.84,9.21.57,2.13,1.09,4.27,1.56,6.42,1.18,5.19,2.15,10.42,3.08,15.57,1.87,10.31,4.2,21.31,4,31.82"/>
      <path d="M272.97,533.64c-.53.3-1.18.41-1.92.23-1.96-.47-3.92-.94-5.87-1.44-11.32-2.81-22.49-5.72-34.12-7.43-13.57-1.97-27.17-2.29-40.8-3.52-3.23-.3-3.27-5.41-.04-5.68,13.77-1.14,28.04.45,41.66,2.52,10.47,1.59,21.32,3.49,31.67,6.43,2.66.74,5.29,1.56,7.86,2.47.57,2.13,1.09,4.27,1.56,6.42"/>
      <path class="cls-2" d="M216.54,589.85c-1.68-2.07-4.52-2.69-6.96-1.7-2.06.84-3.51,3.29-3.29,5.53,0,1.13.08,2.08.54,3.18.47,1.13,1.29,2.11,2.26,2.85.89.68,2.32,1.08,3.44.89.39-.11.78-.21,1.18-.32.79-.34,1.45-.85,1.97-1.54.7-.72,1.15-1.62,1.39-2.6,1.05-1.99.93-4.47-.53-6.29"/>
      <path class="cls-2" d="M221.11,615.15c-3.78-2.59-9.39-.16-9.77,4.52-.21,2.49,1.26,5.1,3.67,5.99.09.03.19.05.28.08,2.04.98,4.61.79,6.51-.73,3.18-2.54,2.51-7.66-.69-9.86"/>
      <path class="cls-2" d="M224.73,637.02c-4.39.02-7.35,4.76-5.57,8.76.47,1.06,1.48,2.01,2.64,2.43.16.07.31.14.48.2,3.34,2.01,7.78-.06,8.74-3.81,1.02-4.01-2.32-7.59-6.29-7.57"/>
      <path class="cls-2" d="M239.79,673.04c-.43-3.58-3.78-6.33-7.38-5.96-.23.02-.46.07-.69.12-.11,0-.21-.03-.31-.02-2.89.02-5.62,1.84-6.61,4.6-1.06,2.97.04,6.32,2.45,8.28,5.16,4.2,13.32-.48,12.54-7.01"/>
      <path d="M303,611.88c-11.43-5.32-23.59-9.22-35.8-12.29-12.04-3.03-24.84-5.81-37.32-5.68-4.13.04-3.63,6.24.05,6.91,11.77,2.14,23.59,3.15,35.26,6.06,12.05,3,23.55,7.32,35.04,11.98,4.5,1.83,7.13-4.95,2.77-6.98"/>
      <path d="M326.18,622.35c-1.48-5.52-9.49-6.68-14.36-6.45-3.81.18-3.63,6.15.04,6.57,2.01.23,4.02.65,5.9,1.38,2,.78,3.7,2.06,5.94,1.75,1.4-.2,2.88-1.73,2.48-3.25"/>
      <path d="M327.42,641.2c-28.19-11.83-60.16-22.15-91.08-22.2-4.47,0-5.54,6.39-.87,7.08,15.07,2.25,30.03,3.65,44.88,7.3,15.11,3.7,30.01,8.67,44.19,15.05,4.56,2.05,7.52-5.29,2.88-7.24"/>
      <path d="M296.12,649c-7.6-4.51-18.51-5.39-27.12-6.77-9.61-1.54-19.57-2.96-29.32-2.64-3.92.13-3.64,6.18.04,6.69,9.45,1.29,18.95,1.74,28.37,3.32,8.67,1.45,17.84,5.14,26.56,5.09,2.7-.02,3.75-4.34,1.47-5.69"/>
      <path d="M333.7,656.68c-9.22-2.55-18.39-5.26-28.05-5.22-4.17.01-5.12,5.81-.81,6.58,8.79,1.56,17.69,2.47,26.17,5.41,4.48,1.55,7.14-5.53,2.69-6.77"/>
      <path d="M341.8,681.59c-29.84-9.52-61.61-14.84-92.92-11.02-4.18.51-3.16,6.45.86,6.34,30.35-.8,60.44,1.6,89.34,11.52,4.48,1.54,7.23-5.4,2.72-6.84"/>
      <path d="M297.79,691.41c-11.87-6.76-31-7.22-44.06-4.16-4.22.99-3.44,6.84.9,6.65,7.17-.32,14.14-.98,21.33-.36,6.65.57,13.12,2.7,19.74,3.08,2.58.15,4.83-3.65,2.09-5.21"/>
      <path d="M342.13,698.18c-8.94-6.59-23.55-8.84-34.28-6.49-4.34.95-3.42,6.81.91,6.74,5.24-.09,10.33-.33,15.5.62,5.18.95,9.79,3.14,14.77,4.7,3.34,1.05,6.18-3.3,3.1-5.57"/>
      <path d="M414.19,568.31c-21.91,1.04-46.44,8.64-62.59,24.11-3.24,3.1.51,8.02,4.31,5.51,9.04-5.96,17.74-11.77,27.93-15.67,10.07-3.85,20.58-6.01,31.33-6.68,4.74-.3,3.68-7.49-.98-7.27"/>
      <path d="M459.71,565.63c-9.83-1.31-21.43-.96-31.1,1.12-4.13.88-3.23,6.42.86,6.37,10.04-.13,20.24-.46,30.28-.83,3.89-.14,3.63-6.17-.04-6.66"/>
      <path d="M380.91,598.99c-4.2-2.21-10.85.7-14.81,2.59-4.8,2.29-9.63,5.44-12.73,9.84-2.23,3.18,1.75,7.16,4.91,4.78,3.77-2.84,7.1-5.85,11.48-7.77,3.75-1.65,8.84-1.61,11.89-4.29,1.82-1.6,1.31-4.08-.74-5.15"/>
      <path d="M414.47,592.17c-8.2.86-17.17,2.41-24.75,5.77-3.49,1.55-2.18,7.31,1.79,6.61,8.04-1.4,15.89-3.52,23.99-4.75,4.92-.75,3.9-8.15-1.03-7.64"/>
      <path d="M412.78,611.35c-8.51-2.26-19.54,1.58-27.72,4.25-9.39,3.06-19.66,7.34-27.2,13.89-2.89,2.51-.2,8.07,3.58,6.13,8.27-4.23,15.85-9.04,24.69-12.14,4.51-1.58,9.12-2.83,13.82-3.73,4.25-.81,8.92-.71,12.88-2.47,2.3-1.02,2.81-5.17-.05-5.93"/>
      <path d="M361.6,221.13c-12.1-27.45-38.92-47.79-68.93-50.94-29.5-3.1-59.45,10.68-76.91,34.45-17.08-7.38-37.68-5.68-53.05,5.04-14.05,9.79-22.13,26.25-22.59,43.1-29.22-8.76-63.61,3.18-78.92,30.31-16.09,28.5-7.07,67.87,19.6,86.76,7.04,4.98,18.68,9.5,21.49,18.49,2.78,8.87-4.63,18.83,3.18,26.47,3.1,3.04,8.57-1.01,5.45-4.25-5.02-5.22-.06-15.34-.93-21.93-.92-7-5.17-12.1-10.53-16.38-5.76-4.59-12.44-7.87-17.96-12.77-5.61-4.97-10.12-11.2-13.31-17.96-13.49-28.52-3.84-62.88,25.19-76.94,15.55-7.54,33.78-8.75,49.65-1.58,3.1,1.4,6.19-1.52,5.9-4.61-1.49-16.21,5.62-32.59,18.9-42.15,14.02-10.09,32.68-10.49,47.8-2.76,1.52.78,3.82.02,4.75-1.35,15.64-22.93,43.46-36.76,71.3-33.84,27.2,2.85,51.27,21.11,62.02,46.12,2.17,5.07,10.12,1.75,7.9-3.29"/>
      <path d="M190.07,418.73c-7.76,8.76-18.76,13.9-30.46,9.73-11.99-4.27-19.21-16.4-20.98-28.49-.51-3.55-5.95-4.54-7.17-.88-3.77,11.25-4.87,22.79-2.78,34.49.78,4.32,7.31,3.46,6.77-.91-.73-5.81-.76-11.56-.1-17.24,4.62,9.95,12.68,18.21,23.56,21.36,13.24,3.84,31.61-.84,36.93-14.83,1.39-3.67-3.33-5.97-5.77-3.21"/>
      <path d="M250.38,431.98c-6.76,11.72-20.65,15.59-32.93,10.34-13.38-5.71-19.8-18.75-22.81-32.25-1.03-4.61-7.74-3.8-7.33.99,1.5,17.42,12.37,34.7,29.51,40.38,15.65,5.19,32.79-.72,40.47-15.6,2.06-3.97-4.65-7.79-6.91-3.86"/>
      <path class="cls-2" d="M635.68,259.4c-6.01,3.23-12.03,6.47-18.05,9.67,5.47-16,10.91-32,16.33-48.04,1.14-3.38-2.5-5.93-5.38-4.03-9.98,6.61-20.01,13.13-30.03,19.67,2.77-11.05,5.54-22.09,8.3-33.14.8-3.18-3.8-5.55-6.13-3.46-14.47,12.99-30.03,24.65-46.62,34.81-4.3,2.64-8.76,5.75-13.46,7.62-3.6,1.44-7.49,2.07-11.12,3.48-6.84,2.65-13.29,6.55-18.89,11.28-23.15,19.57-31.11,51.62-17.75,79.18,4.2,8.64,10.03,16.31,17.19,22.44-.04.32-.07.65-.02,1.02,1.35,9.84,10.15,16.81,19.73,16.43,3.36,12.44,15.71,20.49,28.43,21.7,16.85,1.6,31.35-9.32,41.52-21.68,25.51-31.01,39.16-73.45,40.97-113.14.11-2.46-2.39-5.22-5.02-3.81M589.57,340.48c-8.45,1.78-16.93,3.45-25.43,4.95-7.75,1.37-21.75,6.58-27.52-.74-5.2-6.59-8.11-16.6-9.98-24.64-2.22-9.46-2.65-19.07-2.22-28.75.03-.4-.02-.76-.09-1.1,1.98-4.37,8.26-4.65,12.64-5.31,5.41-.84,10.83-1.63,16.25-2.48,7.68-1.2,20.74-5.43,27.38.51,6.48,5.78,6.62,19.49,7.58,27.46,1.19,9.98,1.65,20.05,1.39,30.1Z"/>
      <path d="M595.07,300.25c-1.85-10.78-4.05-23.53-16.02-27.22-5.11-1.59-10.58-1.22-15.83-.56-7.6.97-15.17,2.21-22.74,3.36-10.04,1.52-25.28,2.9-24.61,16.43.04.57.17,1.05.37,1.46-.9,9.89-.06,19.94,2.25,29.58,2.29,9.5,5.68,20.76,12.27,28.24,7.08,8.05,17.08,5.63,26.39,4.03,12.44-2.13,24.81-4.62,37.11-7.44,1.72-.39,3.58-1.72,3.65-3.69.46-14.81-.32-29.58-2.84-44.2M589.57,340.48c-8.45,1.78-16.93,3.45-25.43,4.95-7.75,1.37-21.75,6.58-27.52-.74-5.2-6.59-8.11-16.6-9.98-24.64-2.22-9.46-2.65-19.07-2.22-28.75.03-.4-.02-.76-.09-1.1,1.98-4.37,8.26-4.65,12.64-5.31,5.41-.84,10.83-1.63,16.25-2.48,7.68-1.2,20.74-5.43,27.38.51,6.48,5.78,6.62,19.49,7.58,27.46,1.19,9.98,1.65,20.05,1.39,30.1Z"/>
      <path d="M342.82,789.28c-3.79-1.54-5.71-4.33-6.02-8.33-.36-4.62-7.43-3.62-7.1.96.28,3.97,1.84,7.45,4.39,10.1-42.31,19.24-82.03,43.39-117.87,73.05-39.09-57.57-74.27-117.57-105.35-179.83,17.96-10.39,36.42-20.32,53.56-31.95,3.07-2.08.04-7.34-3.31-5.67-19.46,9.7-37.98,21.62-56.74,32.6-1.69.99-3.08,2.96-2.07,5.01,32.31,65,69.13,127.83,110.13,187.72,1.12,1.64,3.82,1.91,5.31.65,37.53-31.88,79.68-58.6,125.12-77.62,2.92-1.22,2.87-5.51-.05-6.69"/>
      <path d="M562.43,696.21c-5.64.38-11.3.39-16.95-.03-4.73-.35-9.41-1.39-14.15-1.27-3.26.08-3.43,4.89-.74,5.98,9.79,3.96,22.45,3.15,32.82,2.56,4.7-.27,3.71-7.56-.98-7.24"/>
      <path d="M590.07,775.84c-.05-8.83-.11-17.66-.16-26.49-.06-9.25,1.2-19.78-.75-28.83-.72-3.37-5.25-3.35-5.95.04-1.8,8.7-.53,18.75-.51,27.63l.06,27.7c.04,17.14.28,34.28.21,51.42-36.06-6.44-73.09-7.35-109.5-3.74-4.75.47-3.74,7.78.99,7.33,37.42-3.58,74.7-1.65,111.74,4.55,2.6.43,4.17-1.93,4.14-4.19-.29-18.47-.15-36.94-.27-55.41"/>
      <path d="M472.89,774.6c-.37,16.81-.81,33.62-.82,50.43,0,4.46,6.87,5.48,7.03.86.56-16.8.7-33.61.9-50.42.06-4.55-7.01-5.51-7.11-.87"/>
      <path d="M172.61,683.53c-3.96-2.66-9.32-1.83-9.93,3.36-.44,3.75.94,7.23,3.3,9.92-3.24,2.3-7.5,3.86-11.4,3.34.63-2.73.75-5.59.27-8.44-.84-4.91-4.29-10.91-10.14-8.05-5.18,2.54-5.45,9.58-3.29,14.17,1.18,2.5,3,4.52,5.19,6.01-.69,1.16-1.49,2.28-2.43,3.34-2.55,2.88,2.21,6.33,4.77,3.54,1.26-1.37,2.34-2.86,3.24-4.46,1.29.3,2.61.48,3.95.49,5.36.04,11.3-2.14,15.52-5.85.11.04.21.1.32.14,3.38,1.34,5.64-3,3.67-5.22,1.93-4.25,1.08-9.52-3.04-12.29M147.12,694.56c-1.11-1.46-.74-2.72,1.12-3.77.44,1.29.65,2.6.65,3.94.05.93-.01,1.83-.11,2.71-.81-.79-1.43-1.75-1.66-2.89Z"/>
      <path d="M183.33,713.15c-1.27-4.15-7.57-1.54-6.25,2.6,1.61,5.05,3.95,11.85.25,16.6-2.95,3.78-6.24,2.77-8.91.47,2.2-5.29,2.83-10.99-.2-15.51-2.08-3.12-6.12-4.56-9.5-2.78-4.2,2.22-4.47,7.22-2.98,11.22,1,2.67,2.59,5.68,4.63,8.36-1.33,2.6-3.07,4.96-5.11,7.12-2.37,2.51,1.84,6.65,4.38,4.27,1.82-1.7,3.77-3.98,5.5-6.58,3.26,2.4,7.09,3.57,11.24,2.16,12.06-4.11,9.8-18.57,6.95-27.93"/>
      <path d="M198.76,768.79c-4.84,1.67-8.68-.39-11.91-3.86,1.53-5.39,1.09-11.36-1.62-16.59-.51-.96-1.39-1.92-2.58-1.95-3.87-.12-6.95,1.8-8.27,5.58-1.64,4.69,1.09,9.06,3.75,12.75.36.5.75,1.01,1.15,1.53-1.37,2.62-3.41,4.92-6.05,6.57-3.43,2.15.46,6.9,3.84,4.91,2.82-1.66,5.1-3.9,6.83-6.48,5.12,4.61,11.6,7.46,17.99,2.9,3-2.14.08-6.46-3.13-5.36M180.48,753.64c.27.87.46,1.76.57,2.65-.46-1.07-.71-2.01-.57-2.65Z"/>
      <path d="M277.71,801.82c-2.78,4.03-6.08,1.83-8.58-1.43,3.25-5.53,4.74-11.66.55-15.83-2.86-2.84-7.73-3.2-10.35.2-3.24,4.2-.76,10.88,1.03,15.12.07.16.14.32.22.48-.72.99-1.48,1.94-2.31,2.83-3.11,3.35-7.35,5.97-11.87,6.32.39-1.2.74-2.4,1.02-3.58,1.83-7.67-3.65-20-13.3-15.29-8.46,4.14-7.47,15.8-1.17,21.29,1.2,1.05,2.51,1.89,3.87,2.56-1.14,1.76-2.32,3.34-3.32,4.57-4.5,5.52-12.52,9.35-18.59,3.82-1.45-1.32-2.58-2.91-3.5-4.62,3.35-7.15,5.14-16.51-1.84-19.83-3.61-1.71-7.37.44-8.83,3.85-1.94,4.51.77,10.51,2.44,14.75.22.55.45,1.08.69,1.62-.63,1.05-1.33,2.06-2.12,3.03-2.61,3.24,2.45,6.87,5.14,3.82.2-.22.4-.47.61-.73,4.41,5.78,10.81,9.38,18.87,7.2,7.53-2.04,13.37-8.42,17.13-15.62,5.53.49,11.3-1.27,15.83-4.7,1.61-1.22,3.58-3.08,5.5-5.31,5.42,5.32,13.59,7.65,18.89-.07,2.71-3.95-3.26-8.43-6.01-4.46M234.63,802.43c-.87-5.27,5.49-8.9,6.85-1.89.45,2.33-.21,5.11-1.37,7.88-2.54-1.13-5.02-3.18-5.48-5.99Z"/>
      <path d="M564.29,801.14c-4.84,1.23-10.48,2.98-15.43,1.44-1.26-.39-2.61-1.14-3.75-2.13,4.11-2.92,10.13-7.9,6.35-13.02-3.03-4.1-9.22-2.66-12.21.7-2.54,2.85-3.29,6.49-2.62,9.91-3.2,1.9-6.57,3.6-10.07,4.8-3.97,1.36-11.47,1.82-16.18-.55,1.75-1.17,3.34-2.63,4.73-4.3,3.5-4.22,6.43-11.37.61-14.99-4.98-3.09-11.2.06-14.06,4.5-2.08,3.23-2.7,7.12-1.9,10.75-.57-.02-1.14-.08-1.7-.19-4.38-.85-5.01,5.77-.83,6.77,2.12.51,4.2.57,6.19.25,9.38,10.45,25.03,5.45,36.14-1.04.4.47.83.93,1.31,1.35,7.17,6.29,16.78,4.61,25.15,2.15,3.6-1.06,1.94-7.33-1.73-6.4M506.47,793.68c.31-1.36,1.05-3.22,2.36-3.98,3.71-2.12,2.12,1.67,1.08,3.31-.94,1.48-2.21,2.68-3.68,3.56-.07-.87,0-1.83.24-2.89ZM544.95,792.44c-.56.42-1.12.83-1.68,1.25-.13.13-.28.26-.42.39.08-.23.17-.45.3-.68.91-2.28,1.51-2.6,1.8-.96Z"/>
      <path d="M579.05,738.47c-4.3-4.83-11.93-4.29-15.17,1.57-.71,1.28-1.12,2.6-1.31,3.92-1.72-.24-3.38-.95-4.8-2.24-1.55-1.42-2.39-3.22-2.67-5.13,5.52-2.43,9.01-8.26,7.95-14.89-.33-2.08-2.64-3.66-4.69-2.69-5.14,2.42-8.64,7.38-9.7,12.76-3.2.36-3.29,5.57-.14,5.98.43,2.78,1.57,5.46,3.58,7.77,2.94,3.38,7.07,5,11.3,5.15,1.39,3.8,4.15,7.28,7.08,9.74,2.79,2.35,6.09-1.62,4.25-4.36-1.41-2.1-3.26-3.89-4.37-6.19-.05-.08-.08-.16-.13-.24,3.64-1.29,6.87-3.71,8.87-7.09.72-1.22.99-2.89-.05-4.06"/>
      <path d="M567.17,292.22c-6.18,6.76-10.36,15.56-13.44,24.38-3.19-3.26-6.56-6.47-10.45-8.3-2.93-1.37-6.59,2.17-5.06,5.13,3.21,6.18,9.85,10.98,14.81,15.78,2.09,2.02,6.45.65,7.22-2.05,3.19-11.16,8.56-20.9,13.15-31.47,1.72-3.98-3.64-6.32-6.23-3.47"/>
      <path d="M695.59,507.9c-11.37-30.25-23-60.4-34.43-90.62-.51-1.34-2.18-2.35-3.62-2.07-23.77,4.61-47.51,9.44-71.33,13.83-1.44.27-2.34,1.17-2.74,2.25-.74.54-1.21,1.44-1.08,2.66,3.67,32.6,12.62,64.86,23.99,95.57.53,1.45,2.44,2.66,4.01,2.3,27.45-6.2,54.87-12.53,82.29-18.85,2.35-.54,3.8-2.69,2.91-5.07M588.8,435.92c22.3-4.66,44.68-8.96,67.02-13.42,10.51,28.04,20.87,56.14,31.44,84.16-24.99,5.62-49.99,11.24-74.96,16.96-10.45-28.61-17.6-57.87-23.5-87.71Z"/>
      <path d="M651.4,455.58c-.82.38-1.57.52-2.27.49,2.07-1.98,3.89-4.2,5.33-6.5,3.41-5.43,2.14-13.33-5.5-13.38-9.73-.06-12.43,11.15-9.65,19.09-3.29,1.88-7,2.84-10.86,1.91-.77-.19-1.51-.44-2.2-.75,2.32-2.73,4.11-5.83,4.92-9.1,1.52-6.13-2.79-12.08-9.47-9.71-6.87,2.45-8.41,11.25-5.72,17.26.2.45.42.88.65,1.29-1.72,1.38-3.57,2.65-5.49,3.86-2.97,1.86-.05,6.48,3.04,5.21,2.41-.99,4.86-2.41,7.13-4.16,3.64,2.38,8.29,3.28,12.71,2.74,3.07-.38,6.06-1.47,8.83-3.04,2.64,2.32,6.37,3.09,11.05.81,3.75-1.83,1.31-7.8-2.5-6.02M621.62,445.89c1.04.17,2.09.33,3.14.5-.39.71-.78,1.42-1.16,2.13-.63,1.01-1.32,1.94-2.04,2.83-.36-1.1-1.11-4.63.06-5.45ZM645.88,445.18c.25-1.44,1.01-1.69,2.28-.73,1.85-.03,2.16.51.91,1.61-.25,1.16-2.19,2.85-2.96,3.68-.46.49-.94.97-1.43,1.45-.44-2.14-.12-4.5,1.2-6.01Z"/>
      <path d="M652.91,480.3c-6.28,4.65-10.78,10.64-13.64,17.65-4.56-5.6-8.28-11.68-11.34-18.4-1.83-4-7.9-1.48-6.31,2.62,3.68,9.42,9.22,17.92,16.2,25.24,2.34,2.45,5.74,1.35,6.55-1.82,2.08-8.14,6.74-15.4,12.52-21.42,2.25-2.35-1.54-5.69-3.98-3.88"/>
      <path class="cls-2" d="M787.59,56.41c-4.67,3.22-9.35,6.43-14.04,9.63,5.85-15.57,11.7-31.15,17.38-46.78,1.07-2.96-2.57-6.16-5.18-3.88-15.46,13.47-31.61,26.33-48.28,38.31.44-2.72.87-5.45,1.32-8.17.61-3.69-4.03-4.79-6.16-2.47-10.07,11-25.03,15.62-36.53,24.83-10.16,8.14-16.74,20.01-18.52,32.9-3.81,27.57,17.69,55.38,46.35,54.81,25.47-.52,48.82-24.26,54.47-48.08.45-1.89-1.23-3.67-3.02-3.98,5.87-14.35,11.82-28.66,17.7-43,1.39-3.41-2.7-6.03-5.49-4.11M742.92,114.07c-1.24,5.82-8.55,5.45-13.14,6.3-4.12.77-14.35,4.6-17.39.34-2-2.79-1.6-9.61-1.94-13.09-.44-4.44-.61-8.89-.75-13.36.17,0,.35,0,.53-.04,9.77-1.65,19.93-4.57,29.79-5.25,3.11-.22,2.3-.57,2.41,2.3.1,2.6.12,5.2.18,7.8.12,4.55,1.25,10.52.31,14.99Z"/>
      <path d="M750.04,105.91c-.09-4.09-.21-8.18-.34-12.27-.08-2.75.39-6.4-.88-8.99-2.7-5.51-9.73-3.11-14.39-2.37-8.43,1.33-16.85,2.66-25.26,4.09-.65.11-1.21.34-1.66.67-.4.1-.78.28-1.16.52-.27.18-.54.35-.8.54-.47.34-.85.82-1.09,1.36-1,.45-1.78,1.32-1.82,2.65-.26,7.73.21,15.48,1.29,23.14.7,4.94,1.26,11.21,6.17,13.87,5.57,3.04,13.77-.22,19.47-1.31,5.65-1.08,13.52-1.27,17.67-5.88,3.86-4.3,2.94-10.71,2.8-16.01M742.92,114.07c-1.24,5.82-8.55,5.45-13.14,6.3-4.12.77-14.35,4.6-17.39.34-2-2.79-1.6-9.61-1.94-13.09-.44-4.44-.61-8.89-.75-13.36.17,0,.35,0,.53-.04,9.77-1.65,19.93-4.57,29.79-5.25,3.11-.22,2.3-.57,2.41,2.3.1,2.6.12,5.2.18,7.8.12,4.55,1.25,10.52.31,14.99Z"/>
      <path d="M748.36,75.49c-8.35,9.59-15.77,20-23.01,30.47-1.66-2.12-3.54-4.04-5.78-5.78-3.47-2.7-6.9,2.44-3.95,5.32,2.54,2.48,4.65,5.3,6.27,8.46,1.27,2.49,4.6,3.17,6.42.79,8.78-11.51,17.6-23.13,25.03-35.56,2.03-3.41-2.33-6.74-4.98-3.7"/>
      <path d="M735.37,274.87c-1.77-3.79-7.31-3.79-10.8-4.21-6.3-.77-12.74-1.22-19.08-.71-2.07.17-3.12,1.96-3.12,3.74-.97.41-1.79,1.25-2.11,2.52-1.86,7.38-3.98,23.66,3.6,28.82,6.21,4.25,21.66,2.32,27.33-2.32,3.73-3.04,3.55-7.86,3.84-12.29.28-4.14,2.22-11.52.34-15.54M728.54,282.6c-.26,3.6.06,8.07-.83,11.58-1.18,4.59-4.66,4.68-8.74,5.25-2.88.4-7.38,1.44-10.15.41-5.65-2.11-2.54-17.36-1.83-22.46,6.28.22,12.54.21,18.79.9.32.02,2.81.54,3.22.15.07,1.09-.42,3.59-.46,4.17Z"/>
      <path d="M725.91,278.2c-3.49,2.79-6.05,6.17-8.68,9.6-.56-1.03-1.13-2.06-1.7-3.09-1.9-3.46-7.64-1.07-5.7,2.37,1.48,2.62,2.88,5.3,4.61,7.77,1,1.43,3.58,1.48,4.53-.05,2.91-4.72,7.28-8.57,10.81-12.82,1.99-2.38-1.49-5.69-3.87-3.78"/>
      <path class="cls-2" d="M817.36,294.66c-3.47-5.67-5.57-11.76-8.06-17.88-1.35-3.3-6.56-1.93-6.05,1.64,1.08,7.42,4.58,14.33,8.46,20.65,2.41,3.92,8.02-.52,5.65-4.41"/>
      <path class="cls-2" d="M843.47,210.66c-.08-3.43-5.64-3.31-5.95.04-1.29,13.85-1.9,27.76-2.42,41.65-.5,13.38-1.49,26.96-.82,40.34.2,4.02,6.48,3.83,6.94-.04,1.63-13.76,1.52-27.87,1.91-41.71.39-13.42.67-26.85.34-40.28"/>
      <path class="cls-2" d="M881.01,252.09c-5.02,12.3-8.81,25.09-12.67,37.79-1.27,4.19,4.92,6.81,6.42,2.55,4.52-12.79,9.07-25.61,12.4-38.78.9-3.59-4.82-4.84-6.15-1.57"/>
    </g>
  </g>
</svg>