<?xml version="1.0" encoding="UTF-8"?>
<svg id="Layer_2" data-name="Layer 2" xmlns="http://www.w3.org/2000/svg" viewBox="0 0 198.8 169.58">
  <defs>
    <style>
      .cls-1 {
        fill: #ffb743;
      }

      .cls-2 {
        fill: #fd5f2f;
      }

      .cls-3 {
        fill: #fff;
      }
    </style>
  </defs>
  <g id="Layer_1-2" data-name="Layer 1">
    <path class="cls-1" d="M35.38,85.75c0-6.13-4.97-11.1-11.1-11.1s-11.1,4.97-11.1,11.1,4.97,11.1,11.1,11.1,11.1-4.97,11.1-11.1"/>
    <path class="cls-1" d="M111.12,125.26c-1.05.1-2.1.21-3.14.32-20.64,2.35-40.68.7-55.28-15.83-8.14-9.21-12.24-21.01-12.94-33.17-.76-13.36,6.91-27.04,17.05-36.27,7.07-6.44,16.93-7.77,25.8-10.28,9.67-2.74,16.91-9.33,24.71-15.35,24.81-19.16,61.55-7.42,77.24,17.81,18.88,30.37-.77,72.53-31.93,85.2-5.36,2.18-10.96,3.76-16.64,4.89-8.07,1.61-16.58,1.9-24.87,2.68"/>
    <rect class="cls-3" x="112.54" y=".42" width="69.4" height="52.91"/>
    <rect class="cls-2" x="112.54" y=".42" width="69.4" height="7.76"/>
    <path d="M181.94,53.75h-69.4c-.23,0-.42-.19-.42-.42V.42c0-.23.19-.42.42-.42h69.4c.23,0,.42.19.42.42v52.91c0,.23-.19.42-.42.42M112.96,52.91h68.56V.84h-68.56v52.07Z"/>
    <path d="M181.94,8.6h-69.4c-.23,0-.42-.19-.42-.42s.19-.42.42-.42h69.4c.23,0,.42.19.42.42s-.19.42-.42.42"/>
    <path d="M119.1,4.29c0,.83-.67,1.49-1.49,1.49s-1.5-.67-1.5-1.49.67-1.49,1.5-1.49,1.49.67,1.49,1.49"/>
    <path class="cls-3" d="M130.15,4.29c0,.83-.67,1.49-1.5,1.49s-1.49-.67-1.49-1.49.67-1.49,1.49-1.49,1.5.67,1.5,1.49"/>
    <path class="cls-1" d="M124.62,4.29c0,.83-.66,1.49-1.49,1.49s-1.49-.67-1.49-1.49.66-1.49,1.49-1.49,1.49.67,1.49,1.49"/>
    <rect class="cls-2" x="33.4" y="32.37" width="118.58" height="95.97"/>
    <rect class="cls-3" x="33.4" y="32.37" width="118.58" height="7.71"/>
    <rect x="33.4" y="109.82" width="118.58" height="9.02"/>
    <rect class="cls-1" x="57.55" y="110.44" width="4.14" height="7.77"/>
    <path d="M151.98,128.83H33.4c-.23,0-.42-.19-.42-.42V32.43c0-.23.19-.42.42-.42h118.58c.23,0,.42.19.42.42v95.97c0,.23-.19.42-.42.42M33.82,127.99h117.74V32.85H33.82v95.14Z"/>
    <path d="M149.01,38.65c-.1,0-.21-.04-.29-.12l-3.55-3.54c-.16-.16-.16-.43,0-.59.17-.16.43-.16.6,0l3.54,3.55c.16.16.16.43,0,.59-.08.08-.19.12-.3.12"/>
    <path d="M145.47,38.65c-.11,0-.22-.04-.3-.12-.16-.16-.16-.43,0-.59l3.55-3.55c.16-.16.43-.16.59,0,.16.16.16.43,0,.59l-3.54,3.54c-.09.08-.19.12-.3.12"/>
    <path class="cls-3" d="M118.24,92.72h-53.5c-8.64,0-15.65-7.01-15.65-15.65s7.01-15.65,15.65-15.65h53.5c8.64,0,15.65,7.01,15.65,15.65s-7.01,15.65-15.65,15.65"/>
    <path d="M118.24,93.14h-53.5c-8.86,0-16.07-7.21-16.07-16.07s7.21-16.07,16.07-16.07h53.5c8.86,0,16.07,7.21,16.07,16.07s-7.21,16.07-16.07,16.07M64.74,61.84c-8.4,0-15.23,6.83-15.23,15.23s6.83,15.23,15.23,15.23h53.5c8.4,0,15.23-6.83,15.23-15.23s-6.83-15.23-15.23-15.23h-53.5Z"/>
    <path class="cls-1" d="M66.79,70.85c0-.51.18-.94.53-1.29.36-.36.79-.54,1.3-.54h4.13c.77,0,1.5.15,2.18.44.69.29,1.29.7,1.8,1.21.51.51.91,1.11,1.21,1.8.29.69.44,1.42.44,2.2s-.15,1.52-.44,2.19c-.3.68-.7,1.27-1.21,1.78-.51.51-1.11.91-1.8,1.21-.68.29-1.41.44-2.18.44h-2.29v2.62c0,.52-.18.95-.53,1.31-.36.36-.8.53-1.31.53s-.94-.18-1.3-.53c-.35-.36-.53-.79-.53-1.31v-12.07M70.46,72.42v4.47h2.02c.31,0,.6-.06.87-.18.27-.12.51-.28.7-.48.2-.2.36-.44.48-.7.11-.27.17-.55.17-.86s-.06-.6-.17-.87c-.12-.27-.28-.51-.48-.71-.19-.2-.43-.36-.7-.48-.27-.12-.56-.18-.87-.18h-2.02Z"/>
    <path class="cls-1" d="M83.44,81.37h4.7c.46,0,.86.17,1.2.49.33.33.5.73.5,1.21s-.17.88-.5,1.21c-.34.33-.74.49-1.2.49h-6.55c-.5,0-.93-.18-1.29-.54-.36-.36-.54-.79-.54-1.29v-12.09c0-.51.18-.93.54-1.29.36-.36.79-.53,1.29-.53s.96.18,1.31.53c.36.36.54.79.54,1.29v10.52"/>
    <path class="cls-1" d="M101.01,81.91h-6.44l-.76,1.79c-.14.33-.36.6-.67.79-.31.19-.64.28-.99.28-.17,0-.36-.03-.56-.09-.21-.06-.41-.17-.59-.32-.19-.15-.34-.34-.46-.57-.13-.23-.19-.51-.19-.85,0-.24.05-.48.16-.73l5.59-12.32c.35-.76.93-1.13,1.74-1.13s1.42.38,1.75,1.13l5.47,12.32c.1.24.15.48.15.73,0,.52-.17.95-.52,1.3-.35.35-.78.53-1.28.53-.35,0-.68-.09-.99-.28-.31-.19-.53-.45-.67-.79l-.74-1.79M95.91,78.76h3.82l-1.89-4.6-1.93,4.6Z"/>
    <path class="cls-1" d="M111.49,78.26v4.66c0,.52-.18.95-.55,1.31-.36.36-.79.54-1.3.54s-.93-.18-1.29-.54c-.36-.36-.53-.79-.53-1.31v-4.66l-4.41-6.36c-.21-.31-.32-.65-.32-1.03,0-.29.06-.56.17-.79.11-.23.25-.43.43-.59.17-.16.37-.28.59-.36.21-.08.43-.11.64-.11.29,0,.57.07.84.2.26.13.49.33.67.6l3.21,4.62,3.21-4.62c.19-.27.41-.47.68-.6.26-.13.54-.2.84-.2.21,0,.42.04.64.11.21.08.41.2.58.36.18.16.32.36.44.59.11.23.16.49.16.79,0,.38-.1.72-.31,1.03l-4.39,6.36"/>
    <path class="cls-3" d="M180.09,117.13c-3.36-11.95-8.81-21.82-14.44-25.78-5.64-3.96-15.76-2.09-15.76-2.09,0,0-8.77-5.75-19.19-14.88-10.42-9.13-15.27-6.95-18-4.26-2.74,2.69-4.31,8.54-.03,12.73,3.36,3.29,10.75,9.37,13.79,11.84-2.45.07-4.95.94-6.72,3.34-1.62,2.2-1.63,4.37-1.31,5.86-1.82.34-3.54,1.28-4.93,3.2-1.61,2.21-1.4,4.81-.47,7.23,0,0-3.74-.52-5.75,3.33-2.43,4.64.54,8.52,6.1,13.23,3.24,2.74,26.31,21.24,44.03,33.59,10.79,7.52,25.5,5.83,34.29-3.96,10.76-11.97,8.22-30.73-5.34-39.4l-6.27-4"/>
    <path d="M172.29,169.58c-5.25,0-10.54-1.55-15.12-4.75-17.8-12.41-41.17-31.17-44.06-33.62-5.57-4.72-8.76-8.86-6.2-13.74,1.6-3.07,4.28-3.53,5.52-3.57-.92-2.75-.67-5.11.73-7.04,1.24-1.71,2.85-2.81,4.78-3.28-.24-1.52-.12-3.64,1.46-5.79,1.44-1.95,3.49-3.12,5.98-3.43-3.39-2.77-9.91-8.17-13-11.2-1.82-1.78-2.78-4.01-2.78-6.45s1.07-5.18,2.8-6.88c2.78-2.73,7.72-5.27,18.58,4.24,9.57,8.39,17.84,13.98,19,14.75,1.4-.24,10.53-1.59,15.91,2.19,5.66,3.98,11.1,13.64,14.57,25.86l6.12,3.92c6.57,4.2,10.94,11.03,11.98,18.76,1.05,7.72-1.33,15.48-6.55,21.27-5.18,5.77-12.42,8.77-19.72,8.77M112.55,114.72c-.98,0-3.42.31-4.9,3.13-2.31,4.4.59,8.13,6.01,12.71,2.88,2.44,26.21,21.17,43.99,33.57,10.6,7.39,25.1,5.72,33.74-3.89,5.05-5.61,7.36-13.12,6.34-20.6-1.01-7.48-5.24-14.1-11.6-18.16l-6.26-4c-.09-.06-.15-.14-.18-.24-3.36-11.93-8.83-21.73-14.28-25.56-5.43-3.81-15.35-2.04-15.45-2.02-.1.02-.21,0-.3-.06-.09-.06-8.91-5.87-19.23-14.91-10.33-9.05-14.9-6.78-17.44-4.28-1.58,1.55-2.55,3.96-2.55,6.28s.87,4.23,2.52,5.85c3.35,3.28,10.74,9.35,13.76,11.81.14.11.19.29.13.46-.05.17-.21.28-.38.28-1.89.05-4.53.65-6.39,3.17-1.55,2.1-1.53,4.17-1.24,5.53.02.11,0,.22-.06.32-.07.09-.16.16-.27.18-1.93.36-3.45,1.35-4.67,3.03-1.32,1.82-1.46,4.12-.42,6.84.05.14.03.29-.06.41-.09.12-.24.18-.39.16-.02,0-.18-.02-.42-.02Z"/>
    <path d="M186.67,121.34c2.76,9.85.67,20.93-6.82,29.26-7.28,8.09-17.94,11.55-28.09,9.94,1.93,1.35,3.83,2.67,5.65,3.94,10.79,7.52,25.5,5.83,34.29-3.96,10.68-11.87,8.25-30.43-5.03-39.19"/>
    <path d="M160.01,96.49c-.08,0-.16-.02-.24-.07l-10.12-6.81c-.19-.13-.24-.39-.11-.58.13-.19.39-.24.58-.11l10.12,6.81c.19.13.25.39.12.58-.09.12-.22.19-.35.19"/>
    <path d="M123.23,121.76c-.09,0-.17-.02-.24-.07l-10.2-7.01c-.19-.13-.24-.39-.11-.58.14-.19.4-.24.59-.11l10.19,7.01c.19.13.24.39.11.58-.08.12-.21.18-.34.18"/>
    <path d="M128.54,110.9c-.08,0-.16-.02-.23-.07l-10.11-6.58c-.19-.13-.25-.39-.12-.58.12-.19.38-.25.58-.12l10.11,6.58c.19.13.25.39.12.58-.08.12-.21.19-.35.19"/>
    <path d="M136.25,101.68c-.08,0-.17-.02-.24-.07l-9.79-6.56c-.19-.13-.24-.39-.11-.58.13-.19.39-.24.58-.12l9.79,6.56c.19.13.24.39.11.58-.08.12-.21.19-.34.19"/>
    <path d="M166.19,24.98h-11.97c-.23,0-.42-.19-.42-.42v-11.98c0-.23.19-.42.42-.42h11.97c.23,0,.42.19.42.42v11.98c0,.23-.19.42-.42.42M154.64,24.14h11.13v-11.14h-11.13v11.14Z"/>
    <rect class="cls-1" x="163.56" y="22.11" width="11.97" height="11.97"/>
    <rect class="cls-3" x=".42" y="5.85" width="62.97" height="48"/>
    <path d="M63.39,54.27H.42c-.23,0-.42-.19-.42-.42V5.85c0-.23.19-.42.42-.42h62.97c.23,0,.42.19.42.42v48c0,.23-.19.42-.42.42M.84,53.43h62.13V6.27H.84v47.17Z"/>
    <path d="M63.39,13.31H.42C.19,13.31,0,13.12,0,12.89s.19-.42.42-.42h62.97c.23,0,.42.19.42.42s-.19.42-.42.42"/>
    <path class="cls-2" d="M44.89,45.33h-19.02c-1.61,0-2.91-1.3-2.91-2.9v-19.03c0-1.6,1.3-2.9,2.91-2.9h19.02c1.61,0,2.91,1.3,2.91,2.9v19.03c0,1.6-1.3,2.9-2.91,2.9"/>
    <path d="M17.95,26.86l-5.53-4.26c-.95-.73-2.33-.05-2.33,1.15v18.32c0,1.2,1.38,1.88,2.33,1.15l5.53-4.26v-12.1"/>
    <path class="cls-3" d="M40.14,31.47c.8,2.63-.69,5.41-3.32,6.2-2.63.8-5.4-.69-6.2-3.32-.8-2.63.69-5.41,3.31-6.2,2.63-.8,5.41.69,6.21,3.31"/>
    <path d="M60.85,11.06c-.1,0-.21-.04-.29-.12l-2.91-2.91c-.16-.16-.16-.43,0-.59.16-.16.43-.16.59,0l2.91,2.91c.16.16.16.43,0,.59-.08.08-.19.12-.3.12"/>
    <path d="M57.95,11.06c-.11,0-.22-.04-.3-.12-.16-.16-.16-.43,0-.59l2.91-2.91c.16-.16.43-.16.59,0,.16.16.16.43,0,.59l-2.91,2.91c-.08.08-.19.12-.29.12"/>
    <path class="cls-1" d="M92.66,13.47c0-6.13-4.97-11.1-11.1-11.1s-11.1,4.97-11.1,11.1,4.97,11.1,11.1,11.1,11.1-4.97,11.1-11.1"/>
    <path d="M172.01,74.47c-.11,0-.22-.04-.3-.12l-5.81-5.82c-.17-.16-.17-.43,0-.59.16-.16.43-.16.59,0l5.81,5.82c.17.16.17.43,0,.59-.08.08-.18.12-.29.12"/>
    <path d="M166.19,74.47c-.1,0-.21-.04-.29-.12-.17-.16-.17-.43,0-.59l5.81-5.82c.17-.16.43-.16.59,0,.17.16.17.43,0,.59l-5.81,5.82c-.08.08-.19.12-.3.12"/>
  </g>
</svg>