<svg width="206" height="36" viewBox="0 0 206 36" fill="none" xmlns="http://www.w3.org/2000/svg">
<path fill-rule="evenodd" clip-rule="evenodd" d="M72.4367 20.1403C72.4367 15.7996 68.8333 12.2807 64.3882 12.2807C59.9431 12.2807 56.3397 15.7996 56.3397 20.1403C56.3397 24.4811 59.9431 28 64.3882 28C68.8333 28 72.4367 24.4811 72.4367 20.1403ZM60.9388 20.1403C60.9388 18.28 62.4831 16.7719 64.3882 16.7719C66.2932 16.7719 67.8375 18.28 67.8375 20.1403C67.8375 22.0006 66.2932 23.5087 64.3882 23.5087C62.4831 23.5087 60.9388 22.0006 60.9388 20.1403Z" fill="#252D3A"/>
<path d="M66.9034 0V5.40351H72.4367V10.3158H66.9034V15.7193H61.873V10.3158H56.3397V5.40351L61.873 5.40302V0H66.9034Z" fill="#EE3872"/>
<rect x="74.4492" y="5.40353" width="5.03033" height="22.5965" fill="#252D3A"/>
<rect x="83.0002" y="5.40353" width="5.03033" height="22.5965" fill="#252D3A"/>
<path d="M87.0248 14.2457V19.158H75.4551V14.2457L87.0248 14.2457Z" fill="#252D3A"/>
<path d="M47.788 28V5.40352H52.8184V28H47.788Z" fill="#252D3A"/>
<path d="M40.2423 19.1578V7.85954H45.2727V19.1578H40.2423Z" fill="#252D3A"/>
<rect x="29.1756" y="14.2456" width="16.0971" height="4.91228" fill="#252D3A"/>
<path d="M29.1756 25.5438V14.2456H34.2059V25.5438H29.1756Z" fill="#252D3A"/>
<rect x="29.1755" y="7.85962" width="11.0667" height="4.91228" fill="#EE3872"/>
<rect x="34.206" y="20.6315" width="11.0667" height="4.91228" fill="#EE3872"/>
<path d="M20.121 28V5.40352H25.1514V28H20.121Z" fill="#252D3A"/>
<path fill-rule="evenodd" clip-rule="evenodd" d="M17.1031 25.0525V8.35077H0V25.0525H17.1031ZM5.03014 13.2631H12.0726V20.1403H5.03014V13.2631Z" fill="#EE3872"/>
<path d="M107.912 2.96183C108.533 2.96183 109.161 3.01982 109.796 3.1364C110.431 3.25297 111.079 3.42294 111.741 3.64546L110.27 9.82936C109.937 9.65979 109.639 9.53283 109.376 9.44805C109.114 9.35272 108.871 9.30469 108.646 9.30469C108.155 9.30473 107.771 9.48478 107.495 9.84496C107.23 10.2052 107.05 10.7723 106.955 11.5458L109.841 11.5623L108.418 17.4439H105.516L103.025 27.9997H95.2946L97.8342 17.4439H95.7648L97.2029 11.5623H99.2401C99.9142 8.56323 100.94 6.37991 102.318 5.01273C103.706 3.64557 105.571 2.96185 107.912 2.96183ZM116.464 27.9997H108.654L112.583 11.5623H120.409L116.464 27.9997ZM133.126 11.5623H135.532L134.092 17.4761H131.686L129.165 27.9997H121.371L123.876 17.4761H121.807L123.248 11.5623H125.316L126.412 6.96805H134.223L133.126 11.5623ZM118.038 2.83408C119.214 2.83408 120.174 3.18992 120.916 3.9C121.659 4.59946 122.003 5.47917 121.946 6.53895C121.885 7.67275 121.367 8.65271 120.392 9.47925C119.418 10.3059 118.284 10.7197 116.99 10.7197C115.825 10.7197 114.865 10.3647 114.112 9.65479C113.371 8.93412 113.028 8.04848 113.085 6.99926C113.145 5.87601 113.662 4.90113 114.636 4.07456C115.611 3.24798 116.745 2.83415 118.038 2.83408Z" fill="#C5C8CF"/>
<path d="M142 9H154.5V22.5" stroke="#252D3A" stroke-width="5"/>
<path d="M163 2V13M163 23V13M171.5 13H163" stroke="#252D3A" stroke-width="5"/>
<path d="M197.5 3V14M197.5 24V14M206 14H197.5" stroke="#252D3A" stroke-width="5"/>
<circle cx="162" cy="29" r="4.5" stroke="#EE3872" stroke-width="5"/>
<path d="M176 20L184 12L192 20" stroke="#252D3A" stroke-width="5"/>
</svg>
