<svg width="95" height="20" viewBox="0 0 95 20" fill="none" xmlns="http://www.w3.org/2000/svg">
<path fill-rule="evenodd" clip-rule="evenodd" d="M50.5263 14.3859C50.5263 11.2854 48.0128 8.77191 44.9123 8.77191C41.8117 8.77191 39.2982 11.2854 39.2982 14.3859C39.2982 17.4865 41.8117 20 44.9123 20C48.0128 20 50.5263 17.4865 50.5263 14.3859ZM42.5062 14.3859C42.5062 13.0571 43.5834 11.9799 44.9122 11.9799C46.2411 11.9799 47.3183 13.0571 47.3183 14.3859C47.3183 15.7147 46.2411 16.7919 44.9122 16.7919C43.5834 16.7919 42.5062 15.7147 42.5062 14.3859Z" fill="#252D3A"/>
<path d="M46.6666 0V3.85965H50.5263V7.36842H46.6666V11.2281H43.1579V7.36842H39.2982V3.85965L43.1579 3.8593V0H46.6666Z" fill="#FF7100"/>
<rect x="51.9301" y="3.85968" width="3.50877" height="16.1404" fill="#252D3A"/>
<rect x="57.8945" y="3.85968" width="3.50877" height="16.1404" fill="#252D3A"/>
<path d="M60.7018 10.1755V13.6843H52.6317V10.1755H60.7018Z" fill="#252D3A"/>
<path d="M33.3333 20V3.85965H36.842V20H33.3333Z" fill="#252D3A"/>
<path d="M28.0699 13.6841V5.61397H31.5787V13.6841H28.0699Z" fill="#252D3A"/>
<rect x="20.3506" y="10.1754" width="11.2281" height="3.50877" fill="#252D3A"/>
<path d="M20.3506 18.2456V10.1754H23.8594V18.2456H20.3506Z" fill="#252D3A"/>
<rect x="20.3506" y="5.61401" width="7.7193" height="3.50877" fill="#FF7100"/>
<rect x="23.8594" y="14.7368" width="7.7193" height="3.50877" fill="#FF7100"/>
<path d="M14.0349 20V3.85965H17.5437V20H14.0349Z" fill="#252D3A"/>
<path fill-rule="evenodd" clip-rule="evenodd" d="M11.9298 17.8947V5.96484H0V17.8947H11.9298ZM3.50864 9.47367H8.42092V14.386H3.50864V9.47367Z" fill="#FF7100"/>
<path d="M84.659 20L86.4065 12.4828H84.9635L85.9679 8.25865H87.4109L88.1758 4.97699H93.6234L92.8586 8.25865H94.5365L93.5321 12.4828H91.8542L90.0955 20H84.659Z" fill="#C5C8CF"/>
<path d="M81.6032 7.65685C80.7904 7.65685 80.1213 7.40325 79.596 6.89605C79.0786 6.38128 78.8396 5.74917 78.8788 4.99973C78.9209 4.19729 79.2818 3.50084 79.9615 2.91037C80.6413 2.31989 81.4323 2.02466 82.3346 2.02466C83.155 2.02466 83.824 2.27826 84.3418 2.78546C84.86 3.28509 85.0993 3.91341 85.0596 4.67043C85.0172 5.48043 84.6561 6.18067 83.9763 6.77114C83.2966 7.36161 82.5056 7.65685 81.6032 7.65685ZM75.7884 20L78.5291 8.25868H83.9879L81.236 20H75.7884Z" fill="#C5C8CF"/>
<path d="M66.4703 20L68.2414 12.4601H66.7984L67.8016 8.25866H69.2222C69.6925 6.1163 70.4081 4.55685 71.3691 3.5803C72.3375 2.60375 73.6383 2.11548 75.2715 2.11548C75.704 2.11548 76.1418 2.15711 76.5849 2.24039C77.028 2.32366 77.4802 2.44478 77.9417 2.60375L76.916 7.02094C76.6837 6.89982 76.476 6.80897 76.2927 6.74841C76.1098 6.68028 75.9401 6.64622 75.7835 6.64622C75.4405 6.64622 75.1727 6.77491 74.9802 7.03229C74.7952 7.28968 74.6696 7.69468 74.6033 8.2473L76.6162 8.25866L75.6242 12.4601H73.5995L71.8621 20H66.4703Z" fill="#C5C8CF"/>
</svg>
